<svg xmlns="http://www.w3.org/2000/svg" xmlns:xlink="http://www.w3.org/1999/xlink" width="113" height="113" viewBox="0 0 113 113">
  <defs>
    <filter id="Path_982547" x="0" y="0" width="113" height="113" filterUnits="userSpaceOnUse">
      <feOffset dy="3" input="SourceAlpha"/>
      <feGaussianBlur stdDeviation="3" result="blur"/>
      <feFlood flood-opacity="0.161"/>
      <feComposite operator="in" in2="blur"/>
      <feComposite in="SourceGraphic"/>
    </filter>
  </defs>
  <g id="Group_1177590" data-name="Group 1177590" transform="translate(-1112 -1163.623)">
    <g id="Group_1177543" data-name="Group 1177543">
      <g id="Group_1177337" data-name="Group 1177337" transform="translate(318.51 -325.812)">
        <g id="Group_1176922" data-name="Group 1176922" transform="translate(802.49 1495.435)">
          <g id="Group_1172322" data-name="Group 1172322" transform="translate(0 0)">
            <g id="Group_1164700" data-name="Group 1164700">
              <g id="Group_1160931" data-name="Group 1160931">
                <g id="Group_1160749" data-name="Group 1160749">
                  <g id="Group_1158891" data-name="Group 1158891">
                    <g id="Group_1157406" data-name="Group 1157406">
                      <g id="Group_1155793" data-name="Group 1155793">
                        <g id="Group_1154704" data-name="Group 1154704">
                          <g id="Group_1150790" data-name="Group 1150790">
                            <g id="Group_1154214" data-name="Group 1154214">
                              <g id="Group_1152583" data-name="Group 1152583">
                                <g id="Group_1146973" data-name="Group 1146973">
                                  <g id="Group_1146954" data-name="Group 1146954">
                                    <g transform="matrix(1, 0, 0, 1, -9, -6)" filter="url(#Path_982547)">
                                      <g id="Path_982547-2" data-name="Path 982547" transform="translate(9 6)" fill="#f2f7e5">
                                        <path d="M 47.5000114440918 93.49987030029297 C 41.28938293457031 93.49987030029297 35.26534652709961 92.28384399414062 29.5951976776123 89.88558959960938 C 24.11773109436035 87.56881713867188 19.19814491271973 84.25183868408203 14.97310447692871 80.02680206298828 C 10.74805164337158 75.80176544189453 7.43107795715332 70.88218688964844 5.114304542541504 65.40472412109375 C 2.716038227081299 59.73458862304688 1.500011444091797 53.71054840087891 1.500011444091797 47.49993515014648 C 1.500011444091797 41.28932189941406 2.716038227081299 35.26528167724609 5.114304542541504 29.59514808654785 C 7.43107795715332 24.1176815032959 10.74805164337158 19.1981086730957 14.97310447692871 14.97306823730469 C 19.19814491271973 10.74802875518799 24.11773109436035 7.431055068969727 29.5951976776123 5.11428165435791 C 35.26534652709961 2.716028451919556 41.28938293457031 1.500001788139343 47.5000114440918 1.500001788139343 C 53.71063995361328 1.500001788139343 59.73467636108398 2.716028451919556 65.40482330322266 5.11428165435791 C 70.88229370117188 7.431055068969727 75.8018798828125 10.74802875518799 80.02691650390625 14.97306823730469 C 84.25196838378906 19.1981086730957 87.56894683837891 24.1176815032959 89.88571929931641 29.59514808654785 C 92.28398132324219 35.26528167724609 93.50001525878906 41.28932189941406 93.50001525878906 47.49993515014648 C 93.50001525878906 53.71054840087891 92.28398132324219 59.73458862304688 89.88571929931641 65.40472412109375 C 87.56894683837891 70.88218688964844 84.25196838378906 75.80176544189453 80.02691650390625 80.02680206298828 C 75.8018798828125 84.25183868408203 70.88229370117188 87.56881713867188 65.40482330322266 89.88558959960938 C 59.73467636108398 92.28384399414062 53.71063995361328 93.49987030029297 47.5000114440918 93.49987030029297 Z" stroke="none"/>
                                        <path d="M 47.5000114440918 3 C 41.49122619628906 3 35.66378021240234 4.1761474609375 30.17951965332031 6.495796203613281 C 24.880859375 8.7369384765625 20.12153625488281 11.94596862792969 16.03376770019531 16.03373718261719 C 11.94598388671875 20.12149047851562 8.736968994140625 24.88081359863281 6.495811462402344 30.17947387695312 C 4.176162719726562 35.66371917724609 3.000007629394531 41.49116516113281 3.000007629394531 47.49993515014648 C 3.000007629394531 53.50870513916016 4.176162719726562 59.33615112304688 6.495811462402344 64.82039642333984 C 8.736968994140625 70.11905670166016 11.94598388671875 74.87837982177734 16.03376770019531 78.96613311767578 C 20.12153625488281 83.05390167236328 24.880859375 86.26293182373047 30.17951965332031 88.50407409667969 C 35.66378021240234 90.82372283935547 41.49122619628906 91.99987030029297 47.5000114440918 91.99987030029297 C 53.50879669189453 91.99987030029297 59.33624267578125 90.82372283935547 64.82050323486328 88.50407409667969 C 70.11916351318359 86.26293182373047 74.87848663330078 83.05390167236328 78.96625518798828 78.96613311767578 C 83.05403900146484 74.87837982177734 86.2630615234375 70.11905670166016 88.50421142578125 64.82039642333984 C 90.82386016845703 59.33615112304688 92.00001525878906 53.50870513916016 92.00001525878906 47.49993515014648 C 92.00001525878906 41.49116516113281 90.82386016845703 35.66371917724609 88.50421142578125 30.17947387695312 C 86.2630615234375 24.88081359863281 83.05403900146484 20.12149047851562 78.96625518798828 16.03373718261719 C 74.87848663330078 11.94596862792969 70.11916351318359 8.7369384765625 64.82050323486328 6.495796203613281 C 59.33624267578125 4.1761474609375 53.50879669189453 3 47.5000114440918 3 M 47.5000114440918 0 C 73.73353576660156 0 95.00001525878906 21.26644134521484 95.00001525878906 47.49993515014648 C 95.00001525878906 73.73342895507812 73.73353576660156 94.99987030029297 47.5000114440918 94.99987030029297 C 21.26648712158203 94.99987030029297 7.62939453125e-06 73.73342895507812 7.62939453125e-06 47.49993515014648 C 7.62939453125e-06 21.26644134521484 21.26648712158203 0 47.5000114440918 0 Z" stroke="none" fill="#86b60c"/>
                                      </g>
                                    </g>
                                  </g>
                                </g>
                              </g>
                            </g>
                          </g>
                        </g>
                      </g>
                    </g>
                  </g>
                </g>
              </g>
            </g>
          </g>
        </g>
      </g>
      <g id="engagement_5862295" transform="translate(1139.261 1188.261)">
        <g id="Group_1177541" data-name="Group 1177541" transform="translate(0.927 0.927)">
          <g id="Group_1177512" data-name="Group 1177512" transform="translate(9.271 16.687)">
            <circle id="Ellipse_11900" data-name="Ellipse 11900" cx="2" cy="2" r="2" transform="translate(-0.458 0.125)" fill="#ffc729"/>
          </g>
          <g id="Group_1177513" data-name="Group 1177513" transform="translate(12.844 3.573)">
            <circle id="Ellipse_11901" data-name="Ellipse 11901" cx="1.855" cy="1.855" r="1.855" fill="#ffc729"/>
          </g>
          <g id="Group_1177514" data-name="Group 1177514" transform="translate(25.958)">
            <circle id="Ellipse_11902" data-name="Ellipse 11902" cx="2" cy="2" r="2" transform="translate(-0.146 -0.188)" fill="#ffc729"/>
          </g>
          <g id="Group_1177515" data-name="Group 1177515" transform="translate(39.071 3.573)">
            <circle id="Ellipse_11903" data-name="Ellipse 11903" cx="1.855" cy="1.855" r="1.855" fill="#ffc729"/>
          </g>
          <g id="Group_1177516" data-name="Group 1177516" transform="translate(42.645 16.687)">
            <circle id="Ellipse_11904" data-name="Ellipse 11904" cx="2" cy="2" r="2" transform="translate(0.167 0.125)" fill="#ffc729"/>
          </g>
          <g id="Group_1177517" data-name="Group 1177517" transform="translate(25.958 33.375)">
            <ellipse id="Ellipse_11905" data-name="Ellipse 11905" cx="2" cy="1.5" rx="2" ry="1.5" transform="translate(-0.146 0.438)" fill="#ffc729"/>
          </g>
          <g id="Group_1177518" data-name="Group 1177518" transform="translate(16.687 7.417)">
            <path id="Path_1038780" data-name="Path 1038780" d="M38,12.254A11.146,11.146,0,1,1,30.125,9,11.09,11.09,0,0,1,38,12.254Z" transform="translate(-19 -9)" fill="#fcd770"/>
          </g>
          <g id="Group_1177519" data-name="Group 1177519" transform="translate(37.083 25.958)">
            <path id="Path_1038781" data-name="Path 1038781" d="M55.833,38.271H50.567a2.152,2.152,0,0,1-2.151-2.151,1.847,1.847,0,0,1,.056-.454h-.009l-1.52.306a2.769,2.769,0,0,0-2.2,2.308l-.037-.009H42.854a1.88,1.88,0,0,0-.881.222A6.114,6.114,0,0,1,41,35.184a3.43,3.43,0,0,1,.992-2.41,3.7,3.7,0,0,1,.51-.417,3.427,3.427,0,0,1,1.9-.575h.306l.148-.454A3.4,3.4,0,0,1,48.083,29h5.275a6.186,6.186,0,0,1,5.219,9.5,1.792,1.792,0,0,0-.89-.232Z" transform="translate(-41 -29)" fill="#656d78"/>
          </g>
          <g id="Group_1177520" data-name="Group 1177520" transform="translate(31.52 46.354)">
            <path id="Path_1038782" data-name="Path 1038782" d="M42.148,53.308a5.537,5.537,0,0,0-1.585,3.884v3.078H35V54.708a3.708,3.708,0,0,1,5.8-3.059A3.748,3.748,0,0,1,42.148,53.308Z" transform="translate(-35 -51)" fill="#ef7385"/>
          </g>
          <g id="Group_1177521" data-name="Group 1177521" transform="translate(43.572 50.062)">
            <path id="Path_1038783" data-name="Path 1038783" d="M49.854,55h1.854l1.854,5.562H48Z" transform="translate(-48 -55)" fill="#ffeaa7"/>
          </g>
          <g id="Group_1177522" data-name="Group 1177522" transform="translate(44.499 46.354)">
            <path id="Path_1038784" data-name="Path 1038784" d="M52.708,51l-.927,3.708H49.927L49,51Z" transform="translate(-49 -51)" fill="#fcd770"/>
          </g>
          <g id="Group_1177523" data-name="Group 1177523" transform="translate(47.281 46.354)">
            <path id="Path_1038785" data-name="Path 1038785" d="M60.344,57.193v3.078h-6.49L52,54.708,52.927,51l3.208.8A5.563,5.563,0,0,1,60.344,57.193Z" transform="translate(-52 -51)" fill="#e6e9ed"/>
          </g>
          <g id="Group_1177524" data-name="Group 1177524" transform="translate(37.083 46.354)">
            <path id="Path_1038786" data-name="Path 1038786" d="M48.417,51l.927,3.708L47.49,60.271H41V57.193a5.575,5.575,0,0,1,4.209-5.4Z" transform="translate(-41 -51)" fill="#e6e9ed"/>
          </g>
          <g id="Group_1177525" data-name="Group 1177525" transform="translate(24.104 46.354)">
            <path id="Path_1038787" data-name="Path 1038787" d="M34.417,54.708v5.562H27V54.708a3.708,3.708,0,1,1,7.417,0Z" transform="translate(-27 -51)" fill="#4fc1e9"/>
          </g>
          <g id="Group_1177526" data-name="Group 1177526" transform="translate(16.956 46.354)">
            <path id="Path_1038788" data-name="Path 1038788" d="M26.438,54.708v5.562H20.875V57.193a5.537,5.537,0,0,0-1.585-3.884,3.711,3.711,0,0,1,7.148,1.4Z" transform="translate(-19.29 -51)" fill="#b4dd7f"/>
          </g>
          <g id="Group_1177527" data-name="Group 1177527" transform="translate(0 25.958)">
            <path id="Path_1038789" data-name="Path 1038789" d="M15.833,38.271h-3.4a3.731,3.731,0,0,1-2.225-.742l-2.16-1.622a2.086,2.086,0,0,0-3.337,1.669v.7H2.854a1.854,1.854,0,0,0-.9.232A6.7,6.7,0,0,1,1,35.054V35A6.008,6.008,0,0,1,9.687,29.63l.584.3.584-.3A6,6,0,0,1,13.543,29a5.931,5.931,0,0,1,4.237,1.761,5.824,5.824,0,0,1,.825,1.029A5.913,5.913,0,0,1,19.541,35v.056a6.7,6.7,0,0,1-.955,3.449,1.854,1.854,0,0,0-.9-.232Z" transform="translate(-1 -29)" fill="#b27946"/>
          </g>
          <g id="Group_1177528" data-name="Group 1177528" transform="translate(10.198 46.354)">
            <path id="Path_1038790" data-name="Path 1038790" d="M20.344,57.193v3.078h-6.49L12,54.708,12.927,51l3.208.8a5.575,5.575,0,0,1,4.209,5.4Z" transform="translate(-12 -51)" fill="#fcd770"/>
          </g>
          <g id="Group_1177529" data-name="Group 1177529" transform="translate(0 46.354)">
            <path id="Path_1038791" data-name="Path 1038791" d="M8.417,51l.927,3.708L7.49,60.271H1V57.193a5.563,5.563,0,0,1,4.209-5.4Z" transform="translate(-1 -51)" fill="#fcd770"/>
          </g>
          <g id="Group_1177530" data-name="Group 1177530" transform="translate(6.49 50.062)">
            <path id="Path_1038792" data-name="Path 1038792" d="M11.708,55l1.854,5.562H8L9.854,55Z" transform="translate(-8 -55)" fill="#ef7385"/>
          </g>
          <g id="Group_1177531" data-name="Group 1177531" transform="translate(7.417 46.354)">
            <path id="Path_1038793" data-name="Path 1038793" d="M12.708,51l-.927,3.708H9.927L9,51Z" transform="translate(-9 -51)" fill="#ed5565"/>
          </g>
          <g id="Group_1177532" data-name="Group 1177532" transform="translate(17.614 40.791)">
            <ellipse id="Ellipse_11906" data-name="Ellipse 11906" cx="2.5" cy="3" rx="2.5" ry="3" transform="translate(0.198 0.021)" fill="#f0d0b4"/>
          </g>
          <g id="Group_1177533" data-name="Group 1177533" transform="translate(25.031 40.791)">
            <circle id="Ellipse_11907" data-name="Ellipse 11907" cx="3" cy="3" r="3" transform="translate(-0.219 0.021)" fill="#f0d0b4"/>
          </g>
          <g id="Group_1177534" data-name="Group 1177534" transform="translate(32.448 40.791)">
            <ellipse id="Ellipse_11908" data-name="Ellipse 11908" cx="2.5" cy="3" rx="2.5" ry="3" transform="translate(0.365 0.021)" fill="#f0d0b4"/>
          </g>
          <g id="Group_1177535" data-name="Group 1177535" transform="translate(37.083 35.229)">
            <path id="Path_1038794" data-name="Path 1038794" d="M44.745,39.009a2.116,2.116,0,0,0-.037.417v3.282H42.854A1.86,1.86,0,0,1,41,40.854a1.813,1.813,0,0,1,.547-1.307,1.624,1.624,0,0,1,.426-.324A1.88,1.88,0,0,1,42.854,39h1.854Z" transform="translate(-41 -39)" fill="#f0d0b4"/>
          </g>
          <g id="Group_1177536" data-name="Group 1177536" transform="translate(51.916 35.229)">
            <path id="Path_1038795" data-name="Path 1038795" d="M59.744,39.232a1.547,1.547,0,0,1,.417.315,1.813,1.813,0,0,1,.547,1.307,1.86,1.86,0,0,1-1.854,1.854H57V39h1.854A1.792,1.792,0,0,1,59.744,39.232Z" transform="translate(-57 -39)" fill="#f0d0b4"/>
          </g>
          <g id="Group_1177537" data-name="Group 1177537" transform="translate(40.791 32.624)">
            <path id="Path_1038796" data-name="Path 1038796" d="M48.708,36.644A2.152,2.152,0,0,0,50.859,38.8h5.266v3.977a5.564,5.564,0,0,1-3.078,4.978l-.121.056a.93.93,0,0,0-.51.834V49.92H48.708V48.641a.93.93,0,0,0-.51-.834l-.121-.056A5.564,5.564,0,0,1,45,42.772V39.222a2.116,2.116,0,0,1,.037-.417,2.769,2.769,0,0,1,2.2-2.308l1.52-.306h.009a1.847,1.847,0,0,0-.056.454Z" transform="translate(-45 -36.19)" fill="#f0d0b4"/>
          </g>
          <g id="Group_1177538" data-name="Group 1177538" transform="translate(14.833 35.229)">
            <path id="Path_1038797" data-name="Path 1038797" d="M18.854,39a1.854,1.854,0,0,1,.9.232,1.92,1.92,0,0,1,.408.315,1.813,1.813,0,0,1,.547,1.307,1.86,1.86,0,0,1-1.854,1.854H17V39Z" transform="translate(-17 -39)" fill="#f0d0b4"/>
          </g>
          <g id="Group_1177539" data-name="Group 1177539" transform="translate(3.708 32.448)">
            <path id="Path_1038798" data-name="Path 1038798" d="M16.125,42.49v.269a5.564,5.564,0,0,1-3.078,4.978l-.121.056a.93.93,0,0,0-.51.834v1.279H8.708V48.627a.93.93,0,0,0-.51-.834l-.121-.056A5.564,5.564,0,0,1,5,42.758V38.086a2.086,2.086,0,0,1,3.337-1.669L10.5,38.04a3.731,3.731,0,0,0,2.225.742h3.4Z" transform="translate(-5 -36)" fill="#f0d0b4"/>
          </g>
          <g id="Group_1177540" data-name="Group 1177540" transform="translate(0 35.229)">
            <path id="Path_1038799" data-name="Path 1038799" d="M4.708,39v3.708H2.854A1.86,1.86,0,0,1,1,40.854a1.813,1.813,0,0,1,.547-1.307,1.92,1.92,0,0,1,.408-.315,1.854,1.854,0,0,1,.9-.232Z" transform="translate(-1 -39)" fill="#f0d0b4"/>
          </g>
        </g>
        <g id="Group_1177542" data-name="Group 1177542" transform="translate(0 0)">
          <path id="Path_1038800" data-name="Path 1038800" d="M31.562,24.979H29.708a1.856,1.856,0,0,1-1.854-1.854H26a3.712,3.712,0,0,0,3.708,3.708v1.854h1.854V26.833a3.708,3.708,0,0,0,0-7.417H29.708a1.854,1.854,0,1,1,0-3.708h1.854a1.856,1.856,0,0,1,1.854,1.854h1.854a3.712,3.712,0,0,0-3.708-3.708V12H29.708v1.854a3.708,3.708,0,1,0,0,7.417h1.854a1.854,1.854,0,0,1,0,3.708Z" transform="translate(-1.896 -0.875)"/>
          <path id="Path_1038801" data-name="Path 1038801" d="M50.182,45.939a6.443,6.443,0,0,0,3.542-5.148H54.7a2.769,2.769,0,0,0,2.061-4.632,7.088,7.088,0,0,0-6.388-10.2H45.095a4.32,4.32,0,0,0-4.047,2.8,4.279,4.279,0,0,0-1.356.357L37.881,27.3a11.986,11.986,0,0,0,2.863-6.9h2.072a2.781,2.781,0,1,0,0-1.854H40.744a11.983,11.983,0,0,0-2.863-6.9L40.66,8.86a2.781,2.781,0,1,0-1.311-1.311L36.57,10.327a11.983,11.983,0,0,0-6.9-2.863V5.392a2.781,2.781,0,1,0-1.854,0V7.464a11.983,11.983,0,0,0-6.9,2.863L18.13,7.549A2.808,2.808,0,1,0,16.819,8.86L19.6,11.638a11.986,11.986,0,0,0-2.863,6.9H14.663a2.781,2.781,0,1,0,0,1.854h2.072A11.983,11.983,0,0,0,19.6,27.3l-.973.974a6.9,6.9,0,0,0-8.253-1.585l-.173.086-.173-.086A6.927,6.927,0,0,0,0,32.937a7.613,7.613,0,0,0,.725,3.217,2.769,2.769,0,0,0,2.056,4.637h.972a6.44,6.44,0,0,0,3.54,5.147L7.417,46v.558l-2.5.626A6.478,6.478,0,0,0,0,53.478v4H57.479v-4a6.478,6.478,0,0,0-4.915-6.295l-2.5-.626V46Zm4.515-7H53.77V37.083H54.7a.927.927,0,1,1,0,1.854ZM41.41,30.592h.976l.364-1.09a2.468,2.468,0,0,1,2.345-1.69h5.276a5.248,5.248,0,0,1,4.763,7.461,2.723,2.723,0,0,0-.438-.044h-.969a7.2,7.2,0,0,0-2.084-4.364l-1.311,1.311a5.357,5.357,0,0,1,1.522,3.053H47.582a1.228,1.228,0,0,1-.389-2.393L48.5,32.4l-.586-1.76-1.308.437a3.07,3.07,0,0,0-1.832,1.668l-1,.2a3.711,3.711,0,0,0-2.716,2.283H39.864a2.723,2.723,0,0,0-.438.044,5.242,5.242,0,0,1-.489-2.207,2.476,2.476,0,0,1,2.473-2.473Zm-.618,8.345h-.927a.927.927,0,1,1,0-1.854h.927Zm4.635-20.4a.927.927,0,1,1-.927.927A.928.928,0,0,1,45.427,18.541ZM41.194,5.7a.927.927,0,1,1,0,1.312A.927.927,0,0,1,41.194,5.7ZM28.739,1.854a.927.927,0,1,1-.927.927A.928.928,0,0,1,28.739,1.854ZM14.973,7.013a.927.927,0,1,1,1.311,0,.929.929,0,0,1-1.311,0ZM12.052,20.4a.927.927,0,1,1,.927-.927A.928.928,0,0,1,12.052,20.4ZM28.739,9.271a10.2,10.2,0,1,1-10.2,10.2A10.21,10.21,0,0,1,28.739,9.271Zm.927,26.885a.927.927,0,1,1-.927-.927A.928.928,0,0,1,29.666,36.156Zm-8.758-7.545a11.986,11.986,0,0,0,6.9,2.863v2.072a2.781,2.781,0,1,0,1.854,0V31.474a11.983,11.983,0,0,0,6.9-2.863l1.6,1.6a4.3,4.3,0,0,0-1.088,2.854,7.093,7.093,0,0,0,.72,3.094,2.769,2.769,0,0,0,2.061,4.632h.972a6.44,6.44,0,0,0,3.54,5.147L44.5,46v.558l-2.5.626a6.468,6.468,0,0,0-2.16,1,4.61,4.61,0,0,0-1.089-1.042,3.709,3.709,0,1,0-5.183,0,4.663,4.663,0,0,0-1.119,1.09,4.663,4.663,0,0,0-1.119-1.09,3.708,3.708,0,1,0-5.179,0,4.663,4.663,0,0,0-1.119,1.09,4.663,4.663,0,0,0-1.119-1.09,3.708,3.708,0,1,0-5.183,0,4.628,4.628,0,0,0-1.089,1.042,6.468,6.468,0,0,0-2.16-1l-2.5-.625V46l.12-.059a6.443,6.443,0,0,0,3.542-5.148h.972a2.769,2.769,0,0,0,2.056-4.637,7.71,7.71,0,0,0,.725-3.269,6.863,6.863,0,0,0-.716-3.046Zm26.114,23.3h.517l1.236,3.708h-2.99Zm.462-1.854h-.406l-.464-1.854h1.333ZM44.752,48.4l.637,2.547-1.557,4.673H38.937V53.478a4.628,4.628,0,0,1,3.512-4.5ZM10.4,50.062H9.995l-.464-1.854h1.333Zm-.462,1.854h.517l1.236,3.708H8.7Zm2.151-.964.637-2.547,2.3.577a4.627,4.627,0,0,1,3.511,4.5v2.146H13.647ZM19,49.462a2.777,2.777,0,0,1,5.1,1.527v4.635H20.4V53.478A6.472,6.472,0,0,0,19,49.462Zm.464-4.963a1.854,1.854,0,1,1,1.854,1.854A1.856,1.856,0,0,1,19.469,44.5Zm9.271,3.708a2.785,2.785,0,0,1,2.781,2.781v4.635H25.958V50.989A2.785,2.785,0,0,1,28.739,48.208ZM26.885,44.5a1.854,1.854,0,1,1,1.854,1.854A1.856,1.856,0,0,1,26.885,44.5Zm9.271,3.708a2.767,2.767,0,0,1,2.319,1.254,6.472,6.472,0,0,0-1.392,4.016v2.146H33.375V50.989A2.785,2.785,0,0,1,36.156,48.208ZM34.3,44.5a1.854,1.854,0,1,1,1.854,1.854A1.856,1.856,0,0,1,34.3,44.5Zm-15.76-6.49a.928.928,0,0,1-.927.927h-.927V37.083h.927A.928.928,0,0,1,18.541,38.01ZM6.927,27.812a5.108,5.108,0,0,1,2.269.536l1,.5,1-.5a5.073,5.073,0,0,1,7.342,4.589,5.775,5.775,0,0,1-.5,2.335,2.739,2.739,0,0,0-.43-.044H16.594a4.643,4.643,0,0,0-4.542-3.708v1.854a2.787,2.787,0,0,1,2.623,1.854H12.362a2.794,2.794,0,0,1-1.669-.556L8.529,33.05a3,3,0,0,0-4.8,2.179h-.95a2.749,2.749,0,0,0-.43.044,5.886,5.886,0,0,1-.5-2.387,5.079,5.079,0,0,1,5.073-5.073ZM1.854,38.01a.928.928,0,0,1,.927-.927h.927v1.854H2.781A.928.928,0,0,1,1.854,38.01Zm3.708,2.125V35.461a1.159,1.159,0,0,1,1.854-.927l2.163,1.622a4.661,4.661,0,0,0,2.781.927h2.473v3.052a4.612,4.612,0,0,1-2.564,4.147l-.119.059A1.842,1.842,0,0,0,11.125,46v.354H9.271V46a1.841,1.841,0,0,0-1.023-1.658l-.122-.061A4.611,4.611,0,0,1,5.562,40.135ZM1.854,53.478a4.628,4.628,0,0,1,3.512-4.5l2.3-.577.637,2.547L6.748,55.624H1.854Zm50.259-4.5a4.629,4.629,0,0,1,3.511,4.5v2.146H50.73l-1.557-4.672.637-2.547Zm-2.762-4.7-.119.059A1.842,1.842,0,0,0,48.208,46v.354H46.354V46a1.841,1.841,0,0,0-1.023-1.658l-.122-.061a4.611,4.611,0,0,1-2.562-4.146V36.581a1.859,1.859,0,0,1,1.491-1.818l.443-.089a3.084,3.084,0,0,0,3,2.409h4.334v3.052a4.612,4.612,0,0,1-2.564,4.147Z" transform="translate(0 0)"/>
          <path id="Path_1038802" data-name="Path 1038802" d="M51.73,43.565a1.341,1.341,0,0,1-1.854,0l-.272-.272L48.293,44.6l.271.272a3.166,3.166,0,0,0,4.477,0l.272-.272L52,43.293Z" transform="translate(-3.522 -3.157)"/>
          <path id="Path_1038803" data-name="Path 1038803" d="M13.041,44.876l.272-.272L12,43.293l-.272.272a1.341,1.341,0,0,1-1.854,0L9.6,43.293,8.293,44.6l.271.272a3.166,3.166,0,0,0,4.477,0Z" transform="translate(-0.605 -3.157)"/>
        </g>
      </g>
    </g>
  </g>
</svg>
