<svg xmlns="http://www.w3.org/2000/svg" xmlns:xlink="http://www.w3.org/1999/xlink" width="108" height="108" viewBox="0 0 108 108">
  <defs>
    <filter id="Path_904820" x="0" y="0" width="108" height="108" filterUnits="userSpaceOnUse">
      <feOffset dy="3" input="SourceAlpha"/>
      <feGaussianBlur stdDeviation="3" result="blur"/>
      <feFlood flood-opacity="0.161"/>
      <feComposite operator="in" in2="blur"/>
      <feComposite in="SourceGraphic"/>
    </filter>
  </defs>
  <g id="Group_1177605" data-name="Group 1177605" transform="translate(-620 -517)">
    <g id="Group_1177550" data-name="Group 1177550">
      <g id="Group_1177367" data-name="Group 1177367" transform="translate(629 523)">
        <g id="Group_1173585" data-name="Group 1173585" transform="translate(0 0)">
          <g id="Group_1173428" data-name="Group 1173428">
            <g id="Group_1171958" data-name="Group 1171958">
              <g id="Group_1167341" data-name="Group 1167341">
                <g id="Group_1166792" data-name="Group 1166792">
                  <g transform="matrix(1, 0, 0, 1, -9, -6)" filter="url(#Path_904820)">
                    <g id="Path_904820-2" data-name="Path 904820" transform="translate(9 6)" fill="#e9f9fd">
                      <path d="M 44.99995803833008 88.49995422363281 C 39.12683486938477 88.49995422363281 33.43019485473633 87.35002899169922 28.06826972961426 85.08213043212891 C 22.88849639892578 82.89126586914062 18.23628234863281 79.75455474853516 14.2408332824707 75.75910186767578 C 10.24539566040039 71.76364898681641 7.108683109283447 67.11142730712891 4.917820453643799 61.93166351318359 C 2.649920463562012 56.56974029541016 1.499995589256287 50.87308883666992 1.499995589256287 44.99997711181641 C 1.499995589256287 39.12685394287109 2.649920463562012 33.43021392822266 4.917820453643799 28.06828880310059 C 7.108683109283447 22.88851547241211 10.24539566040039 18.23628997802734 14.2408332824707 14.24085235595703 C 18.23628234863281 10.24540233612061 22.88849639892578 7.108689785003662 28.06826972961426 4.917827129364014 C 33.43019485473633 2.649927139282227 39.12683486938477 1.500002145767212 44.99995803833008 1.500002145767212 C 50.87308120727539 1.500002145767212 56.56972122192383 2.649927139282227 61.93164443969727 4.917827129364014 C 67.11141967773438 7.108689785003662 71.76363372802734 10.24540233612061 75.75908660888672 14.24085235595703 C 79.75452423095703 18.23628997802734 82.8912353515625 22.88851547241211 85.08209228515625 28.06828880310059 C 87.34999847412109 33.43021392822266 88.49992370605469 39.12685394287109 88.49992370605469 44.99997711181641 C 88.49992370605469 50.87308883666992 87.34999847412109 56.56974029541016 85.08209228515625 61.93166351318359 C 82.8912353515625 67.11142730712891 79.75452423095703 71.76364898681641 75.75908660888672 75.75910186767578 C 71.76363372802734 79.75455474853516 67.11141967773438 82.89126586914062 61.93164443969727 85.08213043212891 C 56.56972122192383 87.35002899169922 50.87308120727539 88.49995422363281 44.99995803833008 88.49995422363281 Z" stroke="none"/>
                      <path d="M 44.99995803833008 2.999992370605469 C 39.32867050170898 2.999992370605469 33.82862854003906 4.11004638671875 28.6525993347168 6.299331665039062 C 23.65162658691406 8.414566040039062 19.15967559814453 11.44333648681641 15.30148315429688 15.30150604248047 C 11.44331359863281 19.15967559814453 8.414558410644531 23.65163421630859 6.29931640625 28.65260696411133 C 4.11004638671875 33.82864761352539 2.999984741210938 39.32868957519531 2.999984741210938 44.99997711181641 C 2.999984741210938 50.6712646484375 4.11004638671875 56.17130661010742 6.29931640625 61.34733581542969 C 8.414558410644531 66.34830474853516 11.44331359863281 70.84026336669922 15.30148315429688 74.69843292236328 C 19.15967559814453 78.55660247802734 23.65162658691406 81.58537292480469 28.6525993347168 83.70060729980469 C 33.82862854003906 85.889892578125 39.32867050170898 86.99994659423828 44.99995803833008 86.99994659423828 C 50.67124557495117 86.99994659423828 56.17128753662109 85.889892578125 61.34731292724609 83.70062255859375 C 66.34828186035156 81.58537292480469 70.84024047851562 78.55660247802734 74.69841766357422 74.69843292236328 C 78.55658721923828 70.84026336669922 81.58535766601562 66.34830474853516 83.70058441162109 61.34733581542969 C 85.88986206054688 56.17130661010742 86.99991607666016 50.6712646484375 86.99991607666016 44.99997711181641 C 86.99991607666016 39.32868957519531 85.88986206054688 33.82864761352539 83.70058441162109 28.65260696411133 C 81.58535766601562 23.65163421630859 78.55658721923828 19.15967559814453 74.69841766357422 15.30150604248047 C 70.84024047851562 11.44333648681641 66.34828186035156 8.414566040039062 61.34731292724609 6.299331665039062 C 56.17128753662109 4.11004638671875 50.67124557495117 2.999992370605469 44.99995803833008 2.999992370605469 M 44.99995803833008 -7.62939453125e-06 C 69.85276031494141 -7.62939453125e-06 89.99991607666016 20.14717864990234 89.99991607666016 44.99997711181641 C 89.99991607666016 69.85276031494141 69.85276031494141 89.99994659423828 44.99995803833008 89.99994659423828 C 20.14715576171875 89.99994659423828 -1.52587890625e-05 69.85276031494141 -1.52587890625e-05 44.99997711181641 C -1.52587890625e-05 20.14717864990234 20.14715576171875 -7.62939453125e-06 44.99995803833008 -7.62939453125e-06 Z" stroke="none" fill="#1d7083"/>
                    </g>
                  </g>
                </g>
              </g>
            </g>
          </g>
        </g>
      </g>
      <g id="currency_15137366" transform="translate(644 538.122)">
        <path id="Path_1038864" data-name="Path 1038864" d="M45,30A15,15,0,1,1,29.118,15.026c.291-.017.591-.026.882-.026s.591.009.882.026A14.994,14.994,0,0,1,45,30Z" fill="#efc812"/>
        <path id="Path_1038865" data-name="Path 1038865" d="M1.462,37.375,8.6,30.446a1.584,1.584,0,0,1,2.2,0l7.134,6.929A1.533,1.533,0,0,1,16.833,40H15c0,6.743,5.257,12.706,11.87,14.026l1.2.232A2.394,2.394,0,0,1,27.607,59H22.75A18.893,18.893,0,0,1,4,40H2.564a1.533,1.533,0,0,1-1.1-2.625Z" fill="#10bf42"/>
        <path id="Path_1038866" data-name="Path 1038866" d="M58.538,22.625,51.4,29.554a1.584,1.584,0,0,1-2.2,0l-7.134-6.929A1.533,1.533,0,0,1,43.167,20H45c0-6.743-5.257-12.706-11.87-14.026l-1.2-.232A2.394,2.394,0,0,1,32.393,1H37.25A18.893,18.893,0,0,1,56,20h1.435a1.533,1.533,0,0,1,1.1,2.625Z" fill="#10bf42"/>
        <path id="Path_1038867" data-name="Path 1038867" d="M7.9,29.729.766,36.657l-.006.006a2.487,2.487,0,0,0-.569,2.756A2.552,2.552,0,0,0,2.564,41h.459A19.887,19.887,0,0,0,22.75,60h4.857a3.394,3.394,0,0,0,.654-6.724l-1.2-.231A13.782,13.782,0,0,1,16.04,41h.793a2.567,2.567,0,0,0,1.273-.341,15.943,15.943,0,0,0,27.7-13L48.5,30.27a2.594,2.594,0,0,0,3.6,0l7.134-6.928.006-.006a2.487,2.487,0,0,0,.569-2.756A2.552,2.552,0,0,0,57.436,19h-.459A19.887,19.887,0,0,0,37.25,0H32.393a3.394,3.394,0,0,0-.653,6.725l1.2.229A13.784,13.784,0,0,1,43.96,19h-.793a2.567,2.567,0,0,0-1.273.341,15.947,15.947,0,0,0-19.362-3.492,1,1,0,1,0,.936,1.767,13.96,13.96,0,0,1,17.2,3.357,2.484,2.484,0,0,0,.7,2.37l1.7,1.645A13.982,13.982,0,0,1,19.33,39.027a2.484,2.484,0,0,0-.7-2.37l-1.7-1.645a13.954,13.954,0,0,1,2.63-14.345,1,1,0,1,0-1.49-1.334,15.766,15.766,0,0,0-3.889,13.009L11.5,29.73a2.593,2.593,0,0,0-3.6,0ZM42.644,21.34a.7.7,0,0,1,.034-.065c.008-.013.016-.025.023-.039A.535.535,0,0,1,43.167,21H45a1,1,0,0,0,1-1A15.736,15.736,0,0,0,33.32,4.991l-1.19-.228A1.394,1.394,0,0,1,32.393,2H37.25A17.9,17.9,0,0,1,55,20a1,1,0,0,0,1,1h1.435a.54.54,0,0,1,.523.34.5.5,0,0,1-.121.571L50.7,28.838a.58.58,0,0,1-.809,0l-7.129-6.923A.5.5,0,0,1,42.644,21.34ZM17.356,38.66a.539.539,0,0,1-.523.34H15a1,1,0,0,0-1,1A15.731,15.731,0,0,0,26.679,55.007l1.191.23A1.394,1.394,0,0,1,27.607,58H22.75A17.9,17.9,0,0,1,5,40a1,1,0,0,0-1-1H2.564a.54.54,0,0,1-.523-.34.5.5,0,0,1,.121-.571L9.3,31.162a.58.58,0,0,1,.809,0l7.129,6.923a.5.5,0,0,1,.118.575Z" fill="#0b0a0a"/>
        <path id="Path_1038868" data-name="Path 1038868" d="M35.293,23.293l-12,12a1,1,0,1,0,1.414,1.414l12-12a1,1,0,1,0-1.414-1.414Z" fill="#0b0a0a"/>
        <path id="Path_1038869" data-name="Path 1038869" d="M25,22a3,3,0,1,0,3,3,3,3,0,0,0-3-3Zm0,4a1,1,0,1,1,1-1A1,1,0,0,1,25,26Z" fill="#0b0a0a"/>
        <path id="Path_1038870" data-name="Path 1038870" d="M32,35a3,3,0,1,0,3-3A3,3,0,0,0,32,35Zm4,0a1,1,0,1,1-1-1A1,1,0,0,1,36,35Z" fill="#0b0a0a"/>
        <path id="Path_1038871" data-name="Path 1038871" d="M8,39a1,1,0,0,0-1,1,16.163,16.163,0,0,0,6.4,12.866,1,1,0,0,0,1.2-1.6A14.159,14.159,0,0,1,9,40,1,1,0,0,0,8,39Z" fill="#0b0a0a"/>
        <path id="Path_1038872" data-name="Path 1038872" d="M52,21a1,1,0,0,0,1-1A16.163,16.163,0,0,0,46.6,7.134a1,1,0,0,0-1.2,1.6A14.159,14.159,0,0,1,51,20,1,1,0,0,0,52,21Z" fill="#0b0a0a"/>
      </g>
    </g>
  </g>
</svg>
