<svg xmlns="http://www.w3.org/2000/svg" xmlns:xlink="http://www.w3.org/1999/xlink" width="113" height="113" viewBox="0 0 113 113">
  <defs>
    <filter id="Path_982547" x="0" y="0" width="113" height="113" filterUnits="userSpaceOnUse">
      <feOffset dy="3" input="SourceAlpha"/>
      <feGaussianBlur stdDeviation="3" result="blur"/>
      <feFlood flood-opacity="0.161"/>
      <feComposite operator="in" in2="blur"/>
      <feComposite in="SourceGraphic"/>
    </filter>
  </defs>
  <g id="Group_1177592" data-name="Group 1177592" transform="translate(-7959.51 -1164.785)">
    <g id="Group_1177547" data-name="Group 1177547">
      <g id="Group_1177339" data-name="Group 1177339" transform="translate(7166.021 -324.65)">
        <g id="Group_1176922" data-name="Group 1176922" transform="translate(802.49 1495.435)">
          <g id="Group_1172322" data-name="Group 1172322" transform="translate(0 0)">
            <g id="Group_1164700" data-name="Group 1164700">
              <g id="Group_1160931" data-name="Group 1160931">
                <g id="Group_1160749" data-name="Group 1160749">
                  <g id="Group_1158891" data-name="Group 1158891">
                    <g id="Group_1157406" data-name="Group 1157406">
                      <g id="Group_1155793" data-name="Group 1155793">
                        <g id="Group_1154704" data-name="Group 1154704">
                          <g id="Group_1150790" data-name="Group 1150790">
                            <g id="Group_1154214" data-name="Group 1154214">
                              <g id="Group_1152583" data-name="Group 1152583">
                                <g id="Group_1146973" data-name="Group 1146973">
                                  <g id="Group_1146954" data-name="Group 1146954">
                                    <g transform="matrix(1, 0, 0, 1, -9, -6)" filter="url(#Path_982547)">
                                      <g id="Path_982547-2" data-name="Path 982547" transform="translate(9 6)" fill="#f2f7e5">
                                        <path d="M 47.5000114440918 93.49987030029297 C 41.28938293457031 93.49987030029297 35.26534652709961 92.28384399414062 29.5951976776123 89.88558959960938 C 24.11773109436035 87.56881713867188 19.19814491271973 84.25183868408203 14.97310447692871 80.02680206298828 C 10.74805164337158 75.80176544189453 7.43107795715332 70.88218688964844 5.114304542541504 65.40472412109375 C 2.716038227081299 59.73458862304688 1.500011444091797 53.71054840087891 1.500011444091797 47.49993515014648 C 1.500011444091797 41.28932189941406 2.716038227081299 35.26528167724609 5.114304542541504 29.59514808654785 C 7.43107795715332 24.1176815032959 10.74805164337158 19.1981086730957 14.97310447692871 14.97306823730469 C 19.19814491271973 10.74802875518799 24.11773109436035 7.431055068969727 29.5951976776123 5.11428165435791 C 35.26534652709961 2.716028451919556 41.28938293457031 1.500001788139343 47.5000114440918 1.500001788139343 C 53.71063995361328 1.500001788139343 59.73467636108398 2.716028451919556 65.40482330322266 5.11428165435791 C 70.88229370117188 7.431055068969727 75.8018798828125 10.74802875518799 80.02691650390625 14.97306823730469 C 84.25196838378906 19.1981086730957 87.56894683837891 24.1176815032959 89.88571929931641 29.59514808654785 C 92.28398132324219 35.26528167724609 93.50001525878906 41.28932189941406 93.50001525878906 47.49993515014648 C 93.50001525878906 53.71054840087891 92.28398132324219 59.73458862304688 89.88571929931641 65.40472412109375 C 87.56894683837891 70.88218688964844 84.25196838378906 75.80176544189453 80.02691650390625 80.02680206298828 C 75.8018798828125 84.25183868408203 70.88229370117188 87.56881713867188 65.40482330322266 89.88558959960938 C 59.73467636108398 92.28384399414062 53.71063995361328 93.49987030029297 47.5000114440918 93.49987030029297 Z" stroke="none"/>
                                        <path d="M 47.5000114440918 3 C 41.49122619628906 3 35.66378021240234 4.1761474609375 30.17951965332031 6.495796203613281 C 24.880859375 8.7369384765625 20.12153625488281 11.94596862792969 16.03376770019531 16.03373718261719 C 11.94598388671875 20.12149047851562 8.736968994140625 24.88081359863281 6.495811462402344 30.17947387695312 C 4.176162719726562 35.66371917724609 3.000007629394531 41.49116516113281 3.000007629394531 47.49993515014648 C 3.000007629394531 53.50870513916016 4.176162719726562 59.33615112304688 6.495811462402344 64.82039642333984 C 8.736968994140625 70.11905670166016 11.94598388671875 74.87837982177734 16.03376770019531 78.96613311767578 C 20.12153625488281 83.05390167236328 24.880859375 86.26293182373047 30.17951965332031 88.50407409667969 C 35.66378021240234 90.82372283935547 41.49122619628906 91.99987030029297 47.5000114440918 91.99987030029297 C 53.50879669189453 91.99987030029297 59.33624267578125 90.82372283935547 64.82050323486328 88.50407409667969 C 70.11916351318359 86.26293182373047 74.87848663330078 83.05390167236328 78.96625518798828 78.96613311767578 C 83.05403900146484 74.87837982177734 86.2630615234375 70.11905670166016 88.50421142578125 64.82039642333984 C 90.82386016845703 59.33615112304688 92.00001525878906 53.50870513916016 92.00001525878906 47.49993515014648 C 92.00001525878906 41.49116516113281 90.82386016845703 35.66371917724609 88.50421142578125 30.17947387695312 C 86.2630615234375 24.88081359863281 83.05403900146484 20.12149047851562 78.96625518798828 16.03373718261719 C 74.87848663330078 11.94596862792969 70.11916351318359 8.7369384765625 64.82050323486328 6.495796203613281 C 59.33624267578125 4.1761474609375 53.50879669189453 3 47.5000114440918 3 M 47.5000114440918 0 C 73.73353576660156 0 95.00001525878906 21.26644134521484 95.00001525878906 47.49993515014648 C 95.00001525878906 73.73342895507812 73.73353576660156 94.99987030029297 47.5000114440918 94.99987030029297 C 21.26648712158203 94.99987030029297 7.62939453125e-06 73.73342895507812 7.62939453125e-06 47.49993515014648 C 7.62939453125e-06 21.26644134521484 21.26648712158203 0 47.5000114440918 0 Z" stroke="none" fill="#86b60c"/>
                                      </g>
                                    </g>
                                  </g>
                                </g>
                              </g>
                            </g>
                          </g>
                        </g>
                      </g>
                    </g>
                  </g>
                </g>
              </g>
            </g>
          </g>
        </g>
      </g>
      <g id="unemployment_17899252" transform="translate(7987.212 1171.364)">
        <path id="Path_1038832" data-name="Path 1038832" d="M18.635,94.93H28.859a10.665,10.665,0,0,1,10.632,10.632v8.983a10.665,10.665,0,0,1-10.632,10.632H18.635A10.665,10.665,0,0,1,8,114.545v-8.983A10.665,10.665,0,0,1,18.635,94.93Z" transform="translate(-7.1 -66.128)" fill="#0593fc" fill-rule="evenodd"/>
        <path id="Path_1038833" data-name="Path 1038833" d="M57.693,263.782a6.615,6.615,0,0,1,11.443,4.528v2.764a10.568,10.568,0,0,1-6.33,2.1H52.582a10.58,10.58,0,0,1-6.332-2.1V268.31a6.615,6.615,0,0,1,11.443-4.528Z" transform="translate(-41.047 -214.128)" fill="#0584e3" fill-rule="evenodd"/>
        <path id="Path_1038834" data-name="Path 1038834" d="M67.083,277.68A4.836,4.836,0,0,1,71.9,282.5v13.52a4.821,4.821,0,0,1-9.642,0V282.5a4.837,4.837,0,0,1,4.823-4.823Z" transform="translate(-55.256 -228.32)" fill="#056bb8" fill-rule="evenodd"/>
        <path id="Path_1038835" data-name="Path 1038835" d="M152.783,277.68a4.837,4.837,0,0,0-4.823,4.823v13.52a4.823,4.823,0,0,0,9.645,0V282.5A4.837,4.837,0,0,0,152.783,277.68Z" transform="translate(-131.315 -228.32)" fill="#056bb8" fill-rule="evenodd"/>
        <path id="Path_1038836" data-name="Path 1038836" d="M84.018,45.537a8.548,8.548,0,1,0-8.548-8.548A8.566,8.566,0,0,0,84.018,45.537Z" transform="translate(-66.98 -7.118)" fill="#fbbd80" fill-rule="evenodd"/>
        <path id="Path_1038837" data-name="Path 1038837" d="M322.433,153.893v-6.818a.507.507,0,0,1,.5-.5h7.8a.5.5,0,0,1,.353.148.5.5,0,0,1,.148.353v6.818h2.783v-6.818a3.288,3.288,0,0,0-3.285-3.285h-7.8a3.288,3.288,0,0,0-3.285,3.285v6.818Z" transform="translate(-283.691 -109.492)" fill="#223c55"/>
        <g id="Group_1177545" data-name="Group 1177545" transform="translate(8.49 21.321)">
          <path id="Path_1038838" data-name="Path 1038838" d="M296.237,258.5H270.9v12.18a1.565,1.565,0,0,0,1.591,1.529h22.156a1.564,1.564,0,0,0,1.591-1.529Z" transform="translate(-248.915 -232.618)" fill="#223c55" fill-rule="evenodd"/>
          <path id="Path_1038839" data-name="Path 1038839" d="M288.807,205.077l-12.025,1.492a1.517,1.517,0,0,1-.378,0l-12.025-1.492a1.522,1.522,0,0,1-1.34-1.516v-5.572a1.532,1.532,0,0,1,1.529-1.529h24.05a1.532,1.532,0,0,1,1.529,1.529v5.572A1.524,1.524,0,0,1,288.807,205.077Z" transform="translate(-241.939 -177.558)" fill="#2f5274" fill-rule="evenodd"/>
          <path id="Path_1038840" data-name="Path 1038840" d="M372.547,258.5h-1.591a.7.7,0,0,0-.7.7v4.079a.7.7,0,0,0,.7.7h1.591a.7.7,0,0,0,.7-.7V259.2A.7.7,0,0,0,372.547,258.5Z" transform="translate(-337.098 -232.618)" fill="#ffd400" fill-rule="evenodd"/>
          <path id="Path_1038841" data-name="Path 1038841" d="M316.068,348.7a8.547,8.547,0,1,0-8.548-8.546A8.564,8.564,0,0,0,316.068,348.7Z" transform="translate(-281.416 -297.504)" fill="#fea832" fill-rule="evenodd"/>
          <path id="Path_1038842" data-name="Path 1038842" d="M349.8,366.28l1.69,1.69-2.959,2.959,2.959,2.956-1.69,1.69-2.96-2.955-2.959,2.955-1.69-1.69,2.959-2.959-2.959-2.956,1.69-1.69,2.959,2.955Z" transform="translate(-312.185 -328.274)" fill="#daeafa" fill-rule="evenodd"/>
          <path id="Path_1038843" data-name="Path 1038843" d="M77.9,35.927a8.546,8.546,0,0,1,7.3-7.416,8.707,8.707,0,0,0-1.182-.081,8.545,8.545,0,0,0-8.524,7.921c-.016.207-.025.415-.025.629a8.55,8.55,0,0,0,8.548,8.548,8.358,8.358,0,0,0,1.182-.083,8.546,8.546,0,0,1-7.37-8.465A8.361,8.361,0,0,1,77.9,35.927Z" transform="translate(-75.47 -28.43)" fill="#e2aa73" fill-rule="evenodd"/>
          <path id="Path_1038844" data-name="Path 1038844" d="M309.21,340.156a8.548,8.548,0,0,1,7.7-8.506,8.41,8.41,0,0,0-.845-.041,8.547,8.547,0,1,0,0,17.095,8.4,8.4,0,0,0,.845-.04A8.55,8.55,0,0,1,309.21,340.156Z" transform="translate(-281.416 -297.504)" fill="#e5972d" fill-rule="evenodd"/>
          <path id="Path_1038845" data-name="Path 1038845" d="M265.4,203.439v-5.45a1.526,1.526,0,0,1,1.529-1.529h-2.368a1.532,1.532,0,0,0-1.529,1.529v5.572a1.517,1.517,0,0,0,.885,1.387,1.6,1.6,0,0,0,.454.13l1.446.18.467.059v-.368a1.552,1.552,0,0,1-.452-.316,1.531,1.531,0,0,1-.433-1.071v-.123Z" transform="translate(-241.931 -177.558)" fill="#2a4a68" fill-rule="evenodd"/>
          <path id="Path_1038846" data-name="Path 1038846" d="M272.8,272.2l-1.446-.18a1.549,1.549,0,0,1-.454-.13v10.672a1.565,1.565,0,0,0,1.591,1.529h2.368a1.564,1.564,0,0,1-1.591-1.529v-10.3Z" transform="translate(-248.915 -244.502)" fill="#1f364d" fill-rule="evenodd"/>
          <path id="Path_1038847" data-name="Path 1038847" d="M371.015,260.884V259.2a.705.705,0,0,1,.705-.7h-.777a.7.7,0,0,0-.7.7v4.079a.7.7,0,0,0,.7.7h.777a.7.7,0,0,1-.705-.7Z" transform="translate(-337.08 -232.618)" fill="#e6bf00" fill-rule="evenodd"/>
        </g>
        <g id="Group_1177546" data-name="Group 1177546" transform="translate(0 20.42)">
          <path id="Path_1038848" data-name="Path 1038848" d="M55.171,39.324H51.227V37.582A4.194,4.194,0,0,0,47.045,33.4h-7.8a4.2,4.2,0,0,0-4.185,4.185v1.741H33.289A11.633,11.633,0,0,0,26.437,28.9a9.448,9.448,0,0,0-18.756-.332A11.626,11.626,0,0,0,0,39.436v8.979A11.609,11.609,0,0,0,6.1,58.58V67.7a5.718,5.718,0,0,0,10.542,3.072A5.718,5.718,0,0,0,27.188,67.7v-9.12a11.63,11.63,0,0,0,2.388-1.705v2.51a2.461,2.461,0,0,0,2.487,2.427h1.885a9.447,9.447,0,1,0,18.387,0h1.882a2.462,2.462,0,0,0,2.491-2.427V49.2a2.428,2.428,0,0,0,.886-1.873V41.756a2.428,2.428,0,0,0-2.424-2.432Zm.628,2.43v5.567a.623.623,0,0,1-.551.625l-9.714,1.2V47.9a1.6,1.6,0,0,0-1.594-1.6H42.347a1.6,1.6,0,0,0-1.594,1.6v1.25l-9.714-1.2a.623.623,0,0,1-.551-.625V41.753a.631.631,0,0,1,.628-.631H55.17a.631.631,0,0,1,.629.631ZM43.736,48.1v3.674H42.552V48.1Zm2.911-8.779H39.641V37.982h7.006Zm-9.79-1.74A2.4,2.4,0,0,1,39.241,35.2h7.8a2.393,2.393,0,0,1,2.382,2.385v1.741h-.982V37.583a1.41,1.41,0,0,0-1.4-1.4h-7.8a1.41,1.41,0,0,0-1.4,1.4v1.741h-.985ZM17.038,22.219a7.65,7.65,0,1,1-7.65,7.65A7.658,7.658,0,0,1,17.038,22.219ZM11.824,71.624A3.927,3.927,0,0,1,7.9,67.7V54.184a3.923,3.923,0,0,1,7.845,0V67.7a3.927,3.927,0,0,1-3.923,3.923ZM25.39,67.7a3.923,3.923,0,0,1-7.845,0V54.184a3.923,3.923,0,0,1,7.845,0Zm1.8-11.219v-2.3A5.726,5.726,0,0,0,24.082,49.1V44.314a.9.9,0,0,0-1.8,0v4.208a5.7,5.7,0,0,0-5.638,2.589,5.71,5.71,0,0,0-5.635-2.59V44.314a.9.9,0,0,0-1.8,0V49.1A5.726,5.726,0,0,0,6.1,54.183v2.3A9.8,9.8,0,0,1,1.8,48.415V39.436A9.816,9.816,0,0,1,7.616,30.53a9.447,9.447,0,0,0,18.814.375,9.822,9.822,0,0,1,5.062,8.419h-.375a2.431,2.431,0,0,0-2.427,2.43v5.567a2.426,2.426,0,0,0,.886,1.873v5a9.892,9.892,0,0,1-2.389,2.286ZM43.142,71.624a7.648,7.648,0,1,1,7.65-7.65A7.658,7.658,0,0,1,43.142,71.624ZM54.22,60.014h-2.5a9.442,9.442,0,0,0-17.146,0H32.064a.661.661,0,0,1-.688-.628V49.8l9.379,1.163v1.017a1.6,1.6,0,0,0,1.594,1.594H43.94a1.6,1.6,0,0,0,1.594-1.594V50.965L54.913,49.8v9.583A.665.665,0,0,1,54.22,60.014Zm-5.529,1a.9.9,0,0,0-.263-.636l-1.69-1.69a.9.9,0,0,0-1.271,0l-2.323,2.321-2.321-2.321a.9.9,0,0,0-1.271,0l-1.69,1.69a.9.9,0,0,0,0,1.271l2.321,2.321L37.862,66.3a.9.9,0,0,0,0,1.271l1.69,1.69a.9.9,0,0,0,1.271,0l2.32-2.323,2.323,2.323a.9.9,0,0,0,1.271,0l1.69-1.69a.9.9,0,0,0,0-1.271L46.1,63.975l2.323-2.32A.909.909,0,0,0,48.691,61.018ZM44.2,63.338a.9.9,0,0,0,0,1.271l2.323,2.323-.418.418-2.323-2.323a.9.9,0,0,0-1.271,0l-2.32,2.323-.418-.418,2.321-2.323a.9.9,0,0,0,0-1.271l-2.32-2.32.418-.418,2.32,2.32a.9.9,0,0,0,1.271,0L46.1,60.6l.418.418Z" transform="translate(0 -20.42)"/>
        </g>
      </g>
    </g>
  </g>
</svg>
