<svg xmlns="http://www.w3.org/2000/svg" xmlns:xlink="http://www.w3.org/1999/xlink" width="108" height="108" viewBox="0 0 108 108">
  <defs>
    <filter id="Path_904820" x="0" y="0" width="108" height="108" filterUnits="userSpaceOnUse">
      <feOffset dy="3" input="SourceAlpha"/>
      <feGaussianBlur stdDeviation="3" result="blur"/>
      <feFlood flood-opacity="0.161"/>
      <feComposite operator="in" in2="blur"/>
      <feComposite in="SourceGraphic"/>
    </filter>
  </defs>
  <g id="Group_1177572" data-name="Group 1177572" transform="translate(-200 -546)">
    <g id="Group_1177499" data-name="Group 1177499">
      <g id="Group_1177311" data-name="Group 1177311" transform="translate(209 552)">
        <g id="Group_1173585" data-name="Group 1173585" transform="translate(0 0)">
          <g id="Group_1173428" data-name="Group 1173428">
            <g id="Group_1171958" data-name="Group 1171958">
              <g id="Group_1167341" data-name="Group 1167341">
                <g id="Group_1166792" data-name="Group 1166792">
                  <g transform="matrix(1, 0, 0, 1, -9, -6)" filter="url(#Path_904820)">
                    <g id="Path_904820-2" data-name="Path 904820" transform="translate(9 6)" fill="#e9f9fd">
                      <path d="M 44.99999618530273 88.49999237060547 C 39.12687301635742 88.49999237060547 33.43022155761719 87.35006713867188 28.06829643249512 85.08216857910156 C 22.88852119445801 82.89130401611328 18.23629570007324 79.75457763671875 14.24084663391113 75.75914001464844 C 10.24540901184082 71.76369476318359 7.108683586120605 67.11146545410156 4.917821407318115 61.93169403076172 C 2.649921178817749 56.56976699829102 1.499996185302734 50.87311553955078 1.499996185302734 44.99999237060547 C 1.499996185302734 39.12686920166016 2.649921178817749 33.43021774291992 4.917821407318115 28.06829261779785 C 7.108683586120605 22.88851737976074 10.24540901184082 18.23630523681641 14.24084663391113 14.24085521697998 C 18.23629570007324 10.24540519714355 22.88852119445801 7.108692169189453 28.06829643249512 4.917829990386963 C 33.43022155761719 2.649929761886597 39.12687301635742 1.500004887580872 44.99999618530273 1.500004887580872 C 50.87311935424805 1.500004887580872 56.56977081298828 2.649929761886597 61.93169784545898 4.917829990386963 C 67.11147308349609 7.108692169189453 71.76369476318359 10.24540519714355 75.75914764404297 14.24085521697998 C 79.75458526611328 18.23630523681641 82.89131164550781 22.88851737976074 85.08216857910156 28.06829261779785 C 87.35007476806641 33.43021774291992 88.5 39.12686920166016 88.5 44.99999237060547 C 88.5 50.87311553955078 87.35007476806641 56.56976699829102 85.08216857910156 61.93169403076172 C 82.89131164550781 67.11146545410156 79.75458526611328 71.76369476318359 75.75914764404297 75.75914001464844 C 71.76369476318359 79.75457763671875 67.11147308349609 82.89130401611328 61.93169784545898 85.08216857910156 C 56.56977081298828 87.35006713867188 50.87311935424805 88.49999237060547 44.99999618530273 88.49999237060547 Z" stroke="none"/>
                      <path d="M 44.99999618530273 2.999992370605469 C 39.32870864868164 2.999992370605469 33.82865142822266 4.11004638671875 28.65262603759766 6.299331665039062 C 23.65165710449219 8.414566040039062 19.15968322753906 11.44333648681641 15.301513671875 15.30150604248047 C 11.44333648681641 19.15967559814453 8.414566040039062 23.65164947509766 6.299339294433594 28.65262222290039 C 4.110054016113281 33.82864761352539 2.999992370605469 39.32870483398438 2.999992370605469 44.99999237060547 C 2.999992370605469 50.67127990722656 4.110054016113281 56.17132186889648 6.299339294433594 61.34736633300781 C 8.414566040039062 66.34833526611328 11.44333648681641 70.84029388427734 15.301513671875 74.69846343994141 C 19.15968322753906 78.55663299560547 23.65165710449219 81.58540344238281 28.65262603759766 83.70063781738281 C 33.82865142822266 85.88992309570312 39.32870864868164 86.99997711181641 44.99999618530273 86.99997711181641 C 50.67128372192383 86.99997711181641 56.17134094238281 85.88992309570312 61.34736633300781 83.70063781738281 C 66.34834289550781 81.58540344238281 70.84030914306641 78.55663299560547 74.69847869873047 74.69846343994141 C 78.55665588378906 70.84029388427734 81.58542633056641 66.34833526611328 83.70065307617188 61.34736633300781 C 85.88993835449219 56.17132186889648 87 50.67127990722656 87 44.99999237060547 C 87 39.32870483398438 85.88993835449219 33.82864761352539 83.70065307617188 28.65262222290039 C 81.58542633056641 23.65164947509766 78.55665588378906 19.15967559814453 74.69847869873047 15.30150604248047 C 70.84030914306641 11.44333648681641 66.34834289550781 8.414566040039062 61.34736633300781 6.299331665039062 C 56.17134094238281 4.11004638671875 50.67128372192383 2.999992370605469 44.99999618530273 2.999992370605469 M 44.99999618530273 -7.62939453125e-06 C 69.85281372070312 -7.62939453125e-06 90 20.14717864990234 90 44.99999237060547 C 90 69.85279083251953 69.85281372070312 89.99997711181641 44.99999618530273 89.99997711181641 C 20.14717864990234 89.99997711181641 -7.62939453125e-06 69.85279083251953 -7.62939453125e-06 44.99999237060547 C -7.62939453125e-06 20.14717864990234 20.14717864990234 -7.62939453125e-06 44.99999618530273 -7.62939453125e-06 Z" stroke="none" fill="#1d7083"/>
                    </g>
                  </g>
                </g>
              </g>
            </g>
          </g>
        </g>
      </g>
      <g id="shopping-basket_9306691" transform="translate(197.365 560.482)">
        <path id="Path_1038715" data-name="Path 1038715" d="M411.7,19.07h-.969a6.318,6.318,0,0,0-6.318,6.318V38.438" transform="translate(-331.475 -8.074)" fill="none" stroke="#000" stroke-linecap="round" stroke-linejoin="round" stroke-miterlimit="10" stroke-width="1.5"/>
        <path id="Path_1038716" data-name="Path 1038716" d="M40.91,19.07h.969A6.318,6.318,0,0,1,48.2,25.388V38.438" transform="translate(-7.898 -8.074)" fill="none" stroke="#000" stroke-linecap="round" stroke-linejoin="round" stroke-miterlimit="10" stroke-width="1.5"/>
        <path id="Path_1038717" data-name="Path 1038717" d="M80.7,169.795l2.917,2.815,2.96-2.815" transform="translate(-43.318 -142.245)" fill="none" stroke="#000" stroke-linecap="round" stroke-linejoin="round" stroke-miterlimit="10" stroke-width="1.5"/>
        <path id="Path_1038718" data-name="Path 1038718" d="M377.852,169.795l2.917,2.815,2.96-2.815" transform="translate(-307.834 -142.245)" fill="none" stroke="#000" stroke-linecap="round" stroke-linejoin="round" stroke-miterlimit="10" stroke-width="1.5"/>
        <path id="Path_1038719" data-name="Path 1038719" d="M230.712,48.406l2.917,2.815,2.96-2.815" transform="translate(-176.854 -34.188)" fill="none" stroke="#000" stroke-linecap="round" stroke-linejoin="round" stroke-miterlimit="10" stroke-width="1.5"/>
        <g id="Group_1177496" data-name="Group 1177496" transform="translate(32.038 38.855)">
          <path id="Path_1038720" data-name="Path 1038720" d="M44.809,272.73c-.061,0-.122,0-.184.006a2.735,2.735,0,0,0-2.456,2L40.749,278.2H34.772a2.734,2.734,0,1,1,0-5.467H44.809Z" transform="translate(-32.038 -272.73)" fill="#ff9db0"/>
          <path id="Path_1038721" data-name="Path 1038721" d="M169.6,276.807l.572,1.391h-20.04l.571-1.39a2.734,2.734,0,0,0-2.377-4.078h23.653a2.734,2.734,0,0,0-2.725,2.552A2.8,2.8,0,0,0,169.6,276.807Z" transform="translate(-135.552 -272.73)" fill="#ff9db0"/>
          <path id="Path_1038722" data-name="Path 1038722" d="M376.457,275.462a2.733,2.733,0,0,1-2.733,2.734h-5.976l-1.422-3.457.009.035a2.735,2.735,0,0,0-2.465-2.039c-.062,0-.123-.006-.184-.006h10.037A2.733,2.733,0,0,1,376.457,275.462Z" transform="translate(-327.263 -272.729)" fill="#ff9db0"/>
          <path id="Path_1038723" data-name="Path 1038723" d="M65,322.511l-3.755,9.129-1.964-9.129Z" transform="translate(-56.286 -317.044)" fill="#ff7e96"/>
          <path id="Path_1038724" data-name="Path 1038724" d="M406.379,322.511l-1.963,9.128-3.754-9.128Z" transform="translate(-360.176 -317.044)" fill="#ff7e96"/>
          <path id="Path_1038725" data-name="Path 1038725" d="M115.742,342.223h10.021a3.048,3.048,0,0,0,2.98-2.408l.024-.112a2.705,2.705,0,0,1-1.41-1.447l-6.477-15.746h-20.04l-6.478,15.746a2.7,2.7,0,0,1-1.41,1.447l.024.112a3.05,3.05,0,0,0,2.981,2.408h19.785Z" transform="translate(-86.262 -317.043)" fill="#ff7e96"/>
          <path id="Path_1038726" data-name="Path 1038726" d="M44.809,272.73c-.061,0-.122,0-.184.006a2.735,2.735,0,0,0-2.456,2L40.749,278.2H34.772a2.734,2.734,0,1,1,0-5.467H44.809Z" transform="translate(-32.038 -272.73)" fill="none" stroke="#000" stroke-linecap="round" stroke-linejoin="round" stroke-miterlimit="10" stroke-width="1.5"/>
          <path id="Path_1038727" data-name="Path 1038727" d="M169.6,276.807l.572,1.391h-20.04l.571-1.39a2.734,2.734,0,0,0-2.377-4.078h23.653a2.734,2.734,0,0,0-2.725,2.552A2.8,2.8,0,0,0,169.6,276.807Z" transform="translate(-135.552 -272.73)" fill="none" stroke="#000" stroke-linecap="round" stroke-linejoin="round" stroke-miterlimit="10" stroke-width="1.5"/>
          <path id="Path_1038728" data-name="Path 1038728" d="M376.457,275.462a2.733,2.733,0,0,1-2.733,2.734h-5.976l-1.422-3.457.009.035a2.735,2.735,0,0,0-2.465-2.039c-.062,0-.123-.006-.184-.006h10.037A2.733,2.733,0,0,1,376.457,275.462Z" transform="translate(-327.263 -272.729)" fill="none" stroke="#000" stroke-linecap="round" stroke-linejoin="round" stroke-miterlimit="10" stroke-width="1.5"/>
          <path id="Path_1038729" data-name="Path 1038729" d="M65,322.511l-3.755,9.129-1.964-9.129Z" transform="translate(-56.286 -317.044)" fill="none" stroke="#000" stroke-linecap="round" stroke-linejoin="round" stroke-miterlimit="10" stroke-width="1.5"/>
          <path id="Path_1038730" data-name="Path 1038730" d="M406.379,322.511l-1.963,9.128-3.754-9.128Z" transform="translate(-360.176 -317.044)" fill="none" stroke="#000" stroke-linecap="round" stroke-linejoin="round" stroke-miterlimit="10" stroke-width="1.5"/>
          <path id="Path_1038731" data-name="Path 1038731" d="M115.742,342.223h10.021a3.048,3.048,0,0,0,2.98-2.408l.024-.112a2.705,2.705,0,0,1-1.41-1.447l-6.477-15.746h-20.04l-6.478,15.746a2.7,2.7,0,0,1-1.41,1.447l.024.112a3.05,3.05,0,0,0,2.981,2.408h10.1" transform="translate(-86.262 -317.043)" fill="none" stroke="#000" stroke-linecap="round" stroke-linejoin="round" stroke-miterlimit="10" stroke-width="1.5"/>
          <g id="Group_1177495" data-name="Group 1177495" transform="translate(2.878 0)">
            <g id="Group_1177493" data-name="Group 1177493">
              <path id="Path_1038732" data-name="Path 1038732" d="M126.324,278.193h0a2.733,2.733,0,0,1-2.909-2.546h0a2.733,2.733,0,0,1,2.546-2.909h0a2.733,2.733,0,0,1,2.909,2.546h0A2.733,2.733,0,0,1,126.324,278.193Z" transform="translate(-116.252 -272.732)" fill="#5c90ae"/>
              <path id="Path_1038733" data-name="Path 1038733" d="M70.513,293.1l-7.049,17.137a2.713,2.713,0,1,1-5.017-2.064L65.5,291.036a2.734,2.734,0,0,0,5.017,2.066Z" transform="translate(-58.241 -289.026)" fill="#e0e7ef"/>
            </g>
            <g id="Group_1177494" data-name="Group 1177494">
              <path id="Path_1038734" data-name="Path 1038734" d="M341.369,278.193h0a2.733,2.733,0,0,0,2.909-2.546h0a2.733,2.733,0,0,0-2.546-2.909h0a2.733,2.733,0,0,0-2.909,2.546h0A2.733,2.733,0,0,0,341.369,278.193Z" transform="translate(-308.002 -272.732)" fill="#5c90ae"/>
              <path id="Path_1038735" data-name="Path 1038735" d="M126.324,278.193h0a2.733,2.733,0,0,1-2.909-2.546h0a2.733,2.733,0,0,1,2.546-2.909h0a2.733,2.733,0,0,1,2.909,2.546h0A2.733,2.733,0,0,1,126.324,278.193Z" transform="translate(-116.252 -272.732)" fill="none" stroke="#000" stroke-linecap="round" stroke-linejoin="round" stroke-miterlimit="10" stroke-width="1.5"/>
              <path id="Path_1038736" data-name="Path 1038736" d="M341.369,278.193h0a2.733,2.733,0,0,0,2.909-2.546h0a2.733,2.733,0,0,0-2.546-2.909h0a2.733,2.733,0,0,0-2.909,2.546h0A2.733,2.733,0,0,0,341.369,278.193Z" transform="translate(-308.002 -272.732)" fill="none" stroke="#000" stroke-linecap="round" stroke-linejoin="round" stroke-miterlimit="10" stroke-width="1.5"/>
              <path id="Path_1038737" data-name="Path 1038737" d="M342.029,293.1l7.049,17.137a2.713,2.713,0,1,0,5.017-2.064l-7.049-17.139a2.734,2.734,0,0,1-5.017,2.066Z" transform="translate(-310.861 -289.026)" fill="#e0e7ef"/>
              <path id="Path_1038738" data-name="Path 1038738" d="M70.513,293.1l-7.049,17.137a2.713,2.713,0,1,1-5.017-2.064L65.5,291.036a2.734,2.734,0,0,0,5.017,2.066Z" transform="translate(-58.241 -289.026)" fill="none" stroke="#000" stroke-linecap="round" stroke-linejoin="round" stroke-miterlimit="10" stroke-width="1.5"/>
              <path id="Path_1038739" data-name="Path 1038739" d="M342.029,293.1l7.049,17.137a2.713,2.713,0,1,0,5.017-2.064l-7.049-17.139a2.734,2.734,0,0,1-5.017,2.066Z" transform="translate(-310.861 -289.026)" fill="none" stroke="#000" stroke-linecap="round" stroke-linejoin="round" stroke-miterlimit="10" stroke-width="1.5"/>
            </g>
          </g>
          <line id="Line_877" data-name="Line 877" y2="9.774" transform="translate(17.548 10.436)" fill="none" stroke="#000" stroke-linecap="round" stroke-linejoin="round" stroke-miterlimit="10" stroke-width="1.5"/>
          <line id="Line_878" data-name="Line 878" y2="9.774" transform="translate(24.62 10.436)" fill="none" stroke="#000" stroke-linecap="round" stroke-linejoin="round" stroke-miterlimit="10" stroke-width="1.5"/>
          <line id="Line_879" data-name="Line 879" y2="9.774" transform="translate(31.692 10.436)" fill="none" stroke="#000" stroke-linecap="round" stroke-linejoin="round" stroke-miterlimit="10" stroke-width="1.5"/>
        </g>
        <line id="Line_880" data-name="Line 880" transform="translate(56.658 64.035)" fill="none" stroke="#000" stroke-linecap="round" stroke-linejoin="round" stroke-miterlimit="10" stroke-width="1.5"/>
        <circle id="Ellipse_11884" data-name="Ellipse 11884" cx="8.925" cy="8.925" r="8.925" transform="translate(47.802 21.005)" fill="#ffce62"/>
        <circle id="Ellipse_11885" data-name="Ellipse 11885" cx="8.925" cy="8.925" r="8.925" transform="translate(47.802 21.005)" fill="none" stroke="#000" stroke-linecap="round" stroke-linejoin="round" stroke-miterlimit="10" stroke-width="1.5"/>
        <g id="Group_1177498" data-name="Group 1177498" transform="translate(54.701 24.742)">
          <g id="Group_1177497" data-name="Group 1177497">
            <path id="Path_1038740" data-name="Path 1038740" d="M242.175,154.685a2.471,2.471,0,0,0-2.321-.418,1.678,1.678,0,0,0-.735,2.846A8.483,8.483,0,0,0,241.4,158.2c2.289.809,1.443,4.037-.885,4.052a3.115,3.115,0,0,1-2.131-.574" transform="translate(-238.388 -153.058)" fill="none" stroke="#000" stroke-linecap="round" stroke-linejoin="round" stroke-miterlimit="10" stroke-width="1.5"/>
            <line id="Line_881" data-name="Line 881" y2="1.093" transform="translate(2.131)" fill="none" stroke="#000" stroke-linecap="round" stroke-linejoin="round" stroke-miterlimit="10" stroke-width="1.5"/>
          </g>
          <line id="Line_882" data-name="Line 882" y2="0.989" transform="translate(2.131 9.19)" fill="none" stroke="#000" stroke-linecap="round" stroke-linejoin="round" stroke-miterlimit="10" stroke-width="1.5"/>
        </g>
        <line id="Line_883" data-name="Line 883" y1="7.033" transform="translate(56.775 10)" fill="none" stroke="#000" stroke-linecap="round" stroke-linejoin="round" stroke-miterlimit="10" stroke-width="1.5"/>
      </g>
    </g>
  </g>
</svg>
