<svg xmlns="http://www.w3.org/2000/svg" xmlns:xlink="http://www.w3.org/1999/xlink" width="108" height="108" viewBox="0 0 108 108">
  <defs>
    <filter id="Path_904820" x="0" y="0" width="108" height="108" filterUnits="userSpaceOnUse">
      <feOffset dy="3" input="SourceAlpha"/>
      <feGaussianBlur stdDeviation="3" result="blur"/>
      <feFlood flood-opacity="0.161"/>
      <feComposite operator="in" in2="blur"/>
      <feComposite in="SourceGraphic"/>
    </filter>
  </defs>
  <g id="Group_1177618" data-name="Group 1177618" transform="translate(-620 -474)">
    <g id="Group_1177551" data-name="Group 1177551">
      <g id="Group_1177367" data-name="Group 1177367" transform="translate(629 480)">
        <g id="Group_1173585" data-name="Group 1173585" transform="translate(0 0)">
          <g id="Group_1173428" data-name="Group 1173428">
            <g id="Group_1171958" data-name="Group 1171958">
              <g id="Group_1167341" data-name="Group 1167341">
                <g id="Group_1166792" data-name="Group 1166792">
                  <g transform="matrix(1, 0, 0, 1, -9, -6)" filter="url(#Path_904820)">
                    <g id="Path_904820-2" data-name="Path 904820" transform="translate(9 6)" fill="#e9f9fd">
                      <path d="M 44.99995803833008 88.49995422363281 C 39.12683486938477 88.49995422363281 33.43019485473633 87.35002899169922 28.06826972961426 85.08213043212891 C 22.88849639892578 82.89126586914062 18.23628234863281 79.75455474853516 14.2408332824707 75.75910186767578 C 10.24539566040039 71.76364898681641 7.108683109283447 67.11142730712891 4.917820453643799 61.93166351318359 C 2.649920463562012 56.56974029541016 1.499995589256287 50.87308883666992 1.499995589256287 44.99997711181641 C 1.499995589256287 39.12685394287109 2.649920463562012 33.43021392822266 4.917820453643799 28.06828880310059 C 7.108683109283447 22.88851547241211 10.24539566040039 18.23628997802734 14.2408332824707 14.24085235595703 C 18.23628234863281 10.24540233612061 22.88849639892578 7.108689785003662 28.06826972961426 4.917827129364014 C 33.43019485473633 2.649927139282227 39.12683486938477 1.500002145767212 44.99995803833008 1.500002145767212 C 50.87308120727539 1.500002145767212 56.56972122192383 2.649927139282227 61.93164443969727 4.917827129364014 C 67.11141967773438 7.108689785003662 71.76363372802734 10.24540233612061 75.75908660888672 14.24085235595703 C 79.75452423095703 18.23628997802734 82.8912353515625 22.88851547241211 85.08209228515625 28.06828880310059 C 87.34999847412109 33.43021392822266 88.49992370605469 39.12685394287109 88.49992370605469 44.99997711181641 C 88.49992370605469 50.87308883666992 87.34999847412109 56.56974029541016 85.08209228515625 61.93166351318359 C 82.8912353515625 67.11142730712891 79.75452423095703 71.76364898681641 75.75908660888672 75.75910186767578 C 71.76363372802734 79.75455474853516 67.11141967773438 82.89126586914062 61.93164443969727 85.08213043212891 C 56.56972122192383 87.35002899169922 50.87308120727539 88.49995422363281 44.99995803833008 88.49995422363281 Z" stroke="none"/>
                      <path d="M 44.99995803833008 2.999992370605469 C 39.32867050170898 2.999992370605469 33.82862854003906 4.11004638671875 28.6525993347168 6.299331665039062 C 23.65162658691406 8.414566040039062 19.15967559814453 11.44333648681641 15.30148315429688 15.30150604248047 C 11.44331359863281 19.15967559814453 8.414558410644531 23.65163421630859 6.29931640625 28.65260696411133 C 4.11004638671875 33.82864761352539 2.999984741210938 39.32868957519531 2.999984741210938 44.99997711181641 C 2.999984741210938 50.6712646484375 4.11004638671875 56.17130661010742 6.29931640625 61.34733581542969 C 8.414558410644531 66.34830474853516 11.44331359863281 70.84026336669922 15.30148315429688 74.69843292236328 C 19.15967559814453 78.55660247802734 23.65162658691406 81.58537292480469 28.6525993347168 83.70060729980469 C 33.82862854003906 85.889892578125 39.32867050170898 86.99994659423828 44.99995803833008 86.99994659423828 C 50.67124557495117 86.99994659423828 56.17128753662109 85.889892578125 61.34731292724609 83.70062255859375 C 66.34828186035156 81.58537292480469 70.84024047851562 78.55660247802734 74.69841766357422 74.69843292236328 C 78.55658721923828 70.84026336669922 81.58535766601562 66.34830474853516 83.70058441162109 61.34733581542969 C 85.88986206054688 56.17130661010742 86.99991607666016 50.6712646484375 86.99991607666016 44.99997711181641 C 86.99991607666016 39.32868957519531 85.88986206054688 33.82864761352539 83.70058441162109 28.65260696411133 C 81.58535766601562 23.65163421630859 78.55658721923828 19.15967559814453 74.69841766357422 15.30150604248047 C 70.84024047851562 11.44333648681641 66.34828186035156 8.414566040039062 61.34731292724609 6.299331665039062 C 56.17128753662109 4.11004638671875 50.67124557495117 2.999992370605469 44.99995803833008 2.999992370605469 M 44.99995803833008 -7.62939453125e-06 C 69.85276031494141 -7.62939453125e-06 89.99991607666016 20.14717864990234 89.99991607666016 44.99997711181641 C 89.99991607666016 69.85276031494141 69.85276031494141 89.99994659423828 44.99995803833008 89.99994659423828 C 20.14715576171875 89.99994659423828 -1.52587890625e-05 69.85276031494141 -1.52587890625e-05 44.99997711181641 C -1.52587890625e-05 20.14717864990234 20.14715576171875 -7.62939453125e-06 44.99995803833008 -7.62939453125e-06 Z" stroke="none" fill="#1d7083"/>
                    </g>
                  </g>
                </g>
              </g>
            </g>
          </g>
        </g>
      </g>
      <g id="planning_1459084" transform="translate(651 498.001)">
        <path id="Path_1038873" data-name="Path 1038873" d="M8,60.6V8H44.823V18.521l-2.131,2.131-3.542-1.885a2.18,2.18,0,0,0-.991-.245,2.1,2.1,0,0,0-2.1,2.1v.105a2.08,2.08,0,0,0,1.166,1.876l2.341,1.175-.877.877a.88.88,0,0,0-.877.877l-4.375,4.384-.009-.009A11.407,11.407,0,0,0,22.9,22.9a9.644,9.644,0,1,0,0,19.288V45.7A11.4,11.4,0,0,0,34.3,34.3L37.809,30.8v6.076a3.526,3.526,0,0,0,.464,1.753l2.578,4.506a3.526,3.526,0,0,1,.464,1.753v4.323H39.563v5.26H45.7a.88.88,0,0,0-.877.877V60.6Zm0,0" transform="translate(-7.123 -7.124)" fill="#e6e9ed"/>
        <path id="Path_1038874" data-name="Path 1038874" d="M65.644,155.4v7.891a9.644,9.644,0,0,1,0-19.288Zm0,0" transform="translate(-49.863 -128.219)" fill="#fcd770"/>
        <path id="Path_1038875" data-name="Path 1038875" d="M154.529,151.014l-2.639,2.63-.464,1.859-.412-.105H144V144a11.407,11.407,0,0,1,10.521,7.005Zm0,0" transform="translate(-128.219 -128.219)" fill="#b4dd7f"/>
        <path id="Path_1038876" data-name="Path 1038876" d="M155.4,248A11.4,11.4,0,0,1,144,259.4V248h7.014l.412.105-.412,1.648,3.507-.877Zm0,0" transform="translate(-128.219 -220.821)" fill="#ff826e"/>
        <path id="Path_1038877" data-name="Path 1038877" d="M308.274,384v5.26H296V384Zm0,0" transform="translate(-263.56 -341.917)" fill="#b4dd7f"/>
        <path id="Path_1038878" data-name="Path 1038878" d="M270.637,106.13l-3.13,3.13-2.341-1.175A2.08,2.08,0,0,1,264,106.209V106.1a2.1,2.1,0,0,1,2.1-2.1,2.18,2.18,0,0,1,.991.245Zm0,0" transform="translate(-235.068 -92.602)" fill="#f0d0b4"/>
        <path id="Path_1038879" data-name="Path 1038879" d="M292.384,68.274l-1.192,1.192A3.5,3.5,0,0,0,288,67.4l10.854-10.854a1.86,1.86,0,0,1,2.63,2.63Zm0,0" transform="translate(-256.437 -49.863)" fill="#fcd770"/>
        <path id="Path_1038880" data-name="Path 1038880" d="M215.891,168v5.26l-4.384,4.384-3.507.877.412-1.648.464-1.859,2.639-2.63Zm0,0" transform="translate(-185.205 -149.589)" fill="#fcd770"/>
        <path id="Path_1038881" data-name="Path 1038881" d="M280,143.211a.88.88,0,0,1,.877-.877,3.5,3.5,0,0,1,3.191,2.069,3.447,3.447,0,0,1,.316,1.438v5.339a2.546,2.546,0,0,0,4.963.807l.684-2.051a9.516,9.516,0,0,0,.491-3.007,1.754,1.754,0,0,0-.973-1.569l-4.287-2.148,3.051-3.051,4.726,2.516A3.576,3.576,0,0,1,294.9,145.8v8.96a3.449,3.449,0,0,1-.289,1.394l-2.051,4.8a3.449,3.449,0,0,0-.289,1.394v4.533h-8.767v-4.323a3.526,3.526,0,0,0-.464-1.753l-2.578-4.506a3.526,3.526,0,0,1-.465-1.753Zm0,0" transform="translate(-249.314 -124.8)" fill="#f0d0b4"/>
        <path id="Path_1038882" data-name="Path 1038882" d="M44.134,17.108l-3.681-1.963,5.213-5.213A2.737,2.737,0,0,0,43.731,5.26a2.755,2.755,0,0,0-1.935.8L38.577,9.281V0H0V54.358H38.577V48.22h7.014V41.206H43.837V37.549a2.658,2.658,0,0,1,.215-1.048l2.06-4.8a4.414,4.414,0,0,0,.356-1.738V21A4.439,4.439,0,0,0,46,19.026a4.39,4.39,0,0,0-1.868-1.918ZM43.036,7.3a.983.983,0,0,1,1.678.7.976.976,0,0,1-.288.7l-9.533,9.533a4.384,4.384,0,0,0-1.582-1.2ZM35.758,19.839l.361-.361,3.726,1.863a.872.872,0,0,1,.485.784,8.646,8.646,0,0,1-.444,2.736L39.2,26.913a1.671,1.671,0,0,1-3.256-.528V21.041a4.329,4.329,0,0,0-.188-1.2Zm-5.949,3.469-3.956,3.955L24,27.726l.464-1.853,5.346-5.346ZM14.9,34.148a8.767,8.767,0,0,1,0-17.446ZM22.549,26.3H16.658V16.693a10.49,10.49,0,0,1,8.6,5.91l-2.373,2.373Zm-5.891,1.753h5.453l-.52,2.082L26.137,29a10.537,10.537,0,0,1-9.479,8.662ZM32.267,15.591,30.489,14.7a1.222,1.222,0,0,1-.679-1.1v-.1a1.227,1.227,0,0,1,1.8-1.083l2.494,1.33Zm11.57,30.876h-5.26a1.755,1.755,0,0,0-1.753,1.753V52.6H1.753V1.753h35.07v9.281L35.4,12.453,32.44,10.871a2.981,2.981,0,0,0-4.384,2.63v.1A2.969,2.969,0,0,0,29.7,16.271l1.117.558a1.757,1.757,0,0,0-.955,1.164L26.554,21.3a12.24,12.24,0,0,0-10.773-6.4H14.9v.045a10.512,10.512,0,0,0,0,20.953v3.552h.877A12.281,12.281,0,0,0,28.037,27.562l1.773-1.774v3.958a4.425,4.425,0,0,0,.581,2.19l2.576,4.506a2.686,2.686,0,0,1,.35,1.32v3.445H31.563V48.22H35.07V46.467H33.316V42.96H43.837Zm.877-16.507a2.658,2.658,0,0,1-.215,1.048l-2.06,4.8a4.414,4.414,0,0,0-.356,1.738v3.658H35.07V37.762a4.424,4.424,0,0,0-.581-2.19l-2.576-4.506a2.68,2.68,0,0,1-.35-1.319V18.411a2.634,2.634,0,0,1,2.63,2.63v5.343a3.424,3.424,0,0,0,6.672,1.084l.685-2.051a10.408,10.408,0,0,0,.534-3.292,2.619,2.619,0,0,0-1.454-2.353l-3.2-1.6,1.731-1.731,4.151,2.214A2.66,2.66,0,0,1,44.714,21Zm0,0"/>
        <path id="Path_1038883" data-name="Path 1038883" d="M168,280h1.753v1.753H168Zm0,0" transform="translate(-149.588 -249.314)"/>
        <path id="Path_1038884" data-name="Path 1038884" d="M200,280h1.753v1.753H200Zm0,0" transform="translate(-178.081 -249.314)"/>
        <path id="Path_1038885" data-name="Path 1038885" d="M80,208h4.384v1.753H80Zm0,0" transform="translate(-71.233 -185.205)"/>
        <path id="Path_1038886" data-name="Path 1038886" d="M80,240h4.384v1.753H80Zm0,0" transform="translate(-71.233 -213.698)"/>
        <path id="Path_1038887" data-name="Path 1038887" d="M44.274,351.014H42.521V355.4H40.767V349.26H39.014V355.4H37.26V346.63H35.507V355.4H33.753V344H32v13.151H46.028V355.4H44.274Zm0,0" transform="translate(-28.493 -306.3)"/>
        <path id="Path_1038888" data-name="Path 1038888" d="M169.978,361.753h1.39l-2.267,2.267-1.753-1.754-5,5,1.24,1.24,3.764-3.764L169.1,366.5l3.507-3.507v1.39h1.753V360h-4.384Zm0,0" transform="translate(-144.552 -320.547)"/>
        <path id="Path_1038889" data-name="Path 1038889" d="M32,32h1.753v1.753H32Zm0,0" transform="translate(-28.493 -28.494)"/>
        <path id="Path_1038890" data-name="Path 1038890" d="M64,32H76.274v1.753H64Zm0,0" transform="translate(-56.986 -28.494)"/>
        <path id="Path_1038891" data-name="Path 1038891" d="M32,64h1.753v1.753H32Zm0,0" transform="translate(-28.493 -56.987)"/>
        <path id="Path_1038892" data-name="Path 1038892" d="M64,64H76.274v1.753H64Zm0,0" transform="translate(-56.986 -56.987)"/>
        <path id="Path_1038893" data-name="Path 1038893" d="M32,96h1.753v1.753H32Zm0,0" transform="translate(-28.493 -85.48)"/>
        <path id="Path_1038894" data-name="Path 1038894" d="M64,96H76.274v1.753H64Zm0,0" transform="translate(-56.986 -85.48)"/>
        <path id="Path_1038895" data-name="Path 1038895" d="M240,32h1.753v1.753H240Zm0,0" transform="translate(-213.698 -28.494)"/>
        <path id="Path_1038896" data-name="Path 1038896" d="M272,32h1.753v1.753H272Zm0,0" transform="translate(-242.191 -28.494)"/>
        <path id="Path_1038897" data-name="Path 1038897" d="M304,32h1.754v1.753H304Zm0,0" transform="translate(-270.684 -28.494)"/>
      </g>
    </g>
  </g>
</svg>
