<svg xmlns="http://www.w3.org/2000/svg" xmlns:xlink="http://www.w3.org/1999/xlink" width="113" height="113" viewBox="0 0 113 113">
  <defs>
    <filter id="Path_982547" x="0" y="0" width="113" height="113" filterUnits="userSpaceOnUse">
      <feOffset dy="3" input="SourceAlpha"/>
      <feGaussianBlur stdDeviation="3" result="blur"/>
      <feFlood flood-opacity="0.161"/>
      <feComposite operator="in" in2="blur"/>
      <feComposite in="SourceGraphic"/>
    </filter>
  </defs>
  <g id="Group_1177593" data-name="Group 1177593" transform="translate(-8295.5 -1178.857)">
    <g id="Group_1177549" data-name="Group 1177549">
      <g id="Group_1177341" data-name="Group 1177341" transform="translate(7502.01 -310.578)">
        <g id="Group_1176922" data-name="Group 1176922" transform="translate(802.49 1495.435)">
          <g id="Group_1172322" data-name="Group 1172322" transform="translate(0 0)">
            <g id="Group_1164700" data-name="Group 1164700">
              <g id="Group_1160931" data-name="Group 1160931">
                <g id="Group_1160749" data-name="Group 1160749">
                  <g id="Group_1158891" data-name="Group 1158891">
                    <g id="Group_1157406" data-name="Group 1157406">
                      <g id="Group_1155793" data-name="Group 1155793">
                        <g id="Group_1154704" data-name="Group 1154704">
                          <g id="Group_1150790" data-name="Group 1150790">
                            <g id="Group_1154214" data-name="Group 1154214">
                              <g id="Group_1152583" data-name="Group 1152583">
                                <g id="Group_1146973" data-name="Group 1146973">
                                  <g id="Group_1146954" data-name="Group 1146954">
                                    <g transform="matrix(1, 0, 0, 1, -9, -6)" filter="url(#Path_982547)">
                                      <g id="Path_982547-2" data-name="Path 982547" transform="translate(9 6)" fill="#f2f7e5">
                                        <path d="M 47.5000114440918 93.49987030029297 C 41.28938293457031 93.49987030029297 35.26534652709961 92.28384399414062 29.5951976776123 89.88558959960938 C 24.11773109436035 87.56881713867188 19.19814491271973 84.25183868408203 14.97310447692871 80.02680206298828 C 10.74805164337158 75.80176544189453 7.43107795715332 70.88218688964844 5.114304542541504 65.40472412109375 C 2.716038227081299 59.73458862304688 1.500011444091797 53.71054840087891 1.500011444091797 47.49993515014648 C 1.500011444091797 41.28932189941406 2.716038227081299 35.26528167724609 5.114304542541504 29.59514808654785 C 7.43107795715332 24.1176815032959 10.74805164337158 19.1981086730957 14.97310447692871 14.97306823730469 C 19.19814491271973 10.74802875518799 24.11773109436035 7.431055068969727 29.5951976776123 5.11428165435791 C 35.26534652709961 2.716028451919556 41.28938293457031 1.500001788139343 47.5000114440918 1.500001788139343 C 53.71063995361328 1.500001788139343 59.73467636108398 2.716028451919556 65.40482330322266 5.11428165435791 C 70.88229370117188 7.431055068969727 75.8018798828125 10.74802875518799 80.02691650390625 14.97306823730469 C 84.25196838378906 19.1981086730957 87.56894683837891 24.1176815032959 89.88571929931641 29.59514808654785 C 92.28398132324219 35.26528167724609 93.50001525878906 41.28932189941406 93.50001525878906 47.49993515014648 C 93.50001525878906 53.71054840087891 92.28398132324219 59.73458862304688 89.88571929931641 65.40472412109375 C 87.56894683837891 70.88218688964844 84.25196838378906 75.80176544189453 80.02691650390625 80.02680206298828 C 75.8018798828125 84.25183868408203 70.88229370117188 87.56881713867188 65.40482330322266 89.88558959960938 C 59.73467636108398 92.28384399414062 53.71063995361328 93.49987030029297 47.5000114440918 93.49987030029297 Z" stroke="none"/>
                                        <path d="M 47.5000114440918 3 C 41.49122619628906 3 35.66378021240234 4.1761474609375 30.17951965332031 6.495796203613281 C 24.880859375 8.7369384765625 20.12153625488281 11.94596862792969 16.03376770019531 16.03373718261719 C 11.94598388671875 20.12149047851562 8.736968994140625 24.88081359863281 6.495811462402344 30.17947387695312 C 4.176162719726562 35.66371917724609 3.000007629394531 41.49116516113281 3.000007629394531 47.49993515014648 C 3.000007629394531 53.50870513916016 4.176162719726562 59.33615112304688 6.495811462402344 64.82039642333984 C 8.736968994140625 70.11905670166016 11.94598388671875 74.87837982177734 16.03376770019531 78.96613311767578 C 20.12153625488281 83.05390167236328 24.880859375 86.26293182373047 30.17951965332031 88.50407409667969 C 35.66378021240234 90.82372283935547 41.49122619628906 91.99987030029297 47.5000114440918 91.99987030029297 C 53.50879669189453 91.99987030029297 59.33624267578125 90.82372283935547 64.82050323486328 88.50407409667969 C 70.11916351318359 86.26293182373047 74.87848663330078 83.05390167236328 78.96625518798828 78.96613311767578 C 83.05403900146484 74.87837982177734 86.2630615234375 70.11905670166016 88.50421142578125 64.82039642333984 C 90.82386016845703 59.33615112304688 92.00001525878906 53.50870513916016 92.00001525878906 47.49993515014648 C 92.00001525878906 41.49116516113281 90.82386016845703 35.66371917724609 88.50421142578125 30.17947387695312 C 86.2630615234375 24.88081359863281 83.05403900146484 20.12149047851562 78.96625518798828 16.03373718261719 C 74.87848663330078 11.94596862792969 70.11916351318359 8.7369384765625 64.82050323486328 6.495796203613281 C 59.33624267578125 4.1761474609375 53.50879669189453 3 47.5000114440918 3 M 47.5000114440918 0 C 73.73353576660156 0 95.00001525878906 21.26644134521484 95.00001525878906 47.49993515014648 C 95.00001525878906 73.73342895507812 73.73353576660156 94.99987030029297 47.5000114440918 94.99987030029297 C 21.26648712158203 94.99987030029297 7.62939453125e-06 73.73342895507812 7.62939453125e-06 47.49993515014648 C 7.62939453125e-06 21.26644134521484 21.26648712158203 0 47.5000114440918 0 Z" stroke="none" fill="#86b60c"/>
                                      </g>
                                    </g>
                                  </g>
                                </g>
                              </g>
                            </g>
                          </g>
                        </g>
                      </g>
                    </g>
                  </g>
                </g>
              </g>
            </g>
          </g>
        </g>
      </g>
      <g id="layoff_8774770" transform="translate(8319.604 1144.246)">
        <g id="Group_1177548" data-name="Group 1177548" transform="translate(1.023 66.34)">
          <path id="Path_1038849" data-name="Path 1038849" d="M7.76,188.378c0-3.605.01-9.739.01-10.972,0-5.614,1.933-6.39,6.972-6.521l0-.008,1.167-4.007c.213-.008,4.96-.008,5.173,0l1.167,4.007,0,.008c5.039.13,6.972.906,6.972,6.521,0,1.232.01,7.366.01,10.972Z" transform="translate(-7.76 -154.915)" fill="#fcb13b" fill-rule="evenodd"/>
          <path id="Path_1038850" data-name="Path 1038850" d="M73.911,220.01l-1.471,2.2,1.236.776L72.548,229.7l2.294,3.127,2.465-3.135-1.124-6.709,1.239-.776-1.473-2.2Z" transform="translate(-64.197 -201.287)" fill="#00b2ca" fill-rule="evenodd"/>
          <path id="Path_1038851" data-name="Path 1038851" d="M60.4,89.907c-.271,3.027-2.55,5.429-5.025,5.466-.1,0-.195,0-.3,0s-.2,0-.3,0c-2.475-.036-4.751-2.438-5.025-5.466-.553-6.134,2.3-8.356,5.321-8.337C58.1,81.551,60.95,83.773,60.4,89.907Z" transform="translate(-44.344 -80.489)" fill="#fad1a2" fill-rule="evenodd"/>
          <path id="Path_1038852" data-name="Path 1038852" d="M38.31,79.987c.12-3.692,2.3-8.79,6.712-6.022,4.415-2.767,6.846,1.619,6.965,5.311l-4.249,1.257c.3-2.2-.754-4.285-2.717-3.359-2.15-.8-3.013,1.156-2.713,3.359Z" transform="translate(-34.417 -73.095)" fill="#7c9885" fill-rule="evenodd"/>
          <path id="Path_1038853" data-name="Path 1038853" d="M323.82,196.938c0-3.605.01-9.739.01-10.972,0-5.614,1.93-6.39,6.969-6.521l0-.008,1.167-4.007c.213-.008,4.964-.008,5.177,0l1.167,4.007,0,.008c5.039.13,6.972.906,6.972,6.521,0,1.232.008,7.366.01,10.972H323.82Z" transform="translate(-283.54 -162.384)" fill="#00b2ca" fill-rule="evenodd"/>
          <path id="Path_1038854" data-name="Path 1038854" d="M389.953,228.57l-1.473,2.2,1.239.776-1.127,6.716,2.294,3.125,2.463-3.133-1.124-6.709,1.236-.776-1.475-2.2Z" transform="translate(-339.96 -208.756)" fill="#ed2024" fill-rule="evenodd"/>
          <path id="Path_1038855" data-name="Path 1038855" d="M376.454,98.467c-.271,3.027-2.546,5.429-5.021,5.466-.1,0-.2,0-.3,0s-.2,0-.3,0c-2.475-.036-4.754-2.438-5.025-5.466-.553-6.138,2.3-8.356,5.321-8.337C374.156,90.111,377.007,92.329,376.454,98.467Z" transform="translate(-320.123 -87.958)" fill="#fad1a2" fill-rule="evenodd"/>
          <path id="Path_1038856" data-name="Path 1038856" d="M354.38,88.547c.12-3.692,2.3-8.79,6.712-6.022,4.415-2.767,6.846,1.619,6.961,5.311L363.8,89.093c.3-2.207-.752-4.285-2.713-3.359-2.15-.8-3.013,1.152-2.713,3.359Z" transform="translate(-310.205 -80.564)" fill="#506e7a" fill-rule="evenodd"/>
          <path id="Path_1038857" data-name="Path 1038857" d="M36.318,280.45a8.126,8.126,0,1,1-8.128,8.128A8.127,8.127,0,0,1,36.318,280.45Z" transform="translate(-25.586 -254.024)" fill="#ed2024" fill-rule="evenodd"/>
          <path id="Path_1038858" data-name="Path 1038858" d="M165.79,279.648c0-3.605.01-9.739.01-10.972,0-5.614,1.933-6.39,6.969-6.521l0-.008,1.167-4.007c.217-.008,4.964-.008,5.177,0l1.167,4.007,0,.008c5.039.13,6.972.906,6.972,6.521,0,1.232.01,7.366.01,10.972H165.79Z" transform="translate(-145.65 -234.553)" fill="#c6c6ab" fill-rule="evenodd"/>
          <path id="Path_1038859" data-name="Path 1038859" d="M231.923,311.29l-1.473,2.2,1.239.777-1.128,6.715,2.294,3.125,2.465-3.133-1.124-6.707,1.236-.777-1.471-2.2Z" transform="translate(-202.07 -280.933)" fill="#ed2024" fill-rule="evenodd"/>
          <path id="Path_1038860" data-name="Path 1038860" d="M218.428,181.187c-.274,3.027-2.55,5.429-5.025,5.466-.1,0-.2,0-.3,0s-.2,0-.3,0c-2.475-.036-4.754-2.438-5.025-5.466-.553-6.138,2.3-8.356,5.321-8.337C216.126,172.83,218.981,175.049,218.428,181.187Z" transform="translate(-182.234 -160.136)" fill="#fad1a2" fill-rule="evenodd"/>
          <path id="Path_1038861" data-name="Path 1038861" d="M196.35,171.257c.12-3.692,2.3-8.79,6.712-6.022,4.415-2.767,6.846,1.619,6.965,5.311l-4.252,1.257c.3-2.2-.752-4.285-2.713-3.359-2.15-.8-3.013,1.156-2.713,3.359Z" transform="translate(-172.315 -152.733)" fill="#f6851f" fill-rule="evenodd"/>
          <path id="Path_1038862" data-name="Path 1038862" d="M352.388,280.45a8.126,8.126,0,1,1-8.128,8.128A8.128,8.128,0,0,1,352.388,280.45Z" transform="translate(-301.375 -254.024)" fill="#ed2024" fill-rule="evenodd"/>
        </g>
        <path id="Path_1038863" data-name="Path 1038863" d="M54.652,96.874a.989.989,0,1,1,1.4,1.4l-2.619,2.619,2.619,2.615a.989.989,0,1,1-1.4,1.4l-2.615-2.619L49.417,104.9a.989.989,0,1,1-1.4-1.4l2.619-2.615-2.619-2.619a.989.989,0,0,1,1.4-1.4l2.619,2.619Zm-2.615-5.1c.234,0,.47.01.7.029l-.419-2.511a.983.983,0,0,1,.488-1.022l.336-.213-.61-.918h-.99l-.614.918.38.238a.99.99,0,0,1,.449,1L51.333,91.8c.229-.018.465-.029.7-.029ZM54.8,92.2a9.082,9.082,0,0,1,3.111,1.719V89.272a.988.988,0,1,1,1.977,0v6.986A9.052,9.052,0,0,1,61.1,99.9h.687l-.014-9.981c0-4.689-1.2-5.358-5.466-5.52l-1.8,2.142.86,1.286a.985.985,0,0,1-.311,1.359l-.679.426Zm6.293,9.676A9.117,9.117,0,0,1,43.6,104.366c0,2.286.008,5.065.008,7.067a.984.984,0,0,1-.983.983v0H21.163a.988.988,0,0,1-.986-1.077c0-1.991.008-4.722.008-6.976a9.116,9.116,0,0,1-17.543-3.58H1.023A.985.985,0,0,1,.041,99.71c0-2.085,0-4.978.008-7.29V88.828c0-3.129.593-4.956,1.958-6.077,1.207-.994,2.9-1.3,5.249-1.406l.271-.935a7.519,7.519,0,0,1-2.07-4.57l-.073-1.554-.6-.083a.986.986,0,0,1-.853-1.044,11.356,11.356,0,0,1,1.518-5.35,4.354,4.354,0,0,1,6.177-1.737,4.629,4.629,0,0,1,6.6,1.713,9.717,9.717,0,0,1,1.351,4.7.983.983,0,0,1-.7.975l-.754.224a15.938,15.938,0,0,1-.061,2.153,7.526,7.526,0,0,1-2.07,4.57l.271.935c2.351.1,4.043.412,5.249,1.406,1.365,1.12,1.958,2.948,1.958,6.077l0,4.794a12.421,12.421,0,0,1,3.927-.644l.271-.935a7.5,7.5,0,0,1-2.07-4.57l-.076-1.554-.593-.083a.988.988,0,0,1-.853-1.044,11.312,11.312,0,0,1,1.518-5.35,4.354,4.354,0,0,1,6.177-1.737,4.63,4.63,0,0,1,6.6,1.713,9.717,9.717,0,0,1,1.351,4.7.981.981,0,0,1-.709.975l-.752.224a16.588,16.588,0,0,1-.061,2.153,7.548,7.548,0,0,1-2.07,4.57l.271.935a12.385,12.385,0,0,1,3.927.644v-3.7c0-3.129.593-4.956,1.958-6.077,1.211-.994,2.9-1.3,5.249-1.406l.274-.935a7.5,7.5,0,0,1-2.07-4.57l-.076-1.554-.593-.083a.985.985,0,0,1-.853-1.044,11.312,11.312,0,0,1,1.518-5.35,4.351,4.351,0,0,1,6.173-1.737,4.631,4.631,0,0,1,6.6,1.713,9.745,9.745,0,0,1,1.351,4.7.986.986,0,0,1-.709.975l-.752.224a17.3,17.3,0,0,1-.061,2.153,7.548,7.548,0,0,1-2.07,4.57l.271.935c2.349.1,4.039.412,5.249,1.406,1.365,1.12,1.958,2.948,1.958,6.077l.008,10.972a.984.984,0,0,1-.983.983v0H61.1ZM43.424,97.888a9.28,9.28,0,0,1,.754-1.629V89.273a.988.988,0,1,1,1.977,0v4.649A9.07,9.07,0,0,1,49.266,92.2l.433-2.59-.679-.426a.99.99,0,0,1-.293-1.384l.841-1.26-1.8-2.142c-4.271.163-5.466.831-5.466,5.52l-.008,5.119a5.971,5.971,0,0,1,1.133,2.848ZM57.083,95.84a7.14,7.14,0,1,0,0,10.1A7.14,7.14,0,0,0,57.083,95.84Zm-27.872-2.07,1.629,1.936h2.075a.091.091,0,0,1,.032,0l1.629-1.94-.141-.488a5.493,5.493,0,0,1-2.847.553,5.155,5.155,0,0,1-2.233-.553Zm.217,3.316-1.8-2.146c-2.012.076-3.407.289-4.23.965-1.037.849-1.235,2.641-1.235,4.555l-.014,9.981h1.9V99.813a.988.988,0,1,1,1.977,0v10.629h5.466a.985.985,0,0,1-.47-.347l-2.284-3.113a.978.978,0,0,1-.187-.758l1.018-6.069-.683-.426a.99.99,0,0,1-.293-1.384Zm6.738-2.146L34.36,97.087l.86,1.282a.988.988,0,0,1-.307,1.359l-.683.426,1.012,6.026a.991.991,0,0,1-.191.809l-2.463,3.133h0a.976.976,0,0,1-.449.321h5.639V99.813a.988.988,0,1,1,1.977,0v10.629h1.893l-.014-9.981c0-4.689-1.2-5.356-5.464-5.52ZM36.3,85.9l-1.54.455a.987.987,0,0,1-1.25-1.109A2.931,2.931,0,0,0,33,82.933c-.224-.195-.5-.144-.813,0-.6.285-.9-.155-1.449-.079-.3.04-.477.311-.589.607a3.887,3.887,0,0,0-.122,1.814.981.981,0,0,1-.845,1.1,13.688,13.688,0,0,1-1.694-.195c.008.354.029.726.061,1.116.206,2.286,1.922,4.588,4.19,4.566l.437,0a3.73,3.73,0,0,0,2.641-1.311A5.545,5.545,0,0,0,36.233,87.3Zm-9.042-5.415a8.877,8.877,0,0,0-1.148,3.526l1.914.264c.076-1.546.78-3.143,2.46-3.371a3.188,3.188,0,0,1,1.246.1,2.776,2.776,0,0,1,1.282-.141c1.571.213,2.333,1.745,2.479,3.223l2.2-.65c-.217-1.766-1.225-4.548-3.381-4.476a4.1,4.1,0,0,0-2,.709.978.978,0,0,1-1.055.008c-1.684-1.054-2.973-.812-3.992.811Zm4.143,17.2-.614.918.38.238a.987.987,0,0,1,.447,1l-1.059,6.3,1.278,1.745,1.394-1.77-1.051-6.279a.983.983,0,0,1,.488-1.022L33,98.6l-.614-.918H31.4Zm-11.037.209A5.986,5.986,0,0,1,21.5,95.035l-.014-6.207c0-4.689-1.192-5.358-5.462-5.52l-1.8,2.146.856,1.282a.984.984,0,0,1-.307,1.359l-.683.426.628,3.747a9.094,9.094,0,0,1,2.916,1.654v-5.74a.988.988,0,1,1,1.977,0V96.26A9.1,9.1,0,0,1,20.364,97.888Zm-5.99-1.014a.989.989,0,0,1,1.4,1.4l-2.619,2.619,2.619,2.615a.989.989,0,0,1-1.4,1.4l-2.619-2.619L9.136,104.9a.987.987,0,0,1-1.394-1.4l2.615-2.615L7.742,98.272a.987.987,0,0,1,1.394-1.4l2.619,2.619Zm-2.619-5.1a8.893,8.893,0,0,1,.888.043L12.037,88.2a.983.983,0,0,1,.488-1.022l.339-.213-.614-.914h-.99l-.614.914.38.238a.984.984,0,0,1,.449,1l-.607,3.616q.44-.044.888-.043ZM2.88,98.81A8.964,8.964,0,0,1,3.9,96.26V88.182a.988.988,0,1,1,1.977,0v5.74a9.094,9.094,0,0,1,2.916-1.654l.628-3.747L8.74,88.1a.993.993,0,0,1-.293-1.384l.845-1.257L7.486,83.309c-4.271.163-5.462.831-5.462,5.52L2.006,98.81ZM16.806,95.84a7.14,7.14,0,1,0,0,10.1A7.14,7.14,0,0,0,16.806,95.84ZM49.351,83.229l1.626,1.936h2.074a.1.1,0,0,1,.036,0l1.629-1.94-.141-.488a5.5,5.5,0,0,1-2.851.553,5.182,5.182,0,0,1-2.233-.553Zm7.088-7.871-1.54.455A.987.987,0,0,1,53.65,74.7a2.931,2.931,0,0,0-.506-2.312c-.228-.195-.5-.144-.817,0-.6.285-.9-.155-1.445-.079-.307.04-.48.311-.589.607a3.887,3.887,0,0,0-.122,1.814.984.984,0,0,1-.845,1.1,14.11,14.11,0,0,1-1.694-.195c.008.354.029.726.061,1.116.206,2.28,1.9,4.578,4.187,4.562h.441a3.72,3.72,0,0,0,2.641-1.315,5.54,5.54,0,0,0,1.412-3.247ZM47.4,69.941a8.877,8.877,0,0,0-1.148,3.526l1.914.264c.076-1.546.78-3.143,2.457-3.371a3.2,3.2,0,0,1,1.25.1,2.776,2.776,0,0,1,1.282-.141c1.571.213,2.333,1.745,2.479,3.222l2.2-.65c-.217-1.766-1.225-4.548-3.381-4.476a4.1,4.1,0,0,0-2,.709.978.978,0,0,1-1.055.008C49.706,68.078,48.416,68.32,47.4,69.941ZM9.071,82.138,10.7,84.074h2.074c.01,0,.022,0,.036,0l1.629-1.94-.144-.488a5.5,5.5,0,0,1-2.847.553,5.169,5.169,0,0,1-2.233-.553Zm7.092-7.872-1.542.455a.986.986,0,0,1-1.25-1.1,2.937,2.937,0,0,0-.506-2.316c-.224-.195-.5-.144-.813.008-.6.282-.9-.159-1.449-.083-.3.04-.477.311-.589.607a3.887,3.887,0,0,0-.122,1.814.981.981,0,0,1-.845,1.1,13.691,13.691,0,0,1-1.694-.195c.008.358.029.726.065,1.116.2,2.272,1.9,4.578,4.187,4.566l.437,0a3.735,3.735,0,0,0,2.641-1.311A5.573,5.573,0,0,0,16.1,75.671ZM7.12,68.85a8.758,8.758,0,0,0-1.148,3.526l1.912.264c.076-1.546.78-3.143,2.46-3.371a3.188,3.188,0,0,1,1.246.1,2.791,2.791,0,0,1,1.286-.141c1.571.213,2.33,1.745,2.475,3.222l2.2-.65c-.217-1.766-1.225-4.545-3.381-4.476a4.114,4.114,0,0,0-2,.709.978.978,0,0,1-1.055.008c-1.68-1.051-2.973-.809-3.989.812Z" transform="translate(0)"/>
      </g>
    </g>
  </g>
</svg>
