<svg xmlns="http://www.w3.org/2000/svg" xmlns:xlink="http://www.w3.org/1999/xlink" width="93.934" height="93.934" viewBox="0 0 93.934 93.934">
  <defs>
    <filter id="Path_982547" x="0" y="0" width="93.934" height="93.934" filterUnits="userSpaceOnUse">
      <feOffset dy="3" input="SourceAlpha"/>
      <feGaussianBlur stdDeviation="3" result="blur"/>
      <feFlood flood-opacity="0.161"/>
      <feComposite operator="in" in2="blur"/>
      <feComposite in="SourceGraphic"/>
    </filter>
  </defs>
  <g id="Group_1177563" data-name="Group 1177563" transform="translate(-199.033 -475.033)">
    <g id="Group_1177297" data-name="Group 1177297" transform="translate(10 -537.967)">
      <g id="Group_1176309" data-name="Group 1176309" transform="translate(0 -973)">
        <g id="Group_1172970" data-name="Group 1172970" transform="translate(-1 -9042)">
          <g id="Group_1171971" data-name="Group 1171971" transform="translate(199.033 11034)">
            <g id="Group_1167337" data-name="Group 1167337" transform="translate(0)">
              <g id="Group_1166720" data-name="Group 1166720">
                <g id="Group_1164305" data-name="Group 1164305">
                  <g id="Group_1163948" data-name="Group 1163948">
                    <g id="Group_1158168" data-name="Group 1158168">
                      <g id="Group_1152576" data-name="Group 1152576">
                        <g id="Group_1148633" data-name="Group 1148633">
                          <g id="Group_1148525" data-name="Group 1148525">
                            <g transform="matrix(1, 0, 0, 1, -9, -6)" filter="url(#Path_982547)">
                              <g id="Path_982547-2" data-name="Path 982547" transform="translate(9 6)" fill="#e9f9fd">
                                <path d="M 37.966796875 74.43359375 C 33.04315185546875 74.43359375 28.26757431030273 73.46962738037109 23.77274131774902 71.56847381591797 C 19.43047523498535 69.73184967041016 15.53040790557861 67.10224914550781 12.18087482452393 63.75271987915039 C 8.831341743469238 60.4031867980957 6.201741218566895 56.50312042236328 4.365118980407715 52.16086196899414 C 2.463963508605957 47.66601943969727 1.499996900558472 42.89044189453125 1.499996900558472 37.966796875 C 1.499996900558472 33.04315185546875 2.463963508605957 28.26757431030273 4.365118980407715 23.77274131774902 C 6.201741218566895 19.43047523498535 8.831341743469238 15.53040790557861 12.18087482452393 12.18087482452393 C 15.53040790557861 8.831341743469238 19.43047523498535 6.201741218566895 23.77274131774902 4.365118980407715 C 28.26757431030273 2.463963508605957 33.04315185546875 1.499996900558472 37.966796875 1.499996900558472 C 42.89044189453125 1.499996900558472 47.66601943969727 2.463963508605957 52.16086196899414 4.365118980407715 C 56.50312042236328 6.201741218566895 60.4031867980957 8.831341743469238 63.75271987915039 12.18087482452393 C 67.10224914550781 15.53040790557861 69.73184967041016 19.43047523498535 71.56847381591797 23.77274131774902 C 73.46962738037109 28.26757431030273 74.43359375 33.04315185546875 74.43359375 37.966796875 C 74.43359375 42.89044189453125 73.46962738037109 47.66601943969727 71.56847381591797 52.16086196899414 C 69.73184967041016 56.50313186645508 67.10224914550781 60.4031867980957 63.75271987915039 63.75271987915039 C 60.4031867980957 67.10224914550781 56.50313186645508 69.73184967041016 52.16086196899414 71.56847381591797 C 47.66601943969727 73.46962738037109 42.89044189453125 74.43359375 37.966796875 74.43359375 Z" stroke="none"/>
                                <path d="M 37.966796875 3 C 33.2449836730957 3 28.66600799560547 3.924095153808594 24.35705947875977 5.746635437011719 C 20.19359588623047 7.507637023925781 16.45379638671875 10.02928161621094 13.24153518676758 13.24153518676758 C 10.02927398681641 16.45379638671875 7.507621765136719 20.19359588623047 5.746635437011719 24.35705947875977 C 3.924095153808594 28.66600799560547 3 33.2449836730957 3 37.966796875 C 3 42.6886100769043 3.924095153808594 47.26758575439453 5.746635437011719 51.57653427124023 C 7.507621765136719 55.73999786376953 10.02927398681641 59.47979736328125 13.24153518676758 62.69205856323242 C 16.45379638671875 65.90431976318359 20.19359588623047 68.42597198486328 24.35705947875977 70.18695831298828 C 28.66600799560547 72.00949859619141 33.2449836730957 72.93359375 37.966796875 72.93359375 C 42.6886100769043 72.93359375 47.26758575439453 72.00949859619141 51.57653427124023 70.18695831298828 C 55.73999786376953 68.42597198486328 59.47979736328125 65.90431976318359 62.69205856323242 62.69205856323242 C 65.90431976318359 59.47979736328125 68.42597198486328 55.73999786376953 70.18695831298828 51.57653427124023 C 72.00949859619141 47.26758575439453 72.93359375 42.6886100769043 72.93359375 37.966796875 C 72.93359375 33.2449836730957 72.00949859619141 28.66600799560547 70.18695831298828 24.35705947875977 C 68.42597198486328 20.19359588623047 65.90431976318359 16.45379638671875 62.69205856323242 13.24153518676758 C 59.47979736328125 10.02928161621094 55.73999786376953 7.507637023925781 51.57653427124023 5.746635437011719 C 47.26758575439453 3.924095153808594 42.6886100769043 3 37.966796875 3 M 37.966796875 0 C 58.93528366088867 0 75.93359375 16.99832153320312 75.93359375 37.966796875 C 75.93359375 58.93528366088867 58.93528366088867 75.93359375 37.966796875 75.93359375 C 16.99831008911133 75.93359375 0 58.93528366088867 0 37.966796875 C 0 16.99832153320312 16.99831008911133 0 37.966796875 0 Z" stroke="none" fill="#1d7083"/>
                              </g>
                            </g>
                          </g>
                        </g>
                      </g>
                    </g>
                  </g>
                </g>
              </g>
            </g>
          </g>
        </g>
      </g>
      <g id="Layer_29" data-name="Layer 29" transform="translate(205.346 1026.312)">
        <path id="Path_1038339" data-name="Path 1038339" d="M339.492,53.719V22.986H336L342.985,16l6.985,6.985h-3.492V53.719" transform="translate(-299.362 -7.301)" fill="#e26510"/>
        <path id="Path_1038340" data-name="Path 1038340" d="M419.492,53.719V22.986h3.492L416,16V53.719Z" transform="translate(-372.377 -7.301)" fill="#f9700b"/>
        <path id="Path_1038341" data-name="Path 1038341" d="M179.492,148.639V126.986H176L182.985,120l6.985,6.985h-3.492v21.653" transform="translate(-153.332 -102.221)" fill="#f9700b"/>
        <path id="Path_1038342" data-name="Path 1038342" d="M259.492,148.639V126.986h3.492L256,120v28.638Z" transform="translate(-226.347 -102.221)" fill="#fa8517"/>
        <path id="Path_1038343" data-name="Path 1038343" d="M16,448H57.909v4.191H16Z" transform="translate(-7.301 -401.582)" fill="#424242"/>
        <path id="Path_1038344" data-name="Path 1038344" d="M40,448.7a1.4,1.4,0,0,0,1.4,1.4H79.814V448H40Z" transform="translate(-29.206 -401.582)" fill="#575659"/>
        <path id="Path_1038345" data-name="Path 1038345" d="M19.492,228.956v-13.97H16L22.985,208l6.985,6.985H26.477v13.97" transform="translate(-7.301 -182.537)" fill="#fa8517"/>
        <path id="Path_1038346" data-name="Path 1038346" d="M282.477,259.559l9.08-9.08L281.08,240H272v9.08Z" transform="translate(-240.95 -211.743)" fill="#fab503"/>
        <path id="Path_1038347" data-name="Path 1038347" d="M283.959,255.282l6.2-6.2L281.08,240H272v6.286l9,9A2.1,2.1,0,0,0,283.959,255.282Z" transform="translate(-240.95 -211.742)" fill="#ffce00"/>
        <circle id="Ellipse_11866" data-name="Ellipse 11866" cx="2.079" cy="2.079" r="2.079" transform="translate(33.809 31.319)" fill="#fff"/>
        <g id="Group_1177397" data-name="Group 1177397" transform="translate(35.24 24.765)">
          <path id="Path_1038348" data-name="Path 1038348" d="M330.088,340.185a2.1,2.1,0,1,1,2.1-2.1A2.1,2.1,0,0,1,330.088,340.185Zm0-2.794a.7.7,0,1,0,.7.7A.7.7,0,0,0,330.088,337.391Z" transform="translate(-327.294 -324.119)" fill="#2a2a2a"/>
          <path id="Path_1038349" data-name="Path 1038349" d="M410.088,340.185a2.1,2.1,0,1,1,2.1-2.1A2.1,2.1,0,0,1,410.088,340.185Zm0-2.794a.7.7,0,1,0,.7.7A.7.7,0,0,0,410.088,337.391Z" transform="translate(-400.309 -324.119)" fill="#2a2a2a"/>
          <path id="Path_1038350" data-name="Path 1038350" d="M383.992,304h1.4v9.779h-1.4Z" transform="translate(-378.404 -294.921)" fill="#2a2a2a"/>
          <path id="Path_1038351" data-name="Path 1038351" d="M319.992,200h1.4v8.382h-1.4Z" transform="translate(-319.992 -200.001)" fill="#2a2a2a"/>
        </g>
        <path id="Path_1038352" data-name="Path 1038352" d="M99.492,228.956v-13.97h3.492L96,208v20.955Z" transform="translate(-80.317 -182.537)" fill="#ff953e"/>
        <path id="Path_1038353" data-name="Path 1038353" d="M50.608,45.72H47.814v-3.2L51.1,39.23a.7.7,0,0,0,0-.989l-3.288-3.288V16.383h2.794a.7.7,0,0,0,.494-1.192L44.117,8.206a.7.7,0,0,0-.988,0l-6.985,6.985a.7.7,0,0,0,.494,1.192h2.794V27.559H36.639V25.464a.7.7,0,0,0,.493-1.192l-6.985-6.985a.7.7,0,0,0-.988,0l-6.985,6.985a.7.7,0,0,0,.494,1.192h2.794V45.72H19.874V33.147h2.794a.7.7,0,0,0,.494-1.192L16.177,24.97a.7.7,0,0,0-.988,0L8.2,31.955A.7.7,0,0,0,8.7,33.147h2.794V45.72H8.7a.7.7,0,0,0-.7.7v4.191a.7.7,0,0,0,.7.7H50.608a.7.7,0,0,0,.7-.7V46.418a.7.7,0,0,0-.7-.7Zm-4.191,0h-1.8l1.8-1.8ZM38.324,14.986l5.3-5.3,5.3,5.3H47.115a.7.7,0,0,0-.7.7v17.87l-5.588-5.588V15.685a.7.7,0,0,0-.7-.7Zm1.517,13.97,9.778,9.778-8.092,8.091-9.778-9.778V28.957H35.24v1.5a2.794,2.794,0,1,0,1.4,0v-1.5Zm-1.4,16.763h-4.6v-4.6Zm-1.8-13.775a1.4,1.4,0,1,1-1.4,0v1.2h1.4Zm-2.795-4.386V25.464h1.4v2.095Zm-7.683-3.492H24.354l5.3-5.3,5.3,5.3H33.146a.7.7,0,0,0-.7.7v2.793h-1.4a.7.7,0,0,0-.7.7v9.08a.7.7,0,0,0,.2.495l1.891,1.892v6H26.859V24.765a.7.7,0,0,0-.7-.7ZM12.191,31.75H10.385l5.3-5.3,5.3,5.3H19.176a.7.7,0,0,0-.7.7V45.72H12.889V32.449A.7.7,0,0,0,12.191,31.75ZM49.909,49.911H9.4V47.117H39.84l1.193,1.193a.7.7,0,0,0,.989,0l1.193-1.193h6.694Z"/>
        <path id="Path_1038354" data-name="Path 1038354" d="M327.992,338.089a2.1,2.1,0,1,0,2.1-2.1A2.1,2.1,0,0,0,327.992,338.089Zm2.794,0a.7.7,0,1,1-.7-.7A.7.7,0,0,1,330.786,338.089Z" transform="translate(-292.053 -299.354)"/>
        <path id="Path_1038355" data-name="Path 1038355" d="M410.088,340.185a2.1,2.1,0,1,0-2.1-2.1A2.1,2.1,0,0,0,410.088,340.185Zm0-2.794a.7.7,0,1,1-.7.7A.7.7,0,0,1,410.088,337.391Z" transform="translate(-365.068 -299.354)"/>
        <path id="Path_1038356" data-name="Path 1038356" d="M383.992,304h1.4v9.779h-1.4Z" transform="translate(-343.164 -270.155)"/>
      </g>
    </g>
  </g>
</svg>
