<svg xmlns="http://www.w3.org/2000/svg" xmlns:xlink="http://www.w3.org/1999/xlink" width="118" height="118" viewBox="0 0 118 118">
  <defs>
    <filter id="Path_982547" x="0" y="0" width="118" height="118" filterUnits="userSpaceOnUse">
      <feOffset dy="3" input="SourceAlpha"/>
      <feGaussianBlur stdDeviation="3" result="blur"/>
      <feFlood flood-opacity="0.161"/>
      <feComposite operator="in" in2="blur"/>
      <feComposite in="SourceGraphic"/>
    </filter>
  </defs>
  <g id="Group_1177580" data-name="Group 1177580" transform="translate(-320.5 -2391)">
    <g id="Group_1177509" data-name="Group 1177509" transform="translate(-420.25)">
      <g id="Group_1176445" data-name="Group 1176445" transform="translate(469.25 -216.015)">
        <g id="Group_1173988" data-name="Group 1173988" transform="translate(280.5 2613.015)">
          <g id="Group_1172010" data-name="Group 1172010">
            <g id="Group_1171046" data-name="Group 1171046">
              <g id="Group_1148525" data-name="Group 1148525">
                <g transform="matrix(1, 0, 0, 1, -9, -6)" filter="url(#Path_982547)">
                  <g id="Path_982547-2" data-name="Path 982547" transform="translate(9 6)" fill="#f2f7e5">
                    <path d="M 50 98.5 C 43.45188522338867 98.5 37.10042953491211 97.21787261962891 31.12207221984863 94.68923950195312 C 25.34691429138184 92.24655914306641 20.15997123718262 88.74931335449219 15.70532894134521 84.29468536376953 C 11.2506856918335 79.84004211425781 7.753442764282227 74.65309906005859 5.310757160186768 68.8779296875 C 2.782128572463989 62.89957046508789 1.5 56.54811477661133 1.5 50 C 1.5 43.45188522338867 2.782128572463989 37.10042953491211 5.310757160186768 31.12207221984863 C 7.753442764282227 25.34691429138184 11.2506856918335 20.15997123718262 15.70532894134521 15.70532894134521 C 20.15997123718262 11.2506856918335 25.34691429138184 7.753442764282227 31.12207221984863 5.310757160186768 C 37.10042953491211 2.782128572463989 43.45188522338867 1.5 50 1.5 C 56.54811477661133 1.5 62.89957046508789 2.782128572463989 68.8779296875 5.310757160186768 C 74.65309906005859 7.753442764282227 79.84004211425781 11.2506856918335 84.29468536376953 15.70532894134521 C 88.74931335449219 20.15997123718262 92.24655914306641 25.34691429138184 94.68923950195312 31.12207221984863 C 97.21787261962891 37.10042953491211 98.5 43.45188522338867 98.5 50 C 98.5 56.54811477661133 97.21787261962891 62.89957046508789 94.68923950195312 68.8779296875 C 92.24655914306641 74.65309906005859 88.74931335449219 79.84004211425781 84.29468536376953 84.29468536376953 C 79.84004211425781 88.74931335449219 74.65309906005859 92.24655914306641 68.8779296875 94.68923950195312 C 62.89957046508789 97.21787261962891 56.54811477661133 98.5 50 98.5 Z" stroke="none"/>
                    <path d="M 50 3 C 43.65372467041016 3 37.49886322021484 4.242263793945312 31.70639801025391 6.6922607421875 C 26.11003112792969 9.059326171875 21.08335113525391 12.44861602783203 16.76598358154297 16.76598358154297 C 12.44861602783203 21.08335113525391 9.059326171875 26.11003112792969 6.6922607421875 31.70639801025391 C 4.242263793945312 37.49886322021484 3 43.65372467041016 3 50 C 3 56.34627532958984 4.242263793945312 62.50113677978516 6.6922607421875 68.29360198974609 C 9.059326171875 73.88996887207031 12.44861602783203 78.91666412353516 16.76598358154297 83.23401641845703 C 21.08335113525391 87.55138397216797 26.11003112792969 90.940673828125 31.70639801025391 93.3077392578125 C 37.49886322021484 95.75773620605469 43.65372467041016 97 50 97 C 56.34627532958984 97 62.50113677978516 95.75773620605469 68.29360198974609 93.3077392578125 C 73.88996887207031 90.940673828125 78.91666412353516 87.55138397216797 83.23401641845703 83.23401641845703 C 87.55138397216797 78.91666412353516 90.940673828125 73.88996887207031 93.3077392578125 68.29360198974609 C 95.75773620605469 62.50113677978516 97 56.34627532958984 97 50 C 97 43.65372467041016 95.75773620605469 37.49886322021484 93.3077392578125 31.70639801025391 C 90.940673828125 26.11003112792969 87.55138397216797 21.08335113525391 83.23401641845703 16.76598358154297 C 78.91666412353516 12.44861602783203 73.88996887207031 9.059326171875 68.29360198974609 6.6922607421875 C 62.50113677978516 4.242263793945312 56.34627532958984 3 50 3 M 50 0 C 77.61424255371094 0 100 22.38577270507812 100 50 C 100 77.61424255371094 77.61424255371094 100 50 100 C 22.38577270507812 100 0 77.61424255371094 0 50 C 0 22.38577270507812 22.38577270507812 0 50 0 Z" stroke="none" fill="#86b60c"/>
                  </g>
                </g>
              </g>
            </g>
          </g>
        </g>
      </g>
      <g id="increase_11185107" transform="translate(724.13 2384.433)">
        <g id="Group_1177506" data-name="Group 1177506" transform="translate(47.656 32.269)">
          <path id="Path_1038765" data-name="Path 1038765" d="M102.867,70.317l.435.01a.745.745,0,0,1,.727,1.022l-1.162,2.86v9.023a3.757,3.757,0,0,1-1.287,2.8,4.479,4.479,0,0,1-3,1.126H84.525l-3.468,2.309a.742.742,0,0,1-.9-.059L77.6,87.158H70.406c-2.534,1.689-5.973,3.959-8.431,5.616a.743.743,0,0,1-1.009-.294l-1.994-3.605a.745.745,0,0,1,.217-1.017l1.05-.7h-8.3a4.479,4.479,0,0,1-2.995-1.126,3.758,3.758,0,0,1-1.287-2.8V41.283a3.758,3.758,0,0,1,1.287-2.8,4.479,4.479,0,0,1,3-1.126H58.1V35.6a3.333,3.333,0,1,1,6.665,0v1.756H71.93V35.6a3.333,3.333,0,0,1,6.665,0v1.756h7.163V35.6a3.333,3.333,0,1,1,6.665,0v1.756h6.164a4.479,4.479,0,0,1,3,1.126,3.758,3.758,0,0,1,1.287,2.8Z" transform="translate(-47.656 -32.269)" fill-rule="evenodd"/>
          <path id="Path_1038766" data-name="Path 1038766" d="M79.836,192.472a13.605,13.605,0,0,1,.5-18.72q.475-.475,1-.9a1.662,1.662,0,0,1-1.248-1.606v-4.481a1.66,1.66,0,0,1,1.657-1.657h5.188a1.66,1.66,0,0,1,1.657,1.657v3.072q.677-.068,1.373-.069a13.6,13.6,0,0,1,3.758.526v-3.53a1.66,1.66,0,0,1,1.657-1.657h5.188a1.66,1.66,0,0,1,1.657,1.657v4.481a1.66,1.66,0,0,1-1.657,1.657H98.642q.447.371.861.779a13.567,13.567,0,0,1,4.029,8.774l6.916.162v-20.6H58.215v33.555A2.652,2.652,0,0,0,61.007,198H71.541ZM68.1,186.828h5.188a1.66,1.66,0,0,1,1.657,1.657v4.482a1.66,1.66,0,0,1-1.657,1.657H68.1a1.66,1.66,0,0,1-1.658-1.657v-4.482a1.66,1.66,0,0,1,1.657-1.657Zm.1-10.862h4.984a1.818,1.818,0,0,1,1.214.46,1.6,1.6,0,0,1,.545,1.2v4.482a1.6,1.6,0,0,1-.545,1.2,1.817,1.817,0,0,1-1.214.46H68.207a1.817,1.817,0,0,1-1.214-.46,1.6,1.6,0,0,1-.545-1.2v-4.482a1.6,1.6,0,0,1,.545-1.2,1.817,1.817,0,0,1,1.214-.46Zm-.1-10.862h5.188a1.66,1.66,0,0,1,1.657,1.657v4.481a1.66,1.66,0,0,1-1.657,1.657H68.1a1.66,1.66,0,0,1-1.658-1.657v-4.481A1.66,1.66,0,0,1,68.1,165.1Z" transform="translate(-56.785 -144.441)" fill="#fff" fill-rule="evenodd"/>
          <path id="Path_1038767" data-name="Path 1038767" d="M232.562,200.666a13.511,13.511,0,0,1,3.632-1.345v-3.305a.171.171,0,0,0-.169-.169h-5.188a.171.171,0,0,0-.169.169V200.5a.171.171,0,0,0,.169.169Z" transform="translate(-205.885 -173.695)" fill="#fc411c" fill-rule="evenodd"/>
          <path id="Path_1038768" data-name="Path 1038768" d="M331.339,200.069a13.523,13.523,0,0,1,1.244.6H336.7a.171.171,0,0,0,.169-.169v-4.481a.171.171,0,0,0-.169-.169h-5.188a.171.171,0,0,0-.169.169Z" transform="translate(-292.922 -173.695)" fill="#fc411c" fill-rule="evenodd"/>
          <path id="Path_1038769" data-name="Path 1038769" d="M227.229,241.3a12.128,12.128,0,1,0-20.957,9.22l2.476-1.648a.745.745,0,0,1,.9.059l5.663,4.976L227.173,246l-2.356-3.593a.743.743,0,0,1,.635-1.147l1.777.042Zm-8.08-2.045a.745.745,0,1,1-1.489,0,2.09,2.09,0,0,0-1.44-2.039,3.218,3.218,0,0,0-2.157,0,2.09,2.09,0,0,0-1.44,2.039c0,1.682,1.334,1.974,2.67,2.265,1.927.42,3.856.841,3.856,3.737a3.516,3.516,0,0,1-2.417,3.434,4.512,4.512,0,0,1-.846.22v1.167a.745.745,0,1,1-1.489,0v-1.167a4.518,4.518,0,0,1-.846-.22,3.516,3.516,0,0,1-2.417-3.434.745.745,0,0,1,1.489,0,2.09,2.09,0,0,0,1.44,2.039,3.215,3.215,0,0,0,2.157,0,2.09,2.09,0,0,0,1.44-2.039c0-1.7-1.341-1.991-2.681-2.283-1.923-.42-3.845-.839-3.845-3.719a3.516,3.516,0,0,1,2.417-3.434,4.507,4.507,0,0,1,.846-.22v-1.167a.745.745,0,0,1,1.489,0V235.6a4.519,4.519,0,0,1,.846.22,3.517,3.517,0,0,1,2.417,3.435Z" transform="translate(-181.971 -203.325)" fill="#ffcf3c" fill-rule="evenodd"/>
          <path id="Path_1038770" data-name="Path 1038770" d="M163.494,336.283a.745.745,0,0,1-.95-.1l-5.614-4.934-14.26,9.507,1.293,2.338,12.267-8.178a.745.745,0,0,1,.949.1l5.614,4.934,15.1-10.069a.743.743,0,0,1,1.053.24l1.745,2.659,3.64-8.959-9.668-.226,1.987,3.028a.743.743,0,0,1-.21,1.026Z" transform="translate(-129.803 -284.143)" fill="#05a332" fill-rule="evenodd"/>
          <path id="Path_1038771" data-name="Path 1038771" d="M350.58,370.215l-1.923,4.734a.745.745,0,0,1-1.315.137l-2.129-3.244-9.253,6.169h11.828a2.652,2.652,0,0,0,2.792-2.436Z" transform="translate(-296.917 -324.45)" fill="#fff" fill-rule="evenodd"/>
          <path id="Path_1038772" data-name="Path 1038772" d="M234.96,419.877l-1.408-1.238-1.856,1.238Z" transform="translate(-206.773 -366.316)" fill="#fff" fill-rule="evenodd"/>
        </g>
        <path id="Path_1038773" data-name="Path 1038773" d="M130.168,356.262h5.188a.169.169,0,0,1,.169.169v4.482a.169.169,0,0,1-.169.169h-5.188a.169.169,0,0,1-.168-.169v-4.482A.169.169,0,0,1,130.168,356.262Z" transform="translate(-71.193 -280.117)" fill="#fc411c"/>
        <path id="Path_1038774" data-name="Path 1038774" d="M135.254,276.055h-4.984c-.089,0-.271.055-.271.168v4.482c0,.113.182.168.271.168h4.984c.089,0,.271-.055.271-.168v-4.482C135.525,276.11,135.343,276.055,135.254,276.055Z" transform="translate(-71.193 -210.772)" fill="#fc411c" fill-rule="evenodd"/>
        <path id="Path_1038775" data-name="Path 1038775" d="M130.168,195.847h5.188a.169.169,0,0,1,.169.169V200.5a.169.169,0,0,1-.169.169h-5.188A.169.169,0,0,1,130,200.5v-4.481a.169.169,0,0,1,.168-.169Z" transform="translate(-71.193 -141.426)" fill="#fc411c"/>
        <path id="Path_1038776" data-name="Path 1038776" d="M101.492,82.029v1.259a3.333,3.333,0,1,1-6.665,0V82.029H87.664v1.259a3.333,3.333,0,0,1-6.665,0V82.029H73.836v1.259a3.333,3.333,0,1,1-6.665,0V82.029H61.007a2.652,2.652,0,0,0-2.792,2.436v6.907h52.233V84.465a2.652,2.652,0,0,0-2.792-2.436Z" transform="translate(-9.129 -43.021)" fill="#fc411c" fill-rule="evenodd"/>
        <path id="Path_1038777" data-name="Path 1038777" d="M341.405,44.45a1.851,1.851,0,0,0-1.844,1.844v4.5a1.844,1.844,0,1,0,3.688,0v-4.5A1.851,1.851,0,0,0,341.405,44.45Z" transform="translate(-252.374 -10.531)" fill="#b3b3b3" fill-rule="evenodd"/>
        <path id="Path_1038778" data-name="Path 1038778" d="M239.3,44.45a1.851,1.851,0,0,0-1.844,1.844v4.5a1.844,1.844,0,1,0,3.688,0v-4.5A1.851,1.851,0,0,0,239.3,44.45Z" transform="translate(-164.092 -10.531)" fill="#b3b3b3" fill-rule="evenodd"/>
        <path id="Path_1038779" data-name="Path 1038779" d="M137.185,44.45a1.851,1.851,0,0,0-1.844,1.844v4.5a1.844,1.844,0,1,0,3.688,0v-4.5A1.851,1.851,0,0,0,137.185,44.45Z" transform="translate(-75.81 -10.531)" fill="#b3b3b3" fill-rule="evenodd"/>
      </g>
    </g>
  </g>
</svg>
