<svg xmlns="http://www.w3.org/2000/svg" xmlns:xlink="http://www.w3.org/1999/xlink" width="113" height="113" viewBox="0 0 113 113">
  <defs>
    <filter id="Path_982547" x="0" y="0" width="113" height="113" filterUnits="userSpaceOnUse">
      <feOffset dy="3" input="SourceAlpha"/>
      <feGaussianBlur stdDeviation="3" result="blur"/>
      <feFlood flood-opacity="0.161"/>
      <feComposite operator="in" in2="blur"/>
      <feComposite in="SourceGraphic"/>
    </filter>
  </defs>
  <g id="Group_1177589" data-name="Group 1177589" transform="translate(-793.49 -1163.623)">
    <g id="Group_1177511" data-name="Group 1177511" transform="translate(-4493 -756.649)">
      <g id="Group_1176928" data-name="Group 1176928" transform="translate(5295.49 1926.273)">
        <g id="Group_1172322" data-name="Group 1172322" transform="translate(0 0)">
          <g id="Group_1164700" data-name="Group 1164700">
            <g id="Group_1160931" data-name="Group 1160931">
              <g id="Group_1160749" data-name="Group 1160749">
                <g id="Group_1158891" data-name="Group 1158891">
                  <g id="Group_1157406" data-name="Group 1157406">
                    <g id="Group_1155793" data-name="Group 1155793">
                      <g id="Group_1154704" data-name="Group 1154704">
                        <g id="Group_1150790" data-name="Group 1150790">
                          <g id="Group_1154214" data-name="Group 1154214">
                            <g id="Group_1152583" data-name="Group 1152583">
                              <g id="Group_1146973" data-name="Group 1146973">
                                <g id="Group_1146954" data-name="Group 1146954">
                                  <g transform="matrix(1, 0, 0, 1, -9, -6)" filter="url(#Path_982547)">
                                    <g id="Path_982547-2" data-name="Path 982547" transform="translate(9 6)" fill="#f2f7e5">
                                      <path d="M 47.5000114440918 93.49987030029297 C 41.28938293457031 93.49987030029297 35.26534652709961 92.28384399414062 29.5951976776123 89.88558959960938 C 24.11773109436035 87.56881713867188 19.19814491271973 84.25183868408203 14.97310447692871 80.02680206298828 C 10.74805164337158 75.80176544189453 7.43107795715332 70.88218688964844 5.114304542541504 65.40472412109375 C 2.716038227081299 59.73458862304688 1.500011444091797 53.71054840087891 1.500011444091797 47.49993515014648 C 1.500011444091797 41.28932189941406 2.716038227081299 35.26528167724609 5.114304542541504 29.59514808654785 C 7.43107795715332 24.1176815032959 10.74805164337158 19.1981086730957 14.97310447692871 14.97306823730469 C 19.19814491271973 10.74802875518799 24.11773109436035 7.431055068969727 29.5951976776123 5.11428165435791 C 35.26534652709961 2.716028451919556 41.28938293457031 1.500001788139343 47.5000114440918 1.500001788139343 C 53.71063995361328 1.500001788139343 59.73467636108398 2.716028451919556 65.40482330322266 5.11428165435791 C 70.88229370117188 7.431055068969727 75.8018798828125 10.74802875518799 80.02691650390625 14.97306823730469 C 84.25196838378906 19.1981086730957 87.56894683837891 24.1176815032959 89.88571929931641 29.59514808654785 C 92.28398132324219 35.26528167724609 93.50001525878906 41.28932189941406 93.50001525878906 47.49993515014648 C 93.50001525878906 53.71054840087891 92.28398132324219 59.73458862304688 89.88571929931641 65.40472412109375 C 87.56894683837891 70.88218688964844 84.25196838378906 75.80176544189453 80.02691650390625 80.02680206298828 C 75.8018798828125 84.25183868408203 70.88229370117188 87.56881713867188 65.40482330322266 89.88558959960938 C 59.73467636108398 92.28384399414062 53.71063995361328 93.49987030029297 47.5000114440918 93.49987030029297 Z" stroke="none"/>
                                      <path d="M 47.5000114440918 3 C 41.49122619628906 3 35.66378021240234 4.1761474609375 30.17951965332031 6.495796203613281 C 24.880859375 8.7369384765625 20.12153625488281 11.94596862792969 16.03376770019531 16.03373718261719 C 11.94598388671875 20.12149047851562 8.736968994140625 24.88081359863281 6.495811462402344 30.17947387695312 C 4.176162719726562 35.66371917724609 3.000007629394531 41.49116516113281 3.000007629394531 47.49993515014648 C 3.000007629394531 53.50870513916016 4.176162719726562 59.33615112304688 6.495811462402344 64.82039642333984 C 8.736968994140625 70.11905670166016 11.94598388671875 74.87837982177734 16.03376770019531 78.96613311767578 C 20.12153625488281 83.05390167236328 24.880859375 86.26293182373047 30.17951965332031 88.50407409667969 C 35.66378021240234 90.82372283935547 41.49122619628906 91.99987030029297 47.5000114440918 91.99987030029297 C 53.50879669189453 91.99987030029297 59.33624267578125 90.82372283935547 64.82050323486328 88.50407409667969 C 70.11916351318359 86.26293182373047 74.87848663330078 83.05390167236328 78.96625518798828 78.96613311767578 C 83.05403900146484 74.87837982177734 86.2630615234375 70.11905670166016 88.50421142578125 64.82039642333984 C 90.82386016845703 59.33615112304688 92.00001525878906 53.50870513916016 92.00001525878906 47.49993515014648 C 92.00001525878906 41.49116516113281 90.82386016845703 35.66371917724609 88.50421142578125 30.17947387695312 C 86.2630615234375 24.88081359863281 83.05403900146484 20.12149047851562 78.96625518798828 16.03373718261719 C 74.87848663330078 11.94596862792969 70.11916351318359 8.7369384765625 64.82050323486328 6.495796203613281 C 59.33624267578125 4.1761474609375 53.50879669189453 3 47.5000114440918 3 M 47.5000114440918 0 C 73.73353576660156 0 95.00001525878906 21.26644134521484 95.00001525878906 47.49993515014648 C 95.00001525878906 73.73342895507812 73.73353576660156 94.99987030029297 47.5000114440918 94.99987030029297 C 21.26648712158203 94.99987030029297 7.62939453125e-06 73.73342895507812 7.62939453125e-06 47.49993515014648 C 7.62939453125e-06 21.26644134521484 21.26648712158203 0 47.5000114440918 0 Z" stroke="none" fill="#86b60c"/>
                                    </g>
                                  </g>
                                </g>
                              </g>
                            </g>
                          </g>
                        </g>
                      </g>
                    </g>
                  </g>
                </g>
              </g>
            </g>
          </g>
        </g>
      </g>
      <g id="group_2622095" transform="translate(5316.286 1949.068)">
        <g id="Group_1177211" data-name="Group 1177211" transform="translate(4.484 27.691)">
          <path id="Path_1036507" data-name="Path 1036507" d="M49.382,280.378c4.092,2.861,4.793,2.314,4.911,5.574h8.5l-.041-3.458c-.027-2.3.177-5.332-1.357-7.179l-3.67-4.421c-2.138-1.835-4.947.511-2.862,2.879.8.9,1.091,1.28,1.81,2.054a1.263,1.263,0,0,1-1.753,1.818l-4.042-3.606a9.364,9.364,0,0,1-1.937-2.2l-2.75-5.231a1.653,1.653,0,1,0-3.04,1.265l4.252,9.93A6.525,6.525,0,0,0,49.382,280.378Z" transform="translate(-42.983 -265.452)" fill="#ffe5c1" fill-rule="evenodd"/>
        </g>
        <g id="Group_1177212" data-name="Group 1177212" transform="translate(29.775 27.691)">
          <path id="Path_1036508" data-name="Path 1036508" d="M286.837,275.315c-1.535,1.847-1.331,4.879-1.357,7.179l-.041,3.458h8.5c.118-3.26.819-2.713,4.908-5.574a6.472,6.472,0,0,0,1.975-2.574l4.255-9.93a1.653,1.653,0,1,0-3.04-1.265l-2.75,5.231a9.363,9.363,0,0,1-1.937,2.2l-4.042,3.606a1.264,1.264,0,0,1-1.756-1.818c.719-.774,1.017-1.156,1.81-2.054,2.088-2.367-.722-4.714-2.859-2.879Z" transform="translate(-285.438 -265.452)" fill="#ffe5c1" fill-rule="evenodd"/>
        </g>
        <g id="Group_1177213" data-name="Group 1177213" transform="translate(14.718 48.191)">
          <path id="Path_1036509" data-name="Path 1036509" d="M141.1,465.509a.9.9,0,0,0,.9.9H150.9a.9.9,0,0,0,.9-.9v-2.636a.9.9,0,0,0-.9-.9H142a.9.9,0,0,0-.9.9Z" transform="translate(-141.097 -461.974)" fill="#fdb440" fill-rule="evenodd"/>
        </g>
        <g id="Group_1177214" data-name="Group 1177214" transform="translate(28.651 48.19)">
          <path id="Path_1036510" data-name="Path 1036510" d="M274.666,462.871v2.636a.9.9,0,0,0,.9.9h8.906a.9.9,0,0,0,.9-.9v-2.636a.9.9,0,0,0-.9-.9h-8.906A.9.9,0,0,0,274.666,462.871Z" transform="translate(-274.666 -461.973)" fill="#fdb440" fill-rule="evenodd"/>
        </g>
        <g id="Group_1177215" data-name="Group 1177215" transform="translate(16.164 32.476)">
          <path id="Path_1036511" data-name="Path 1036511" d="M155.45,312.237l3.667,4.418c1.535,1.85,1.331,4.879,1.357,7.182l.038,3.2h2.581l-.041-3.458c-.027-2.3.177-5.332-1.357-7.179l-3.67-4.421a2.218,2.218,0,0,0-3.066-.086,2.953,2.953,0,0,1,.491.343Z" transform="translate(-154.959 -311.323)" fill="#fed1a3" fill-rule="evenodd"/>
        </g>
        <g id="Group_1177216" data-name="Group 1177216" transform="translate(36.62 27.691)">
          <path id="Path_1036512" data-name="Path 1036512" d="M351.075,285.325l-.015.626h1.659c.118-3.239.81-2.719,4.84-5.527.024-.015.047-.033.068-.047A6.471,6.471,0,0,0,359.6,277.8l4.255-9.93a1.646,1.646,0,0,0-1.783-2.382,1.7,1.7,0,0,1,.136,1.755L357.8,277.02C356.489,279.929,351.285,279.527,351.075,285.325Z" transform="translate(-351.06 -265.452)" fill="#fed1a3" fill-rule="evenodd"/>
        </g>
        <g id="Group_1177217" data-name="Group 1177217" transform="translate(21.646 48.19)">
          <path id="Path_1036513" data-name="Path 1036513" d="M208.413,462.871v2.636a.9.9,0,0,1-.9.9h2.877a.9.9,0,0,0,.9-.9v-2.636a.9.9,0,0,0-.9-.9h-2.877A.9.9,0,0,1,208.413,462.871Z" transform="translate(-207.514 -461.973)" fill="#fe9900" fill-rule="evenodd"/>
        </g>
        <g id="Group_1177218" data-name="Group 1177218" transform="translate(35.576 48.19)">
          <path id="Path_1036514" data-name="Path 1036514" d="M341.953,462.871v2.636a.9.9,0,0,1-.9.9h2.88a.9.9,0,0,0,.9-.9v-2.636a.9.9,0,0,0-.9-.9h-2.88A.9.9,0,0,1,341.953,462.871Z" transform="translate(-341.054 -461.973)" fill="#fe9900" fill-rule="evenodd"/>
        </g>
        <g id="Group_1177219" data-name="Group 1177219" transform="translate(8.707 17.573)">
          <path id="Path_1036515" data-name="Path 1036515" d="M83.983,175.118h13.4c3.134,0,3.374-6.493-1.18-6.664l-8.64.071c-2.07.582-4.092,1.416-4.092,4.389V174.6A.517.517,0,0,0,83.983,175.118Z" transform="translate(-83.468 -168.454)" fill="#22a6fe" fill-rule="evenodd"/>
        </g>
        <g id="Group_1177220" data-name="Group 1177220" transform="translate(12.799 14.387)">
          <path id="Path_1036516" data-name="Path 1036516" d="M122.7,141.17l3.977,2.332a1.312,1.312,0,0,0,1.736,0l2.927-1.717a1.794,1.794,0,0,0-1.106-2.681c.4.078-1.488-1.2-2.531-1.191-1.237.011-2.375,1.46-2.668,1.3-.171.352-.393,1.433-1.233,1.664C123.442,140.972,123.07,141.067,122.7,141.17Z" transform="translate(-122.7 -137.914)" fill="#f5a96c" fill-rule="evenodd"/>
        </g>
        <g id="Group_1177221" data-name="Group 1177221" transform="translate(28.235 17.646)">
          <path id="Path_1036517" data-name="Path 1036517" d="M277.009,175.753h9.6a.517.517,0,0,0,.517-.514v-1.69c0-2.97-2.02-3.8-4.086-4.386l-8.649.612c-2.17.473-6.269,5.979-1.511,5.979Z" transform="translate(-270.673 -169.162)" fill="#22a6fe" fill-rule="evenodd"/>
        </g>
        <g id="Group_1177222" data-name="Group 1177222" transform="translate(31.951 15.022)">
          <path id="Path_1036518" data-name="Path 1036518" d="M309.23,148.959a1.312,1.312,0,0,0,1.736,0l3.983-2.329c-.373-.1-.745-.2-1.109-.3-.84-.231-1.062-1.312-1.236-1.664a5.856,5.856,0,0,0-5.2-.106,7.291,7.291,0,0,0-1.109,2.681Z" transform="translate(-306.3 -144.006)" fill="#f5a96c" fill-rule="evenodd"/>
        </g>
        <g id="Group_1177223" data-name="Group 1177223" transform="translate(11.244 6.225)">
          <path id="Path_1036519" data-name="Path 1036519" d="M107.79,63.395c0,2.027,1.682,4.51,3.891,5.736a6.745,6.745,0,0,0,.9.417,4.13,4.13,0,0,0,3.205,0,6.455,6.455,0,0,0,1.088-.523c1.478-1.132,3.853-6.83,2.164-8.039-.993-.615-1.141-1.581-2.448-1.244a11.623,11.623,0,0,1-2.407.535,11.7,11.7,0,0,1-2.407-.535c-1.786-.458-1.4,1.516-3.992,1.7v1.956Z" transform="translate(-107.79 -59.672)" fill="#ffbc85" fill-rule="evenodd"/>
        </g>
        <g id="Group_1177224" data-name="Group 1177224" transform="translate(11.244 0.783)">
          <path id="Path_1036520" data-name="Path 1036520" d="M111.782,13.012a11.7,11.7,0,0,0,2.407.535,11.622,11.622,0,0,0,2.407-.535c1.307-.337,1.455.63,2.448,1.244a6.115,6.115,0,0,1,1.44-.987,6.429,6.429,0,0,0-6.3-5.769c-3.2.05-6.4,2.459-6.4,7.208C110.38,14.528,110,12.554,111.782,13.012Z" transform="translate(-107.79 -7.5)" fill="#6d80aa" fill-rule="evenodd"/>
        </g>
        <g id="Group_1177225" data-name="Group 1177225" transform="translate(30.896 6.225)">
          <path id="Path_1036521" data-name="Path 1036521" d="M298.346,69.025a6.534,6.534,0,0,0,1.085.523,4.137,4.137,0,0,0,3.208,0,6.71,6.71,0,0,0,.9-.417c2.212-1.227,3.894-3.709,3.894-5.736V61.439c-2.59-.18-2.206-2.157-3.992-1.7a5.689,5.689,0,0,1-4.817,0c-1.3-.337-1.452.63-2.445,1.244a7.276,7.276,0,0,1,2.2,5.556V68.5A3.96,3.96,0,0,1,298.346,69.025Z" transform="translate(-296.181 -59.673)" fill="#ffbc85" fill-rule="evenodd"/>
        </g>
        <g id="Group_1177226" data-name="Group 1177226" transform="translate(29.456 0.783)">
          <path id="Path_1036522" data-name="Path 1036522" d="M288.671,13.547a11.7,11.7,0,0,0,2.407-.535c1.786-.461,1.4,1.516,3.992,1.7,0-4.749-3.2-7.158-6.4-7.208a6.427,6.427,0,0,0-6.3,5.769,6.179,6.179,0,0,1,1.44.987c.993-.615,1.141-1.581,2.445-1.244A11.673,11.673,0,0,0,288.671,13.547Z" transform="translate(-282.376 -7.5)" fill="#6d80aa" fill-rule="evenodd"/>
        </g>
        <g id="Group_1177227" data-name="Group 1177227" transform="translate(21.853 19.524)">
          <path id="Path_1036523" data-name="Path 1036523" d="M213.47,193.76a1.319,1.319,0,0,0,1.736,0l3.977-3.375c-.37-.1-.739-.2-1.1-.3-.843-.231-1.065-1.312-1.236-1.664-1.558-1.522-3.04-1.841-5.015,0-.171.352-.393,1.433-1.236,1.664-.361.1-.73.192-1.1.3Z" transform="translate(-209.496 -187.161)" fill="#fed1a3" fill-rule="evenodd"/>
        </g>
        <g id="Group_1177228" data-name="Group 1177228" transform="translate(14.269 0.783)">
          <path id="Path_1036524" data-name="Path 1036524" d="M138.242,8.328a6.4,6.4,0,0,1,6.251,5.515,3.074,3.074,0,0,0,.526.414,6.115,6.115,0,0,1,1.44-.987,6.271,6.271,0,0,0-9.669-4.755A6.508,6.508,0,0,1,138.242,8.328Z" transform="translate(-136.79 -7.5)" fill="#49679b" fill-rule="evenodd"/>
        </g>
        <g id="Group_1177229" data-name="Group 1177229" transform="translate(32.623 15.578)">
          <path id="Path_1036525" data-name="Path 1036525" d="M313.174,149.33a5.489,5.489,0,0,1-.438,1.489c1.484.765,2.2,1.38,3.977.721a3.327,3.327,0,0,0,.4-.163c.529-.251.568.127.568.127a1.776,1.776,0,0,0,.952,1.111l2.082-1.218c-.373-.1-.745-.2-1.109-.3-.84-.231-1.061-1.312-1.236-1.664a6.715,6.715,0,0,1-.9.417,4.137,4.137,0,0,1-3.208,0A6.533,6.533,0,0,1,313.174,149.33Z" transform="translate(-312.736 -149.33)" fill="#ea9a58" fill-rule="evenodd"/>
        </g>
        <g id="Group_1177230" data-name="Group 1177230" transform="translate(34.491 7.498)">
          <path id="Path_1036526" data-name="Path 1036526" d="M336.7,71.87v2.264c0,2.024-1.682,4.507-3.891,5.733a6.761,6.761,0,0,1-.9.42,4.956,4.956,0,0,1-1.251.3,4.081,4.081,0,0,0,2.862-.118,6.714,6.714,0,0,0,.9-.417c2.212-1.227,3.894-3.709,3.894-5.736V72.364A3.234,3.234,0,0,1,336.7,71.87Z" transform="translate(-330.65 -71.87)" fill="#f5a96c" fill-rule="evenodd"/>
        </g>
        <g id="Group_1177231" data-name="Group 1177231" transform="translate(34.278 0.783)">
          <path id="Path_1036527" data-name="Path 1036527" d="M328.61,7.691c3,.106,5.958,2.282,6.248,6.514a.04.04,0,0,1,.012.009,3.233,3.233,0,0,0,1.612.494c0-4.749-3.2-7.158-6.4-7.208a6.352,6.352,0,0,0-1.472.192Z" transform="translate(-328.61 -7.499)" fill="#49679b" fill-rule="evenodd"/>
        </g>
        <g id="Group_1177232" data-name="Group 1177232" transform="translate(20.298 10.189)">
          <path id="Path_1036528" data-name="Path 1036528" d="M198.478,108.271a6.25,6.25,0,0,0,.9.417,4.131,4.131,0,0,0,3.205,0,6.4,6.4,0,0,0,.9-.417,8.315,8.315,0,0,0,2.747-2.53,6.352,6.352,0,0,0,1.109-2.681,3.96,3.96,0,0,0,.035-.526V99.44c-2.59-.18-2.2-2.157-3.992-1.7a11.747,11.747,0,0,1-2.407.532,11.747,11.747,0,0,1-2.407-.532c-1.789-.461-2.144,1.395-3.992,2.834v1.957a3.959,3.959,0,0,0,.035.526,6.345,6.345,0,0,0,1.106,2.681A8.324,8.324,0,0,0,198.478,108.271Z" transform="translate(-194.587 -97.672)" fill="#ffe5c1" fill-rule="evenodd"/>
        </g>
        <g id="Group_1177233" data-name="Group 1177233" transform="translate(20.298 5.887)">
          <path id="Path_1036529" data-name="Path 1036529" d="M200.986,62.476a11.622,11.622,0,0,0,2.407-.535c1.789-.458,1.4,1.516,3.992,1.7a7.276,7.276,0,0,0-2.2-5.556,6.175,6.175,0,0,0-1.44-.987,6.055,6.055,0,0,0-5.518,0,6.116,6.116,0,0,0-1.44.987,7.276,7.276,0,0,0-2.2,5.556c2.59-.18,2.2-2.154,3.992-1.7A11.615,11.615,0,0,0,200.986,62.476Z" transform="translate(-194.587 -56.429)" fill="#6d80aa" fill-rule="evenodd"/>
        </g>
        <g id="Group_1177234" data-name="Group 1177234" transform="translate(26.244 5.887)">
          <path id="Path_1036530" data-name="Path 1036530" d="M254.256,57.894a6.736,6.736,0,0,1,2.008,3.632,5.027,5.027,0,0,1,.192,1.324,3.062,3.062,0,0,0,1.987.786,9.509,9.509,0,0,0-.065-1.144,6.92,6.92,0,0,0-2.135-4.412,6.176,6.176,0,0,0-1.44-.987,6.446,6.446,0,0,0-2.759-.665c-.151,0-.3.009-.452.024a6.358,6.358,0,0,1,1.224.455A6.269,6.269,0,0,1,254.256,57.894Z" transform="translate(-251.592 -56.428)" fill="#49679b" fill-rule="evenodd"/>
        </g>
        <g id="Group_1177235" data-name="Group 1177235" transform="translate(25.334 12.309)">
          <path id="Path_1036531" data-name="Path 1036531" d="M248.636,118.6v1.956a3.955,3.955,0,0,1-.035.523,6.352,6.352,0,0,1-1.109,2.681,8.315,8.315,0,0,1-2.747,2.53,6.4,6.4,0,0,1-.9.417,5.33,5.33,0,0,1-.979.272,4.085,4.085,0,0,0,2.966-.086,6.4,6.4,0,0,0,.9-.417,8.316,8.316,0,0,0,2.747-2.53,6.351,6.351,0,0,0,1.109-2.681,3.96,3.96,0,0,0,.035-.526v-1.956a3.063,3.063,0,0,1-1.987-.786Z" transform="translate(-242.861 -117.995)" fill="#fed1a3" fill-rule="evenodd"/>
        </g>
        <g id="Group_1177236" data-name="Group 1177236" transform="translate(14.564 15.578)">
          <path id="Path_1036532" data-name="Path 1036532" d="M143.351,151.712c.568-.21,1.227-.771,1.5-.018l.313,1.1,1.337-.783a7.768,7.768,0,0,1-.417-.68,5.847,5.847,0,0,1-.689-2,6.455,6.455,0,0,1-1.088.523,4.13,4.13,0,0,1-3.205,0,6.746,6.746,0,0,1-.9-.417,5.2,5.2,0,0,1-.571,1.2c.84.588,2.712,1.454,3.729,1.079Z" transform="translate(-139.622 -149.33)" fill="#ea9a58" fill-rule="evenodd"/>
        </g>
        <g id="Group_1177237" data-name="Group 1177237" transform="translate(38.519 17.646)">
          <path id="Path_1036533" data-name="Path 1036533" d="M369.259,170.38c2.067.582,4.086,1.416,4.086,4.386v.987h1.564a.517.517,0,0,0,.517-.514v-1.69c0-2.97-2.02-3.8-4.086-4.386Z" transform="translate(-369.259 -169.162)" fill="#0182fc" fill-rule="evenodd"/>
        </g>
        <g id="Group_1177238" data-name="Group 1177238" transform="translate(17.761 22.747)">
          <path id="Path_1036534" data-name="Path 1036534" d="M170.781,224.657h16.843a.515.515,0,0,0,.514-.514v-1.69a3.86,3.86,0,0,0-1.061-2.9,6.815,6.815,0,0,0-3.031-1.489l-3.977,2.332a1.312,1.312,0,0,1-1.736,0l-3.974-2.332a6.815,6.815,0,0,0-3.031,1.489,3.859,3.859,0,0,0-1.061,2.9v1.69a.515.515,0,0,0,.514.514Z" transform="translate(-170.267 -218.063)" fill="#fd4755" fill-rule="evenodd"/>
        </g>
        <g id="Group_1177239" data-name="Group 1177239" transform="translate(23.677 20.788)">
          <path id="Path_1036535" data-name="Path 1036535" d="M231.406,201.185a2.154,2.154,0,0,0,1.446,1.221l1.987-1.167c-.37-.1-.739-.2-1.1-.3-.843-.231-1.065-1.312-1.236-1.664-.118.065-.237.127-.358.186-.18.086-.364.163-.547.231a4.086,4.086,0,0,1-2.966.086c-.08-.027-.16-.056-.24-.086-.059-.021-.115-.044-.174-.068a6.348,6.348,0,0,1-.73-.349,6.071,6.071,0,0,1-.512,1.114c-.065.095,2.874,1.206,4.027.712C231.333,200.964,231.285,200.86,231.406,201.185Z" transform="translate(-226.976 -199.279)" fill="#ffbc85" fill-rule="evenodd"/>
        </g>
        <g id="Group_1177240" data-name="Group 1177240" transform="translate(29.553 22.748)">
          <path id="Path_1036536" data-name="Path 1036536" d="M284.341,219.553a5.344,5.344,0,0,1,2,1.164,3.878,3.878,0,0,1,1.061,2.9v1.037h1.473a.515.515,0,0,0,.514-.514v-1.69a3.86,3.86,0,0,0-1.062-2.9,6.815,6.815,0,0,0-3.031-1.49l-1.987,1.167c.151.041.3.086.455.133C283.96,219.423,284.152,219.485,284.341,219.553Z" transform="translate(-283.312 -218.064)" fill="#e41e2b" fill-rule="evenodd"/>
        </g>
        <g id="Group_1177241" data-name="Group 1177241" transform="translate(0 0.001)">
          <path id="Path_1036537" data-name="Path 1036537" d="M56.305,278.449H48.314c-.187-2.137-.86-2.65-2.868-3.9-.614-.383-1.376-.86-2.318-1.518a5.755,5.755,0,0,1-1.718-2.25l-4.252-9.93a.9.9,0,0,1,.383-1.257c.363-.167.879-.085,1.234.644l.01.021,2.75,5.231a6.973,6.973,0,0,0,1.538,1.866c.175.165.355.336.533.517l.038.036,4.042,3.606c.017.015.035.03.053.044a2.061,2.061,0,0,0,2.876-.189,2.028,2.028,0,0,0-.088-2.794c-.425-.458-.7-.781-1.026-1.155-.212-.246-.451-.524-.765-.877-.613-.7-.708-1.42-.246-1.887a1.422,1.422,0,0,1,1.964.08l3.625,4.367c1.172,1.412,1.172,3.762,1.172,5.836,0,.236,0,.468,0,.693a.782.782,0,0,0,.782.776h.006a.782.782,0,0,0,.776-.789c0-.221,0-.449,0-.681,0-2.223,0-4.989-1.533-6.835l-3.67-4.421a.766.766,0,0,0-.092-.094,2.978,2.978,0,0,0-4.144-.032,2.831,2.831,0,0,0,.187,4.022c.308.347.544.621.752.863.334.387.622.722,1.07,1.2l.013.014a.479.479,0,0,1,.039.679c-.178.2-.44.2-.74-.016L44.7,266.751c-.192-.195-.377-.37-.556-.539a5.491,5.491,0,0,1-1.228-1.457l-2.745-5.221a2.431,2.431,0,1,0-4.457,1.927l4.253,9.931a7.257,7.257,0,0,0,2.22,2.888l.026.019c.981.686,1.767,1.177,2.4,1.572,1.7,1.065,2.037,1.273,2.144,2.705a1.683,1.683,0,0,0-1.042,1.554v2.636a1.684,1.684,0,0,0,1.681,1.684h8.906a1.684,1.684,0,0,0,1.681-1.684V280.13a1.683,1.683,0,0,0-1.681-1.681Zm.117,4.317a.121.121,0,0,1-.117.119H47.4a.121.121,0,0,1-.117-.119v-2.636a.119.119,0,0,1,.117-.116h8.906a.119.119,0,0,1,.117.116Z" transform="translate(-31.782 -231.041)"/>
          <path id="Path_1036538" data-name="Path 1036538" d="M288.265,258.163a2.453,2.453,0,0,0-3.285,1.369l-2.745,5.221a5.489,5.489,0,0,1-1.228,1.457c-.179.169-.364.345-.556.539l-3.994,3.563c-.3.213-.562.219-.74.016a.48.48,0,0,1,.037-.679l.012-.013c.461-.5.759-.842,1.1-1.241.2-.236.428-.5.72-.827a2.83,2.83,0,0,0,.188-4.021,2.977,2.977,0,0,0-4.144.031.776.776,0,0,0-.092.094l-3.669,4.421c-1.534,1.847-1.534,4.613-1.534,6.835,0,.165,0,.329,0,.489a.782.782,0,0,0,.779.785h0a.782.782,0,0,0,.782-.779q0-.243,0-.495c0-2.073,0-4.423,1.173-5.835l3.625-4.367a1.421,1.421,0,0,1,1.964-.08c.461.467.366,1.191-.248,1.887-.3.337-.525.6-.731.841-.347.4-.621.72-1.06,1.193a2.029,2.029,0,0,0-.084,2.794,2.062,2.062,0,0,0,2.876.189c.018-.014.036-.028.053-.043l4.042-3.606.038-.036c.178-.181.358-.352.533-.517a6.972,6.972,0,0,0,1.538-1.865l2.75-5.231.011-.021c.355-.728.87-.809,1.233-.643a.9.9,0,0,1,.385,1.257l-4.255,9.931a5.7,5.7,0,0,1-1.717,2.249c-.942.659-1.7,1.136-2.318,1.519-2.007,1.255-2.68,1.768-2.866,3.9H268.85a1.683,1.683,0,0,0-1.681,1.681v2.636a1.684,1.684,0,0,0,1.681,1.684h8.906a1.684,1.684,0,0,0,1.681-1.684v-2.636a1.683,1.683,0,0,0-1.042-1.554c.107-1.432.439-1.64,2.142-2.7.631-.395,1.417-.887,2.4-1.573l.024-.017a7.2,7.2,0,0,0,2.222-2.89l4.255-9.93A2.462,2.462,0,0,0,288.265,258.163Zm-10.392,24.6a.121.121,0,0,1-.117.119H268.85a.121.121,0,0,1-.117-.119v-2.636a.119.119,0,0,1,.117-.116h8.906a.119.119,0,0,1,.117.116v2.636Z" transform="translate(-239.3 -231.039)"/>
          <path id="Path_1036539" data-name="Path 1036539" d="M465.665,96.5h-3.74a.782.782,0,0,0,0,1.565h3.74a.782.782,0,0,0,0-1.565Z" transform="translate(-413.039 -86.433)"/>
          <path id="Path_1036540" data-name="Path 1036540" d="M447.071,19.636a.779.779,0,0,0,.478-.164l3.1-2.4a.782.782,0,1,0-.958-1.237l-3.1,2.4a.782.782,0,0,0,.479,1.4Z" transform="translate(-399.734 -14.034)"/>
          <path id="Path_1036541" data-name="Path 1036541" d="M450.654,156.833l-3.1-2.4a.782.782,0,1,0-.958,1.237l3.1,2.4a.782.782,0,1,0,.958-1.237Z" transform="translate(-399.734 -138.174)"/>
          <path id="Path_1036542" data-name="Path 1036542" d="M5.3,97.281A.782.782,0,0,0,4.52,96.5H.782a.782.782,0,0,0,0,1.565H4.52A.782.782,0,0,0,5.3,97.281Z" transform="translate(0 -86.433)"/>
          <path id="Path_1036543" data-name="Path 1036543" d="M21.223,17.068l3.1,2.4a.782.782,0,1,0,.958-1.237l-3.1-2.4a.782.782,0,0,0-.958,1.237Z" transform="translate(-18.738 -14.032)"/>
          <path id="Path_1036544" data-name="Path 1036544" d="M25.426,154.571a.782.782,0,0,0-1.1-.14l-3.1,2.4a.782.782,0,1,0,.958,1.237l3.1-2.4A.782.782,0,0,0,25.426,154.571Z" transform="translate(-18.738 -138.175)"/>
          <path id="Path_1036545" data-name="Path 1036545" d="M96.655,28.559a.782.782,0,0,0,0,1.565h6.508a1.3,1.3,0,0,0,1.3-1.3V27.136a5.363,5.363,0,0,0-.391-2.117h8.145a1.3,1.3,0,0,0,1.3-1.3V22.032c0-3.48-2.466-4.511-4.6-5.121a.78.78,0,0,0-.093-.027c-.225-.063-.445-.122-.658-.179l-.417-.112c-.206-.057-.359-.323-.474-.591,2.124-1.433,3.708-3.9,3.708-6.055V7.991a8.15,8.15,0,0,0-2.228-5.919A7.09,7.09,0,0,0,103.809,0h-.025a7.136,7.136,0,0,0-6.855,5.472A7.288,7.288,0,0,0,94.755,5.1h-.026a7.285,7.285,0,0,0-2.173.368A7.139,7.139,0,0,0,85.7,0h-.025a7.09,7.09,0,0,0-4.941,2.072,8.15,8.15,0,0,0-2.228,5.919V9.948c0,2.152,1.584,4.623,3.707,6.056-.115.268-.267.533-.472.59l-.418.112c-.2.054-.411.11-.623.169a.789.789,0,0,0-.136.038c-2.135.61-4.595,1.644-4.595,5.119v1.691a1.3,1.3,0,0,0,1.3,1.3h8.148a5.363,5.363,0,0,0-.391,2.117v1.691a1.3,1.3,0,0,0,1.3,1.3h6.813a.782.782,0,0,0,0-1.565H86.589V27.136c0-2.183,1.193-2.926,3.212-3.539l3.663,2.149a2.068,2.068,0,0,0,2.556,0L99.684,23.6c2.019.613,3.212,1.356,3.212,3.539v1.422h-6.24ZM109.413,9.948c0,2.04-2,4.573-4.286,5.42a3.375,3.375,0,0,1-2.663,0,5.743,5.743,0,0,1-.542-.236c0-.027,0-.054,0-.08V13.1a8.322,8.322,0,0,0-1.832-5.483c.066-.065.127-.127.185-.186.4-.412.477-.487.915-.373.314.081.582.153.816.215a7,7,0,0,0,1.79.345,6.978,6.978,0,0,0,1.784-.344c.234-.063.5-.135.818-.216.439-.113.511-.039.915.372a3.92,3.92,0,0,0,2.1,1.243Zm-2.651,7.894L104.268,19.3l-.031.019c-.413.268-.471.268-.884,0l-.03-.019-2.244-1.315a7.44,7.44,0,0,0,.558-1.264c.093.039.187.077.282.113a4.928,4.928,0,0,0,3.753,0c.073-.027.146-.056.218-.086A2.6,2.6,0,0,0,106.762,17.842ZM103.8,1.565a5.706,5.706,0,0,1,5.566,5.46,2.647,2.647,0,0,1-.932-.7,2.235,2.235,0,0,0-2.423-.791c-.32.083-.593.156-.831.219a6.247,6.247,0,0,1-1.38.291,6.248,6.248,0,0,1-1.386-.292c-.237-.063-.51-.136-.828-.218a2.235,2.235,0,0,0-2.424.793c-.068.07-.136.137-.2.2q-.28-.211-.578-.393A5.63,5.63,0,0,1,103.8,1.565Zm-9.054,5.1a5.711,5.711,0,0,1,5.566,5.46,2.642,2.642,0,0,1-.93-.7,2.325,2.325,0,0,0-1.738-.885,2.769,2.769,0,0,0-.687.093c-.316.082-.586.154-.822.217a6.25,6.25,0,0,1-1.389.293,6.25,6.25,0,0,1-1.389-.293c-.236-.063-.506-.136-.824-.218a2.239,2.239,0,0,0-2.423.793,2.641,2.641,0,0,1-.93.7,5.711,5.711,0,0,1,5.566-5.46Zm5.616,7.1v1.28c0,2.04-2,4.573-4.287,5.42a3.363,3.363,0,0,1-2.66,0c-2.283-.847-4.286-3.379-4.286-5.42v-1.28a3.916,3.916,0,0,0,2.1-1.242c.4-.412.477-.486.915-.374.311.081.578.152.81.214a4.822,4.822,0,0,0,3.586,0c.232-.062.5-.134.808-.214.441-.113.514-.039.918.373A3.916,3.916,0,0,0,100.359,13.771ZM85.688,1.565A5.634,5.634,0,0,1,91.108,6.14a6.989,6.989,0,0,0-.578.393c-.068-.066-.136-.133-.2-.2A2.239,2.239,0,0,0,87.9,5.537c-.316.082-.586.154-.822.217a6.246,6.246,0,0,1-1.389.293,6.239,6.239,0,0,1-1.38-.291c-.238-.064-.511-.137-.832-.219a2.238,2.238,0,0,0-2.421.792,2.646,2.646,0,0,1-.932.7A5.706,5.706,0,0,1,85.688,1.565ZM80.072,9.948V8.669a3.913,3.913,0,0,0,2.1-1.243c.4-.412.477-.485.915-.373.315.081.584.153.818.216a6.982,6.982,0,0,0,1.784.344,6.992,6.992,0,0,0,1.793-.346c.232-.062.5-.134.809-.214.441-.113.514-.039.919.374.058.059.119.121.185.186a8.322,8.322,0,0,0-1.832,5.483v1.957c0,.026,0,.053,0,.08a5.682,5.682,0,0,1-.545.236,3.363,3.363,0,0,1-2.66,0c-2.283-.847-4.286-3.379-4.286-5.42Zm8.334,8.037L86.161,19.3l-.03.019c-.413.268-.471.268-.884,0l-.03-.019-2.492-1.461a2.654,2.654,0,0,0,.869-1.091q.109.045.219.086a4.914,4.914,0,0,0,3.75,0c.1-.035.191-.074.286-.113a7.418,7.418,0,0,0,.558,1.263ZM90.793,21.7l-.417.112a9.634,9.634,0,0,0-3.8,1.645H77.535V22.032c0-2.182,1.193-2.926,3.213-3.539l3.664,2.148a2.065,2.065,0,0,0,2.556,0l2.317-1.359a9.249,9.249,0,0,0,1.983,1.824C91.153,21.374,91,21.64,90.793,21.7Zm4.42,2.707-.03.019c-.416.27-.466.27-.886,0l-.029-.018-2.492-1.462a2.653,2.653,0,0,0,.871-1.091c.073.03.146.059.219.087a4.914,4.914,0,0,0,3.75,0c.074-.027.147-.057.22-.087a2.654,2.654,0,0,0,.87,1.09Zm3.9-2.6-.416-.112c-.208-.057-.361-.323-.476-.592a9.255,9.255,0,0,0,1.983-1.822l2.318,1.358a2.065,2.065,0,0,0,2.556,0l3.671-2.146c2.016.613,3.206,1.357,3.206,3.537v1.422h-9.043A9.633,9.633,0,0,0,99.108,21.809Z" transform="translate(-68.045 -0.001)"/>
        </g>
      </g>
    </g>
  </g>
</svg>
