<svg xmlns="http://www.w3.org/2000/svg" xmlns:xlink="http://www.w3.org/1999/xlink" width="93.934" height="93.934" viewBox="0 0 93.934 93.934">
  <defs>
    <filter id="Path_982547" x="0" y="0" width="93.934" height="93.934" filterUnits="userSpaceOnUse">
      <feOffset dy="3" input="SourceAlpha"/>
      <feGaussianBlur stdDeviation="3" result="blur"/>
      <feFlood flood-opacity="0.161"/>
      <feComposite operator="in" in2="blur"/>
      <feComposite in="SourceGraphic"/>
    </filter>
  </defs>
  <g id="Group_1177560" data-name="Group 1177560" transform="translate(-189.033 -704)">
    <g id="Group_1176910" data-name="Group 1176910" transform="translate(0 -309)">
      <g id="Group_1176309" data-name="Group 1176309" transform="translate(0 -973)">
        <g id="Group_1172970" data-name="Group 1172970" transform="translate(-1 -9042)">
          <g id="Group_1171971" data-name="Group 1171971" transform="translate(199.033 11034)">
            <g id="Group_1167337" data-name="Group 1167337" transform="translate(0)">
              <g id="Group_1166720" data-name="Group 1166720">
                <g id="Group_1164305" data-name="Group 1164305">
                  <g id="Group_1163948" data-name="Group 1163948">
                    <g id="Group_1158168" data-name="Group 1158168">
                      <g id="Group_1152576" data-name="Group 1152576">
                        <g id="Group_1148633" data-name="Group 1148633">
                          <g id="Group_1148525" data-name="Group 1148525">
                            <g transform="matrix(1, 0, 0, 1, -9, -6)" filter="url(#Path_982547)">
                              <g id="Path_982547-2" data-name="Path 982547" transform="translate(9 6)" fill="#e9f9fd">
                                <path d="M 37.966796875 74.43359375 C 33.04315185546875 74.43359375 28.26757431030273 73.46962738037109 23.77274131774902 71.56847381591797 C 19.43047523498535 69.73184967041016 15.53040790557861 67.10224914550781 12.18087482452393 63.75271987915039 C 8.831341743469238 60.4031867980957 6.201741218566895 56.50312042236328 4.365118980407715 52.16086196899414 C 2.463963508605957 47.66601943969727 1.499996900558472 42.89044189453125 1.499996900558472 37.966796875 C 1.499996900558472 33.04315185546875 2.463963508605957 28.26757431030273 4.365118980407715 23.77274131774902 C 6.201741218566895 19.43047523498535 8.831341743469238 15.53040790557861 12.18087482452393 12.18087482452393 C 15.53040790557861 8.831341743469238 19.43047523498535 6.201741218566895 23.77274131774902 4.365118980407715 C 28.26757431030273 2.463963508605957 33.04315185546875 1.499996900558472 37.966796875 1.499996900558472 C 42.89044189453125 1.499996900558472 47.66601943969727 2.463963508605957 52.16086196899414 4.365118980407715 C 56.50312042236328 6.201741218566895 60.4031867980957 8.831341743469238 63.75271987915039 12.18087482452393 C 67.10224914550781 15.53040790557861 69.73184967041016 19.43047523498535 71.56847381591797 23.77274131774902 C 73.46962738037109 28.26757431030273 74.43359375 33.04315185546875 74.43359375 37.966796875 C 74.43359375 42.89044189453125 73.46962738037109 47.66601943969727 71.56847381591797 52.16086196899414 C 69.73184967041016 56.50313186645508 67.10224914550781 60.4031867980957 63.75271987915039 63.75271987915039 C 60.4031867980957 67.10224914550781 56.50313186645508 69.73184967041016 52.16086196899414 71.56847381591797 C 47.66601943969727 73.46962738037109 42.89044189453125 74.43359375 37.966796875 74.43359375 Z" stroke="none"/>
                                <path d="M 37.966796875 3 C 33.2449836730957 3 28.66600799560547 3.924095153808594 24.35705947875977 5.746635437011719 C 20.19359588623047 7.507637023925781 16.45379638671875 10.02928161621094 13.24153518676758 13.24153518676758 C 10.02927398681641 16.45379638671875 7.507621765136719 20.19359588623047 5.746635437011719 24.35705947875977 C 3.924095153808594 28.66600799560547 3 33.2449836730957 3 37.966796875 C 3 42.6886100769043 3.924095153808594 47.26758575439453 5.746635437011719 51.57653427124023 C 7.507621765136719 55.73999786376953 10.02927398681641 59.47979736328125 13.24153518676758 62.69205856323242 C 16.45379638671875 65.90431976318359 20.19359588623047 68.42597198486328 24.35705947875977 70.18695831298828 C 28.66600799560547 72.00949859619141 33.2449836730957 72.93359375 37.966796875 72.93359375 C 42.6886100769043 72.93359375 47.26758575439453 72.00949859619141 51.57653427124023 70.18695831298828 C 55.73999786376953 68.42597198486328 59.47979736328125 65.90431976318359 62.69205856323242 62.69205856323242 C 65.90431976318359 59.47979736328125 68.42597198486328 55.73999786376953 70.18695831298828 51.57653427124023 C 72.00949859619141 47.26758575439453 72.93359375 42.6886100769043 72.93359375 37.966796875 C 72.93359375 33.2449836730957 72.00949859619141 28.66600799560547 70.18695831298828 24.35705947875977 C 68.42597198486328 20.19359588623047 65.90431976318359 16.45379638671875 62.69205856323242 13.24153518676758 C 59.47979736328125 10.02928161621094 55.73999786376953 7.507637023925781 51.57653427124023 5.746635437011719 C 47.26758575439453 3.924095153808594 42.6886100769043 3 37.966796875 3 M 37.966796875 0 C 58.93528366088867 0 75.93359375 16.99832153320312 75.93359375 37.966796875 C 75.93359375 58.93528366088867 58.93528366088867 75.93359375 37.966796875 75.93359375 C 16.99831008911133 75.93359375 0 58.93528366088867 0 37.966796875 C 0 16.99832153320312 16.99831008911133 0 37.966796875 0 Z" stroke="none" fill="#1d7083"/>
                              </g>
                            </g>
                          </g>
                        </g>
                      </g>
                    </g>
                  </g>
                </g>
              </g>
            </g>
          </g>
        </g>
      </g>
      <g id="surface1" transform="translate(210.57 1033.255)">
        <path id="Path_1038313" data-name="Path 1038313" d="M234.178,12.894l-2.057,22.619-.008.1a2.9,2.9,0,0,1-3.152,2.627l-15.5-1.408-.386-.035a2.591,2.591,0,0,1-1.746-.91L206.3,29.923a2.584,2.584,0,0,1-.6-1.908l1.569-17.257a2.9,2.9,0,0,1,3.152-2.627l.1.01,21.312,1.936a2.591,2.591,0,0,1,2.347,2.817Zm0,0" transform="translate(-186.058 -6.892)" fill="#ffc14f"/>
        <path id="Path_1038314" data-name="Path 1038314" d="M258.922,16.453l-2.057,22.619-.008.1A2.9,2.9,0,0,1,253.7,41.8l-15.5-1.408-4.521-5.356a2.723,2.723,0,0,1-.633-2.011L234.7,14.836a3.058,3.058,0,0,1,3.322-2.769l.109.01,19.195,1.745A2.6,2.6,0,0,1,258.922,16.453Zm0,0" transform="translate(-210.801 -10.451)" fill="#ffcd71"/>
        <path id="Path_1038315" data-name="Path 1038315" d="M38.512,190.871l-13.883,4.487-1.294.419a2.59,2.59,0,0,1-1.963-.151L14.4,192.117a2.579,2.579,0,0,1-1.3-1.519L7.774,174.11a2.9,2.9,0,0,1,1.868-3.654l.1-.031,1.424-.46L30.1,163.843a2.591,2.591,0,0,1,3.263,1.67l6.985,21.611.03.092A2.9,2.9,0,0,1,38.512,190.871Zm0,0" transform="translate(-6.903 -147.642)" fill="#1ed688"/>
        <path id="Path_1038316" data-name="Path 1038316" d="M66.077,190.871l-13.883,4.487-6.9-3.473a2.748,2.748,0,0,1-1.38-1.612l-5.657-17.5a3.075,3.075,0,0,1,.473-2.8l18.939-6.122a2.591,2.591,0,0,1,3.263,1.67l6.985,21.611.03.092A2.9,2.9,0,0,1,66.077,190.871Zm0,0" transform="translate(-34.468 -147.642)" fill="#7af4ab"/>
        <path id="Path_1038317" data-name="Path 1038317" d="M60.381,411.024l-.483-1.494,6.211-2.007a2.6,2.6,0,0,1,3.276,1.675l2.166,6.7-.939.3a2.587,2.587,0,0,1-1.962-.151l-6.968-3.509A2.589,2.589,0,0,1,60.381,411.024Zm0,0" transform="translate(-54.182 -368.067)" fill="#1ab975"/>
        <path id="Path_1038318" data-name="Path 1038318" d="M64.6,218.276,45.354,224.5a.728.728,0,0,0,.222,1.419c.217,0-.984.342,19.474-6.258a.727.727,0,1,0-.447-1.384Zm0,0" transform="translate(-40.571 -196.962)"/>
        <path id="Path_1038319" data-name="Path 1038319" d="M194.976,267.843l-7.259,2.347a.727.727,0,0,0,.447,1.384l7.259-2.347a.727.727,0,0,0-.447-1.384Zm0,0" transform="translate(-169.348 -241.8)"/>
        <path id="Path_1038320" data-name="Path 1038320" d="M163.387,302.164h0Zm0,0" transform="translate(-147.791 -272.878)"/>
        <path id="Path_1038321" data-name="Path 1038321" d="M61.587,305.7a.728.728,0,0,0,.692.505c.217,0-.3.12,9.448-3.017a.727.727,0,1,0-.447-1.383l-.006,0h0l-9.212,2.977A.727.727,0,0,0,61.587,305.7Zm9.69-3.894h0Zm0,0Zm0,0" transform="translate(-55.678 -272.523)"/>
        <path id="Path_1038322" data-name="Path 1038322" d="M79.009,325.051c.218,0-.984.341,19.474-6.258a.727.727,0,0,0-.447-1.384l-19.249,6.222a.727.727,0,0,0,.222,1.419Zm0,0" transform="translate(-70.811 -286.636)"/>
        <path id="Path_1038323" data-name="Path 1038323" d="M45.84,2.462h0L24.426.515A3.626,3.626,0,0,0,20.483,3.8L19.312,16.694,7.789,20.419A.727.727,0,0,0,8.236,21.8c16.6-5.368,15.338-5,15.76-5a1.862,1.862,0,0,1,1.775,1.292c0,.016,7.121,21.9,7.121,22.374a2.166,2.166,0,0,1-1.506,2.068L17.838,46.916,15.9,40.906A3.326,3.326,0,0,0,11.7,38.763L6.184,40.547C1.391,25.6,1.456,26.2,1.456,25.576a2.168,2.168,0,0,1,1.506-2.069l2.508-.81a.727.727,0,1,0-.448-1.383l-2.506.81A3.622,3.622,0,0,0,.178,26.692s4.845,14.99,5.329,16.488a3.34,3.34,0,0,0,1.665,1.945c7.406,3.728,7.343,3.864,8.457,3.864a3.423,3.423,0,0,0,1.025-.162l15.177-4.906a3.618,3.618,0,0,0,2.514-3.453c0-.991-.15-.851-2.865-9.431,11.944,1.081,11.391,1.048,11.692,1.048a3.628,3.628,0,0,0,3.607-3.3l.008-.093,2.057-22.62A3.317,3.317,0,0,0,45.84,2.462ZM16.208,47.443a1.9,1.9,0,0,1-1.412-.109L7.827,43.825a1.875,1.875,0,0,1-.935-1.092l-.259-.8,5.519-1.784a1.873,1.873,0,0,1,2.361,1.207l1.942,6.01ZM47.4,5.936,45.34,28.559l-.008.093a2.173,2.173,0,0,1-2.363,1.969L31,29.534,27.154,17.648A3.311,3.311,0,0,0,24,15.349c-.841,0-1.241.271-3.18.859L21.932,3.932a2.173,2.173,0,0,1,2.36-1.969L45.708,3.909A1.865,1.865,0,0,1,47.4,5.936Zm0,0" transform="translate(0)"/>
        <path id="Path_1038324" data-name="Path 1038324" d="M268.184,63.958l-20.146-1.831a.727.727,0,1,0-.135,1.448l20.149,1.831a.727.727,0,0,0,.132-1.448Zm0,0" transform="translate(-223.65 -55.743)"/>
        <path id="Path_1038325" data-name="Path 1038325" d="M413.063,128.992h0Zm0,0" transform="translate(-373.646 -116.231)"/>
        <path id="Path_1038326" data-name="Path 1038326" d="M412.99,128.985h0Zm0,0" transform="translate(-373.574 -116.223)"/>
        <path id="Path_1038327" data-name="Path 1038327" d="M260.075,116.472a.727.727,0,0,0-.658-.79l-.016,0h0l-.015,0h-.015l-15.4-1.4a.727.727,0,1,0-.134,1.448l15.448,1.4A.727.727,0,0,0,260.075,116.472Zm-.7-.793h0Zm-.012,0Zm0,0" transform="translate(-219.972 -102.918)"/>
        <path id="Path_1038328" data-name="Path 1038328" d="M413.149,129h0Zm0,0" transform="translate(-373.72 -116.238)"/>
        <path id="Path_1038329" data-name="Path 1038329" d="M437.993,131.912l-1.805-.164a.727.727,0,0,0-.132,1.448l1.805.164a.727.727,0,1,0,.132-1.448Zm0,0" transform="translate(-393.846 -118.721)"/>
        <path id="Path_1038330" data-name="Path 1038330" d="M315.013,173.26l-14.35-1.3a.727.727,0,0,0-.132,1.448l14.35,1.3a.727.727,0,0,0,.132-1.448Zm0,0" transform="translate(-271.254 -155.092)"/>
      </g>
    </g>
  </g>
</svg>
