<svg xmlns="http://www.w3.org/2000/svg" xmlns:xlink="http://www.w3.org/1999/xlink" width="113" height="113" viewBox="0 0 113 113">
  <defs>
    <filter id="Path_982547" x="0" y="0" width="113" height="113" filterUnits="userSpaceOnUse">
      <feOffset dy="3" input="SourceAlpha"/>
      <feGaussianBlur stdDeviation="3" result="blur"/>
      <feFlood flood-opacity="0.161"/>
      <feComposite operator="in" in2="blur"/>
      <feComposite in="SourceGraphic"/>
    </filter>
  </defs>
  <g id="Group_1177591" data-name="Group 1177591" transform="translate(-7641 -1164.785)">
    <g id="Group_1177544" data-name="Group 1177544">
      <g id="Group_1177338" data-name="Group 1177338" transform="translate(6847.51 -324.65)">
        <g id="Group_1176922" data-name="Group 1176922" transform="translate(802.49 1495.435)">
          <g id="Group_1172322" data-name="Group 1172322" transform="translate(0 0)">
            <g id="Group_1164700" data-name="Group 1164700">
              <g id="Group_1160931" data-name="Group 1160931">
                <g id="Group_1160749" data-name="Group 1160749">
                  <g id="Group_1158891" data-name="Group 1158891">
                    <g id="Group_1157406" data-name="Group 1157406">
                      <g id="Group_1155793" data-name="Group 1155793">
                        <g id="Group_1154704" data-name="Group 1154704">
                          <g id="Group_1150790" data-name="Group 1150790">
                            <g id="Group_1154214" data-name="Group 1154214">
                              <g id="Group_1152583" data-name="Group 1152583">
                                <g id="Group_1146973" data-name="Group 1146973">
                                  <g id="Group_1146954" data-name="Group 1146954">
                                    <g transform="matrix(1, 0, 0, 1, -9, -6)" filter="url(#Path_982547)">
                                      <g id="Path_982547-2" data-name="Path 982547" transform="translate(9 6)" fill="#f2f7e5">
                                        <path d="M 47.5000114440918 93.49987030029297 C 41.28938293457031 93.49987030029297 35.26534652709961 92.28384399414062 29.5951976776123 89.88558959960938 C 24.11773109436035 87.56881713867188 19.19814491271973 84.25183868408203 14.97310447692871 80.02680206298828 C 10.74805164337158 75.80176544189453 7.43107795715332 70.88218688964844 5.114304542541504 65.40472412109375 C 2.716038227081299 59.73458862304688 1.500011444091797 53.71054840087891 1.500011444091797 47.49993515014648 C 1.500011444091797 41.28932189941406 2.716038227081299 35.26528167724609 5.114304542541504 29.59514808654785 C 7.43107795715332 24.1176815032959 10.74805164337158 19.1981086730957 14.97310447692871 14.97306823730469 C 19.19814491271973 10.74802875518799 24.11773109436035 7.431055068969727 29.5951976776123 5.11428165435791 C 35.26534652709961 2.716028451919556 41.28938293457031 1.500001788139343 47.5000114440918 1.500001788139343 C 53.71063995361328 1.500001788139343 59.73467636108398 2.716028451919556 65.40482330322266 5.11428165435791 C 70.88229370117188 7.431055068969727 75.8018798828125 10.74802875518799 80.02691650390625 14.97306823730469 C 84.25196838378906 19.1981086730957 87.56894683837891 24.1176815032959 89.88571929931641 29.59514808654785 C 92.28398132324219 35.26528167724609 93.50001525878906 41.28932189941406 93.50001525878906 47.49993515014648 C 93.50001525878906 53.71054840087891 92.28398132324219 59.73458862304688 89.88571929931641 65.40472412109375 C 87.56894683837891 70.88218688964844 84.25196838378906 75.80176544189453 80.02691650390625 80.02680206298828 C 75.8018798828125 84.25183868408203 70.88229370117188 87.56881713867188 65.40482330322266 89.88558959960938 C 59.73467636108398 92.28384399414062 53.71063995361328 93.49987030029297 47.5000114440918 93.49987030029297 Z" stroke="none"/>
                                        <path d="M 47.5000114440918 3 C 41.49122619628906 3 35.66378021240234 4.1761474609375 30.17951965332031 6.495796203613281 C 24.880859375 8.7369384765625 20.12153625488281 11.94596862792969 16.03376770019531 16.03373718261719 C 11.94598388671875 20.12149047851562 8.736968994140625 24.88081359863281 6.495811462402344 30.17947387695312 C 4.176162719726562 35.66371917724609 3.000007629394531 41.49116516113281 3.000007629394531 47.49993515014648 C 3.000007629394531 53.50870513916016 4.176162719726562 59.33615112304688 6.495811462402344 64.82039642333984 C 8.736968994140625 70.11905670166016 11.94598388671875 74.87837982177734 16.03376770019531 78.96613311767578 C 20.12153625488281 83.05390167236328 24.880859375 86.26293182373047 30.17951965332031 88.50407409667969 C 35.66378021240234 90.82372283935547 41.49122619628906 91.99987030029297 47.5000114440918 91.99987030029297 C 53.50879669189453 91.99987030029297 59.33624267578125 90.82372283935547 64.82050323486328 88.50407409667969 C 70.11916351318359 86.26293182373047 74.87848663330078 83.05390167236328 78.96625518798828 78.96613311767578 C 83.05403900146484 74.87837982177734 86.2630615234375 70.11905670166016 88.50421142578125 64.82039642333984 C 90.82386016845703 59.33615112304688 92.00001525878906 53.50870513916016 92.00001525878906 47.49993515014648 C 92.00001525878906 41.49116516113281 90.82386016845703 35.66371917724609 88.50421142578125 30.17947387695312 C 86.2630615234375 24.88081359863281 83.05403900146484 20.12149047851562 78.96625518798828 16.03373718261719 C 74.87848663330078 11.94596862792969 70.11916351318359 8.7369384765625 64.82050323486328 6.495796203613281 C 59.33624267578125 4.1761474609375 53.50879669189453 3 47.5000114440918 3 M 47.5000114440918 0 C 73.73353576660156 0 95.00001525878906 21.26644134521484 95.00001525878906 47.49993515014648 C 95.00001525878906 73.73342895507812 73.73353576660156 94.99987030029297 47.5000114440918 94.99987030029297 C 21.26648712158203 94.99987030029297 7.62939453125e-06 73.73342895507812 7.62939453125e-06 47.49993515014648 C 7.62939453125e-06 21.26644134521484 21.26648712158203 0 47.5000114440918 0 Z" stroke="none" fill="#86b60c"/>
                                      </g>
                                    </g>
                                  </g>
                                </g>
                              </g>
                            </g>
                          </g>
                        </g>
                      </g>
                    </g>
                  </g>
                </g>
              </g>
            </g>
          </g>
        </g>
      </g>
      <g id="people_2709133" transform="translate(7654.075 1175.861)">
        <path id="Path_1038804" data-name="Path 1038804" d="M448,184v10.056h.914a3.657,3.657,0,0,0,3.657-3.657V184Z" transform="translate(-382.635 -148.803)" fill="#ffceb6"/>
        <path id="Path_1038805" data-name="Path 1038805" d="M352,224h10.97v26.511H352Z" transform="translate(-297.605 -184.232)" fill="#718799"/>
        <path id="Path_1038806" data-name="Path 1038806" d="M332.111,106.056v-5.485A4.571,4.571,0,0,0,327.541,96h-10.97A4.571,4.571,0,0,0,312,100.571v5.485h4.571v4.571h10.97v-4.571Z" transform="translate(-262.176 -70.858)" fill="#02c26a"/>
        <path id="Path_1038807" data-name="Path 1038807" d="M312,184v6.4a3.657,3.657,0,0,0,3.657,3.657h.914V184Z" transform="translate(-262.176 -148.803)" fill="#ffceb6"/>
        <path id="Path_1038808" data-name="Path 1038808" d="M341.712,456h-10.97L328,458.742v.914h16.455v-.914Z" transform="translate(-276.348 -389.721)" fill="#e0edff"/>
        <path id="Path_1038809" data-name="Path 1038809" d="M160,184v10.056h.914a3.657,3.657,0,0,0,3.657-3.657V184Z" transform="translate(-127.545 -148.803)" fill="#ffceb6"/>
        <path id="Path_1038810" data-name="Path 1038810" d="M64,224H74.97v26.511H64Z" transform="translate(-42.515 -184.232)" fill="#718799"/>
        <path id="Path_1038811" data-name="Path 1038811" d="M44.111,106.056v-5.485A4.571,4.571,0,0,0,39.541,96H28.571A4.571,4.571,0,0,0,24,100.571v5.485h4.571v4.571h10.97v-4.571Z" transform="translate(-7.086 -70.858)" fill="#02c26a"/>
        <path id="Path_1038812" data-name="Path 1038812" d="M88,56v2.742a2.742,2.742,0,1,0,5.485,0V56Z" transform="translate(-63.772 -35.429)" fill="#ffceb6"/>
        <path id="Path_1038813" data-name="Path 1038813" d="M376,40.914v3.657a2.742,2.742,0,1,0,5.485,0V40.914L380.571,40h-3.657Z" transform="translate(-318.863 -21.258)" fill="#ffceb6"/>
        <path id="Path_1038814" data-name="Path 1038814" d="M88,27.657h5.485v-.914a2.742,2.742,0,1,0-5.485,0Z" transform="translate(-63.772 -7.086)" fill="#b1712c"/>
        <path id="Path_1038815" data-name="Path 1038815" d="M24,184v6.4a3.657,3.657,0,0,0,3.657,3.657h.914V184Z" transform="translate(-7.086 -148.803)" fill="#ffceb6"/>
        <path id="Path_1038816" data-name="Path 1038816" d="M376,27.657v-.914a2.742,2.742,0,1,1,5.485,0v.914l-1.828-.914-1.828.914Z" transform="translate(-318.863 -7.086)" fill="#b1712c"/>
        <path id="Path_1038817" data-name="Path 1038817" d="M53.712,456H42.742L40,458.742v.914H56.455v-.914Z" transform="translate(-21.257 -389.721)" fill="#e0edff"/>
        <path id="Path_1038818" data-name="Path 1038818" d="M188.111,110.627V100.571A4.571,4.571,0,0,0,183.541,96h-10.97A4.571,4.571,0,0,0,168,100.571v10.056h4.571v-.914h10.97v.914Z" transform="translate(-134.631 -70.858)" fill="#ffc431"/>
        <path id="Path_1038819" data-name="Path 1038819" d="M304,224v5.485h.914a3.657,3.657,0,0,0,3.657-3.657V224Z" transform="translate(-255.09 -184.232)" fill="#ffd9c7"/>
        <path id="Path_1038820" data-name="Path 1038820" d="M208,216h10.97v27.425H208Z" transform="translate(-170.06 -177.146)" fill="#718799"/>
        <path id="Path_1038821" data-name="Path 1038821" d="M232,56v2.742a2.742,2.742,0,1,0,5.485,0V56Z" transform="translate(-191.318 -35.429)" fill="#ffceb6"/>
        <path id="Path_1038822" data-name="Path 1038822" d="M168,224v1.828a3.657,3.657,0,0,0,3.657,3.657h.914V224Z" transform="translate(-134.631 -184.232)" fill="#ffd9c7"/>
        <path id="Path_1038823" data-name="Path 1038823" d="M197.712,456h-10.97L184,458.742v.914h16.455v-.914Z" transform="translate(-148.803 -389.721)" fill="#e8f2ff"/>
        <path id="Path_1038824" data-name="Path 1038824" d="M237.485,27.657V24.914a.914.914,0,0,0-.914-.914h-1.828A2.742,2.742,0,0,0,232,26.742v.914Z" transform="translate(-191.318 -7.086)" fill="#b1712c"/>
        <path id="Path_1038825" data-name="Path 1038825" d="M160,29.712V41.6a4.576,4.576,0,0,0,4.571,4.571h.914a.914.914,0,0,0,.914-.914V39.768h5.485V37.94H166.4V29.712h-1.828v9.142h-2.742V29.712a3.661,3.661,0,0,1,3.657-3.657h3.07a3.675,3.675,0,0,0,.658.464l-1.632,1.632,1.293,1.293,1.182-1.182v7.849h1.828V28.263l1.182,1.182,1.293-1.293-1.632-1.632a3.674,3.674,0,0,0,.658-.464h3.07a3.661,3.661,0,0,1,3.657,3.657h1.828a5.491,5.491,0,0,0-5.485-5.485h-1.944a3.652,3.652,0,0,0,.116-.914V17.828A1.83,1.83,0,0,0,172.8,16H170.97a3.661,3.661,0,0,0-3.657,3.657v3.657a3.65,3.65,0,0,0,.116.914h-1.944A5.491,5.491,0,0,0,160,29.712Zm4.571,10.97v3.657a2.746,2.746,0,0,1-2.742-2.742v-.914Zm4.571-19.2H172.8v1.828a1.828,1.828,0,1,1-3.657,0Zm1.828-3.657H172.8v1.828h-3.657A1.83,1.83,0,0,1,170.97,17.828Z" transform="translate(-127.545)"/>
        <path id="Path_1038826" data-name="Path 1038826" d="M296,136h1.828v4.571H296Z" transform="translate(-248.004 -106.288)"/>
        <path id="Path_1038827" data-name="Path 1038827" d="M20.571,46.167V61.708H22.4V40.682h8.227V38.854H22.4V29.712H20.571v4.571H17.828V29.712a3.661,3.661,0,0,1,3.657-3.657h3.07a3.646,3.646,0,0,0,4.83,0h3.07V24.227H30.511a3.651,3.651,0,0,0,.116-.914V19.657a3.657,3.657,0,1,0-7.313,0v3.657a3.651,3.651,0,0,0,.116.914H21.485A5.491,5.491,0,0,0,16,29.712V41.6a4.576,4.576,0,0,0,4.571,4.571Zm6.4-21.026a1.83,1.83,0,0,1-1.828-1.828V21.485H28.8v1.828A1.83,1.83,0,0,1,26.97,25.142Zm0-7.313A1.83,1.83,0,0,1,28.8,19.657H25.142A1.83,1.83,0,0,1,26.97,17.828Zm-6.4,18.283v8.227A2.746,2.746,0,0,1,17.828,41.6V36.111Z"/>
        <path id="Path_1038828" data-name="Path 1038828" d="M104,280.914v9.142h1.828v-9.142a.914.914,0,1,0-1.828,0Z" transform="translate(-77.944 -233.833)"/>
        <path id="Path_1038829" data-name="Path 1038829" d="M152,288h1.828v3.657H152Z" transform="translate(-120.459 -240.919)"/>
        <path id="Path_1038830" data-name="Path 1038830" d="M67.44,26.3H65.99l6.667-6.667-1.293-1.293L18.343,71.364l1.293,1.293,3.389-3.389h5.106V71.1H22.646v1.828H34.53V71.1H29.96V69.268H34.53a.914.914,0,0,0,.914-.914V56.848L39.1,53.192V67.975L36.626,70.45a.914.914,0,0,0-.268.646v.914a.914.914,0,0,0,.914.914H53.728a.914.914,0,0,0,.914-.914V71.1a.914.914,0,0,0-.268-.646L51.9,67.975V48.242a4.576,4.576,0,0,0,4.571-4.571V35.823l7.692-7.692H67.44A3.661,3.661,0,0,1,71.1,31.787v4.571H68.354V31.787H66.526v8.227H58.3v1.828h8.227v25.6H62.869V49.156a.914.914,0,1,0-1.828,0V67.44H57.384V49.156H55.556v19.2a.914.914,0,0,0,.914.914h4.571V71.1H56.47v1.828H70.183a.914.914,0,0,0,.914-.914V71.1a.914.914,0,0,0-.268-.646l-2.475-2.475V48.242a4.576,4.576,0,0,0,4.571-4.571V31.787A5.491,5.491,0,0,0,67.44,26.3ZM28.131,64.162V67.44H24.853Zm5.485,3.278H29.96V62.333l3.657-3.657ZM50.071,42.222V67.44H46.414V49.156a.914.914,0,0,0-1.828,0V67.44H40.929V51.363ZM40.394,69.268h4.192V71.1h-6.02Zm6.02,1.828V69.268h4.192L52.435,71.1ZM51.9,46.414V42.757h2.742v.914A2.746,2.746,0,0,1,51.9,46.414Zm2.742-5.485H51.9v-.535l2.742-2.742ZM62.869,71.1V69.268h4.192L68.89,71.1Zm5.485-24.682V38.186H71.1v5.485A2.746,2.746,0,0,1,68.354,46.414Z" transform="translate(-2.075 -2.075)"/>
        <path id="Path_1038831" data-name="Path 1038831" d="M352,26.056h3.441a.914.914,0,0,0,.681-1.524,1.825,1.825,0,0,1-.465-1.219V21.485h.914a.914.914,0,0,0,.409-.1l1.419-.71,1.419.71a.914.914,0,0,0,1.323-.818v-.914a3.657,3.657,0,1,0-7.313,0v3.657a3.658,3.658,0,0,0,.116.914H352Zm5.485-8.227a1.832,1.832,0,0,1,1.721,1.209l-.4-.2a.913.913,0,0,0-.818,0l-1.635.818h-.7A1.83,1.83,0,0,1,357.485,17.828Z" transform="translate(-297.605)"/>
      </g>
    </g>
  </g>
</svg>
