<svg xmlns="http://www.w3.org/2000/svg" width="38.452" height="38.452" viewBox="0 0 38.452 38.452">
  <g id="Group_1177607" data-name="Group 1177607" transform="translate(-340.961 -746.682)">
    <g id="coin_3054154" transform="translate(337.961 743.682)">
      <path id="Path_1038009" data-name="Path 1038009" d="M15.758,31.746l.824.641a9.978,9.978,0,0,0,3.479,1.465V36.14a.865.865,0,0,0,.916.916h4.578a.865.865,0,0,0,.916-.916V33.485A7.2,7.2,0,0,0,31.047,26.8c0-4.486-3.387-6.409-5.951-7.507-1.923-.824-2.2-1.1-2.2-1.19v-.092a1.576,1.576,0,0,1,.824-.183,4.466,4.466,0,0,1,2.563.732l1.373.824a1.085,1.085,0,0,0,.732.092.825.825,0,0,0,.549-.549l1.739-4.486a.848.848,0,0,0-.366-1.1l-1.007-.549a13.515,13.515,0,0,0-2.655-1.1V9.316a.865.865,0,0,0-.916-.916H21.159a.865.865,0,0,0-.916.916v2.655a6.8,6.8,0,0,0-4.394,6.409c0,4.211,3.387,6.042,6.226,7.141,1.831.732,1.831,1.19,1.831,1.373,0,.549-1.1.549-1.19.549a5.533,5.533,0,0,1-2.93-.916L18.321,25.52a.89.89,0,0,0-.824-.092.825.825,0,0,0-.549.549L15.3,30.555a1.406,1.406,0,0,0,.458,1.19Zm2.655-3.937.458.366a7.369,7.369,0,0,0,3.937,1.19c1.831,0,3.021-1.007,3.021-2.38,0-1.282-.916-2.2-3.021-3.021-2.655-1.007-5.127-2.38-5.127-5.493a5.164,5.164,0,0,1,3.754-4.944.91.91,0,0,0,.641-.916V10.323h2.747v2.014a.986.986,0,0,0,.732.916,8.115,8.115,0,0,1,2.838,1.007l.366.183-1.1,2.838-.458-.275a6.663,6.663,0,0,0-3.479-.916c-1.923,0-2.655,1.1-2.655,2.014,0,1.19.824,1.831,3.3,2.93,2.38,1.007,4.852,2.38,4.852,5.768a5.55,5.55,0,0,1-3.937,5.218.91.91,0,0,0-.641.916v2.38H21.892V33.21a.974.974,0,0,0-.824-.916,7.476,7.476,0,0,1-3.479-1.282l-.275-.183Z" transform="translate(-1.039 -0.456)"/>
      <path id="Path_1038010" data-name="Path 1038010" d="M22.226,41.452A19.226,19.226,0,1,0,3,22.226,19.223,19.223,0,0,0,22.226,41.452Zm0-36.621A17.395,17.395,0,1,1,4.831,22.226,17.387,17.387,0,0,1,22.226,4.831Z"/>
    </g>
  </g>
</svg>
