<svg xmlns="http://www.w3.org/2000/svg" xmlns:xlink="http://www.w3.org/1999/xlink" width="37.15" height="37.15" viewBox="0 0 37.15 37.15">
  <defs>
    <clipPath id="clip-path">
      <path id="path4776" d="M0-682.665H37.15v37.15H0Z" transform="translate(0 682.665)"/>
    </clipPath>
  </defs>
  <g id="Group_1177600" data-name="Group 1177600" transform="translate(-336.188 -747.234)">
    <g id="g4770" transform="translate(336.188 1429.899)">
      <g id="g4772" transform="translate(0 -682.665)">
        <g id="g4774" clip-path="url(#clip-path)">
          <g id="g4780" transform="translate(0.727 18.722)">
            <path id="path4782" d="M-384.508-307.587h-22.129v-10.036a4.863,4.863,0,0,1,3.821-4.75l5.97-1.31a1.644,1.644,0,0,0,1.291-1.605h0" transform="translate(406.636 325.289)" fill="none" stroke="#000" stroke-linecap="round" stroke-linejoin="round" stroke-miterlimit="10" stroke-width="1.5"/>
          </g>
          <g id="g4784" transform="translate(18.442 18.722)">
            <path id="path4786" d="M0,0H0A1.644,1.644,0,0,0,1.292,1.606l6,1.313a4.87,4.87,0,0,1,.934.305" fill="none" stroke="#000" stroke-linecap="round" stroke-linejoin="round" stroke-miterlimit="10" stroke-width="1.5"/>
          </g>
          <g id="g4788" transform="translate(9.642 20.535)">
            <path id="path4790" d="M-190.566,0l-5.484,15.89L-201.533,0" transform="translate(201.533)" fill="none" stroke="#000" stroke-linecap="round" stroke-linejoin="round" stroke-miterlimit="10" stroke-width="1.5"/>
          </g>
          <g id="g4792" transform="translate(8.791 7.71)">
            <path id="path4794" d="M-220.789,0V5.534a6.353,6.353,0,0,1-6.353,6.353h0A6.353,6.353,0,0,1-233.5,5.534V1.587" transform="translate(233.495)" fill="none" stroke="#000" stroke-linecap="round" stroke-linejoin="round" stroke-miterlimit="10" stroke-width="1.5"/>
          </g>
          <g id="g4796" transform="translate(8.791 0.726)">
            <path id="path4798" d="M-90.513,0h8.476V4.206a3.95,3.95,0,0,1-3.95,3.95h-9.734V5.209A5.209,5.209,0,0,1-90.513,0Z" transform="translate(95.722)" fill="none" stroke="#000" stroke-linecap="round" stroke-linejoin="round" stroke-miterlimit="10" stroke-width="1.5"/>
          </g>
          <g id="g4800" transform="translate(15.144 25.098)">
            <path id="path4802" d="M0,0V10.259" transform="translate(0 0)" fill="none" stroke="#000" stroke-linecap="round" stroke-linejoin="round" stroke-miterlimit="10" stroke-width="1.5"/>
          </g>
          <g id="g4804" transform="translate(25.961 22.067)">
            <path id="path4806" d="M-94.766,0h-4.492a.961.961,0,0,0-.961.961v2.07H-93.8V.961A.961.961,0,0,0-94.766,0Z" transform="translate(100.22)" fill="none" stroke="#000" stroke-linecap="round" stroke-linejoin="round" stroke-miterlimit="10" stroke-width="1.5"/>
          </g>
          <g id="g4808" transform="translate(21.913 25.098)">
            <path id="path4810" d="M-72.315-196.8h-3.219a.943.943,0,0,1-.943-.943v-9.44a.943.943,0,0,1,.943-.943h12.625a.943.943,0,0,1,.943.943v9.44a.943.943,0,0,1-.943.943h-3.6" transform="translate(76.477 208.13)" fill="none" stroke="#000" stroke-linecap="round" stroke-linejoin="round" stroke-miterlimit="10" stroke-width="1.5"/>
          </g>
          <g id="g4812" transform="translate(21.913 30.761)">
            <path id="path4814" d="M0,0H5.294" transform="translate(0 0)" fill="none" stroke="#000" stroke-linecap="round" stroke-linejoin="round" stroke-miterlimit="10" stroke-width="1.5"/>
          </g>
          <g id="g4816" transform="translate(30.746 30.761)">
            <path id="path4818" d="M-91.995,0h-5.294" transform="translate(97.289 0)" fill="none" stroke="#000" stroke-linecap="round" stroke-linejoin="round" stroke-miterlimit="10" stroke-width="1.5"/>
          </g>
          <g id="g4820" transform="translate(27.207 28.991)">
            <path id="path4822" d="M-30.75-61.5h0a1.77,1.77,0,0,1-1.77-1.77v-1.77h3.539v1.77A1.77,1.77,0,0,1-30.75-61.5Z" transform="translate(32.52 65.04)" fill="none" stroke="#000" stroke-linecap="round" stroke-linejoin="round" stroke-miterlimit="10" stroke-width="1.5"/>
          </g>
          <g id="g4824" transform="translate(26.266 9.49)">
            <path id="path4826" d="M0-98.527l3.753-3.753L5.931-100.1l4.1-4.1" transform="translate(0 104.197)" fill="none" stroke="#000" stroke-linecap="round" stroke-linejoin="round" stroke-miterlimit="10" stroke-width="1.5"/>
          </g>
          <g id="g4828" transform="translate(34.911 9.359)">
            <path id="path4830" d="M-26.3-26.3v-1.513h-1.513" transform="translate(27.812 27.812)" fill="none" stroke="#000" stroke-linecap="round" stroke-linejoin="round" stroke-miterlimit="10" stroke-width="1.5"/>
          </g>
          <g id="g4832" transform="translate(5.079 30.62)">
            <path id="path4834" d="M0-95.819v-5.514" transform="translate(0 101.333)" fill="none" stroke="#000" stroke-linecap="round" stroke-linejoin="round" stroke-miterlimit="10" stroke-width="1.5"/>
          </g>
          <g id="g4836" transform="translate(5.079 27.717)">
            <path id="path4838" d="M0,0H0" transform="translate(0 0)" fill="none" stroke="#000" stroke-linecap="round" stroke-linejoin="round" stroke-miterlimit="10" stroke-width="1.5"/>
          </g>
          <g id="g4840" transform="translate(28.977 36.424)">
            <path id="path4842" d="M0,0H0" transform="translate(0)" fill="none" stroke="#000" stroke-linecap="round" stroke-linejoin="round" stroke-miterlimit="10" stroke-width="1.5"/>
          </g>
        </g>
      </g>
    </g>
  </g>
</svg>
